<?xml version="1.0" encoding="UTF-8" standalone="no"?>
<!DOCTYPE svg PUBLIC "-//W3C//DTD SVG 1.1//EN"
 "http://www.w3.org/Graphics/SVG/1.1/DTD/svg11.dtd">
<!-- Generated by graphviz version 2.40.1 (20161225.0304)
 -->
<!-- Title: /home/travis/build/AliceO2Group/AliceO2/Analysis/Tasks Pages: 1 -->
<svg width="286pt" height="367pt"
 viewBox="0.00 0.00 286.01 367.00" xmlns="http://www.w3.org/2000/svg" xmlns:xlink="http://www.w3.org/1999/xlink">
<g id="graph0" class="graph" transform="scale(1 1) rotate(0) translate(4 363)">
<title>/home/travis/build/AliceO2Group/AliceO2/Analysis/Tasks</title>
<g id="clust1" class="cluster">
<title>clusterdir_19b17cb436010079e3d017a29cb7858f</title>
<g id="a_clust1"><a xlink:href="dir_19b17cb436010079e3d017a29cb7858f.html" target="_top" xlink:title="Analysis">
<polygon fill="#ddddee" stroke="#000000" points="131.8407,-280 131.8407,-351 201.8407,-351 201.8407,-280 131.8407,-280"/>
<text text-anchor="middle" x="166.8407" y="-339" font-family="Helvetica,sans-Serif" font-size="10.00" fill="#000000">Analysis</text>
</a>
</g>
</g>
<!-- dir_eff7324435ca3301414fec6c28c4adf5 -->
<g id="node1" class="node">
<title>dir_eff7324435ca3301414fec6c28c4adf5</title>
<g id="a_node1"><a xlink:href="dir_eff7324435ca3301414fec6c28c4adf5.html" target="_top" xlink:title="Tasks">
<polygon fill="#eeeeff" stroke="#000000" points="193.8407,-324 139.8407,-324 139.8407,-288 193.8407,-288 193.8407,-324"/>
<text text-anchor="middle" x="166.8407" y="-303.5" font-family="Helvetica,sans-Serif" font-size="10.00" fill="#000000">Tasks</text>
</a>
</g>
</g>
<!-- dir_6af676bf18881990e4083e191d0e63e0 -->
<g id="node2" class="node">
<title>dir_6af676bf18881990e4083e191d0e63e0</title>
<g id="a_node2"><a xlink:href="dir_6af676bf18881990e4083e191d0e63e0.html" target="_top" xlink:title="CCDB">
<polygon fill="none" stroke="#ff0000" points="229.8407,-252 175.8407,-252 175.8407,-216 229.8407,-216 229.8407,-252"/>
<text text-anchor="middle" x="202.8407" y="-231.5" font-family="Helvetica,sans-Serif" font-size="10.00" fill="#000000">CCDB</text>
</a>
</g>
</g>
<!-- dir_eff7324435ca3301414fec6c28c4adf5&#45;&gt;dir_6af676bf18881990e4083e191d0e63e0 -->
<g id="edge6" class="edge">
<title>dir_eff7324435ca3301414fec6c28c4adf5&#45;&gt;dir_6af676bf18881990e4083e191d0e63e0</title>
<path fill="none" stroke="#000000" d="M175.9251,-287.8314C179.9022,-279.8771 184.6562,-270.369 189.0546,-261.5723"/>
<polygon fill="#000000" stroke="#000000" points="192.2924,-262.9228 193.6341,-252.4133 186.0314,-259.7923 192.2924,-262.9228"/>
<g id="a_edge6&#45;headlabel"><a xlink:href="dir_000016_000019.html" target="_top" xlink:title="2">
<text text-anchor="middle" x="193.2244" y="-264.9077" font-family="Helvetica,sans-Serif" font-size="10.00" fill="#000000">2</text>
</a>
</g>
</g>
<!-- dir_051dca18e802f8e9474f2e30d29c04e0 -->
<g id="node3" class="node">
<title>dir_051dca18e802f8e9474f2e30d29c04e0</title>
<g id="a_node3"><a xlink:href="dir_051dca18e802f8e9474f2e30d29c04e0.html" target="_top" xlink:title="Detectors">
<polygon fill="none" stroke="#ff0000" points="234.8407,-108 170.8407,-108 170.8407,-72 234.8407,-72 234.8407,-108"/>
<text text-anchor="middle" x="202.8407" y="-87.5" font-family="Helvetica,sans-Serif" font-size="10.00" fill="#000000">Detectors</text>
</a>
</g>
</g>
<!-- dir_eff7324435ca3301414fec6c28c4adf5&#45;&gt;dir_051dca18e802f8e9474f2e30d29c04e0 -->
<g id="edge7" class="edge">
<title>dir_eff7324435ca3301414fec6c28c4adf5&#45;&gt;dir_051dca18e802f8e9474f2e30d29c04e0</title>
<path fill="none" stroke="#000000" d="M193.9316,-293.6565C210.1891,-284.6445 229.4772,-270.7271 238.8407,-252 260.829,-208.0234 237.5041,-150.6884 219.508,-117.3473"/>
<polygon fill="#000000" stroke="#000000" points="222.328,-115.2204 214.3831,-108.2111 216.2229,-118.645 222.328,-115.2204"/>
<g id="a_edge7&#45;headlabel"><a xlink:href="dir_000016_000039.html" target="_top" xlink:title="2">
<text text-anchor="middle" x="226.5628" y="-114.4664" font-family="Helvetica,sans-Serif" font-size="10.00" fill="#000000">2</text>
</a>
</g>
</g>
<!-- dir_f41dd59f861c855ea21b0dc3111cb7b0 -->
<g id="node4" class="node">
<title>dir_f41dd59f861c855ea21b0dc3111cb7b0</title>
<g id="a_node4"><a xlink:href="dir_f41dd59f861c855ea21b0dc3111cb7b0.html" target="_top" xlink:title="DataModel">
<polygon fill="none" stroke="#ff0000" points="85.3407,-252 16.3407,-252 16.3407,-216 85.3407,-216 85.3407,-252"/>
<text text-anchor="middle" x="50.8407" y="-231.5" font-family="Helvetica,sans-Serif" font-size="10.00" fill="#000000">DataModel</text>
</a>
</g>
</g>
<!-- dir_eff7324435ca3301414fec6c28c4adf5&#45;&gt;dir_f41dd59f861c855ea21b0dc3111cb7b0 -->
<g id="edge8" class="edge">
<title>dir_eff7324435ca3301414fec6c28c4adf5&#45;&gt;dir_f41dd59f861c855ea21b0dc3111cb7b0</title>
<path fill="none" stroke="#000000" d="M139.6439,-289.1192C124.5014,-279.7204 105.4128,-267.8723 88.8173,-257.5716"/>
<polygon fill="#000000" stroke="#000000" points="90.2371,-254.3336 79.8949,-252.0336 86.5456,-260.2811 90.2371,-254.3336"/>
<g id="a_edge8&#45;headlabel"><a xlink:href="dir_000016_000009.html" target="_top" xlink:title="23">
<text text-anchor="middle" x="94.7886" y="-251.3168" font-family="Helvetica,sans-Serif" font-size="10.00" fill="#000000">23</text>
</a>
</g>
</g>
<!-- dir_8d04f135a1eb0fdc4d561ef87bbea216 -->
<g id="node5" class="node">
<title>dir_8d04f135a1eb0fdc4d561ef87bbea216</title>
<g id="a_node5"><a xlink:href="dir_8d04f135a1eb0fdc4d561ef87bbea216.html" target="_top" xlink:title="Core">
<polygon fill="none" stroke="#ff0000" points="157.8407,-252 103.8407,-252 103.8407,-216 157.8407,-216 157.8407,-252"/>
<text text-anchor="middle" x="130.8407" y="-231.5" font-family="Helvetica,sans-Serif" font-size="10.00" fill="#000000">Core</text>
</a>
</g>
</g>
<!-- dir_eff7324435ca3301414fec6c28c4adf5&#45;&gt;dir_8d04f135a1eb0fdc4d561ef87bbea216 -->
<g id="edge9" class="edge">
<title>dir_eff7324435ca3301414fec6c28c4adf5&#45;&gt;dir_8d04f135a1eb0fdc4d561ef87bbea216</title>
<path fill="none" stroke="#000000" d="M157.7564,-287.8314C153.7793,-279.8771 149.0253,-270.369 144.6269,-261.5723"/>
<polygon fill="#000000" stroke="#000000" points="147.6501,-259.7923 140.0474,-252.4133 141.3891,-262.9228 147.6501,-259.7923"/>
<g id="a_edge9&#45;headlabel"><a xlink:href="dir_000016_000005.html" target="_top" xlink:title="8">
<text text-anchor="middle" x="151.7971" y="-259.2377" font-family="Helvetica,sans-Serif" font-size="10.00" fill="#000000">8</text>
</a>
</g>
</g>
<!-- dir_bcbb2cf9a3d3d83e5515c82071a07177 -->
<g id="node6" class="node">
<title>dir_bcbb2cf9a3d3d83e5515c82071a07177</title>
<g id="a_node6"><a xlink:href="dir_bcbb2cf9a3d3d83e5515c82071a07177.html" target="_top" xlink:title="Framework">
<polygon fill="none" stroke="#ff0000" points="169.3407,-180 98.3407,-180 98.3407,-144 169.3407,-144 169.3407,-180"/>
<text text-anchor="middle" x="133.8407" y="-159.5" font-family="Helvetica,sans-Serif" font-size="10.00" fill="#000000">Framework</text>
</a>
</g>
</g>
<!-- dir_eff7324435ca3301414fec6c28c4adf5&#45;&gt;dir_bcbb2cf9a3d3d83e5515c82071a07177 -->
<g id="edge10" class="edge">
<title>dir_eff7324435ca3301414fec6c28c4adf5&#45;&gt;dir_bcbb2cf9a3d3d83e5515c82071a07177</title>
<path fill="none" stroke="#000000" d="M139.7239,-300.7876C98.3449,-292.2209 22.5704,-273.9101 6.8407,-252 -2.4903,-239.0026 -1.9862,-229.3449 6.8407,-216 24.8718,-188.7399 59.7487,-175.1986 88.3979,-168.496"/>
<polygon fill="#000000" stroke="#000000" points="89.1834,-171.9073 98.2339,-166.3991 87.7239,-165.0611 89.1834,-171.9073"/>
<g id="a_edge10&#45;headlabel"><a xlink:href="dir_000016_000013.html" target="_top" xlink:title="50">
<text text-anchor="middle" x="86.2598" y="-172.9335" font-family="Helvetica,sans-Serif" font-size="10.00" fill="#000000">50</text>
</a>
</g>
</g>
<!-- dir_2171f7ec022c5423887b07c69b2f5b48 -->
<g id="node7" class="node">
<title>dir_2171f7ec022c5423887b07c69b2f5b48</title>
<g id="a_node7"><a xlink:href="dir_2171f7ec022c5423887b07c69b2f5b48.html" target="_top" xlink:title="DataFormats">
<polygon fill="none" stroke="#ff0000" points="242.8407,-36 162.8407,-36 162.8407,0 242.8407,0 242.8407,-36"/>
<text text-anchor="middle" x="202.8407" y="-15.5" font-family="Helvetica,sans-Serif" font-size="10.00" fill="#000000">DataFormats</text>
</a>
</g>
</g>
<!-- dir_eff7324435ca3301414fec6c28c4adf5&#45;&gt;dir_2171f7ec022c5423887b07c69b2f5b48 -->
<g id="edge11" class="edge">
<title>dir_eff7324435ca3301414fec6c28c4adf5&#45;&gt;dir_2171f7ec022c5423887b07c69b2f5b48</title>
<path fill="none" stroke="#000000" d="M193.8551,-297.9673C215.17,-290.0431 243.4638,-275.6262 256.8407,-252 296.3593,-182.2027 273.5938,-146.4858 243.8407,-72 239.9109,-62.1619 233.6768,-52.567 227.2444,-44.2603"/>
<polygon fill="#000000" stroke="#000000" points="229.868,-41.9399 220.8237,-36.4217 224.4528,-46.3756 229.868,-41.9399"/>
<g id="a_edge11&#45;headlabel"><a xlink:href="dir_000016_000076.html" target="_top" xlink:title="2">
<text text-anchor="middle" x="234.3423" y="-40.4216" font-family="Helvetica,sans-Serif" font-size="10.00" fill="#000000">2</text>
</a>
</g>
</g>
<!-- dir_6af676bf18881990e4083e191d0e63e0&#45;&gt;dir_bcbb2cf9a3d3d83e5515c82071a07177 -->
<g id="edge1" class="edge">
<title>dir_6af676bf18881990e4083e191d0e63e0&#45;&gt;dir_bcbb2cf9a3d3d83e5515c82071a07177</title>
<path fill="none" stroke="#000000" d="M185.4291,-215.8314C177.3197,-207.3694 167.5251,-197.1489 158.6588,-187.8971"/>
<polygon fill="#000000" stroke="#000000" points="160.9328,-185.2115 151.4868,-180.4133 155.8789,-190.0549 160.9328,-185.2115"/>
<g id="a_edge1&#45;headlabel"><a xlink:href="dir_000019_000013.html" target="_top" xlink:title="2">
<text text-anchor="middle" x="165.4699" y="-183.3422" font-family="Helvetica,sans-Serif" font-size="10.00" fill="#000000">2</text>
</a>
</g>
</g>
<!-- dir_051dca18e802f8e9474f2e30d29c04e0&#45;&gt;dir_6af676bf18881990e4083e191d0e63e0 -->
<g id="edge2" class="edge">
<title>dir_051dca18e802f8e9474f2e30d29c04e0&#45;&gt;dir_6af676bf18881990e4083e191d0e63e0</title>
<path fill="none" stroke="#000000" d="M202.8407,-108.0896C202.8407,-132.5727 202.8407,-176.5174 202.8407,-205.4713"/>
<polygon fill="#000000" stroke="#000000" points="199.3408,-205.7623 202.8407,-215.7623 206.3408,-205.7623 199.3408,-205.7623"/>
<g id="a_edge2&#45;headlabel"><a xlink:href="dir_000039_000019.html" target="_top" xlink:title="25">
<text text-anchor="middle" x="196.5015" y="-199.6677" font-family="Helvetica,sans-Serif" font-size="10.00" fill="#000000">25</text>
</a>
</g>
</g>
<!-- dir_051dca18e802f8e9474f2e30d29c04e0&#45;&gt;dir_bcbb2cf9a3d3d83e5515c82071a07177 -->
<g id="edge3" class="edge">
<title>dir_051dca18e802f8e9474f2e30d29c04e0&#45;&gt;dir_bcbb2cf9a3d3d83e5515c82071a07177</title>
<path fill="none" stroke="#000000" d="M191.1707,-108.4133C183.7682,-116.9938 174.0199,-127.3414 164.6186,-136.6463"/>
<polygon fill="#000000" stroke="#000000" points="161.9499,-134.3586 157.2047,-143.8314 166.8216,-139.3853 161.9499,-134.3586"/>
<g id="a_edge3&#45;headlabel"><a xlink:href="dir_000039_000013.html" target="_top" xlink:title="741">
<text text-anchor="middle" x="162.5552" y="-127.3181" font-family="Helvetica,sans-Serif" font-size="10.00" fill="#000000">741</text>
</a>
</g>
</g>
<!-- dir_051dca18e802f8e9474f2e30d29c04e0&#45;&gt;dir_2171f7ec022c5423887b07c69b2f5b48 -->
<g id="edge4" class="edge">
<title>dir_051dca18e802f8e9474f2e30d29c04e0&#45;&gt;dir_2171f7ec022c5423887b07c69b2f5b48</title>
<path fill="none" stroke="#000000" d="M196.8883,-71.8314C196.1379,-64.131 195.917,-54.9743 196.2257,-46.4166"/>
<polygon fill="#000000" stroke="#000000" points="199.72,-46.6161 196.8647,-36.4133 192.7342,-46.1697 199.72,-46.6161"/>
<g id="a_edge4&#45;headlabel"><a xlink:href="dir_000039_000076.html" target="_top" xlink:title="1091">
<text text-anchor="middle" x="202.3244" y="-47.8844" font-family="Helvetica,sans-Serif" font-size="10.00" fill="#000000">1091</text>
</a>
</g>
</g>
<!-- dir_f41dd59f861c855ea21b0dc3111cb7b0&#45;&gt;dir_bcbb2cf9a3d3d83e5515c82071a07177 -->
<g id="edge5" class="edge">
<title>dir_f41dd59f861c855ea21b0dc3111cb7b0&#45;&gt;dir_bcbb2cf9a3d3d83e5515c82071a07177</title>
<path fill="none" stroke="#000000" d="M71.7851,-215.8314C81.9099,-207.0485 94.2184,-196.3712 105.1955,-186.8489"/>
<polygon fill="#000000" stroke="#000000" points="107.6426,-189.3595 112.903,-180.1628 103.0556,-184.0718 107.6426,-189.3595"/>
<g id="a_edge5&#45;headlabel"><a xlink:href="dir_000009_000013.html" target="_top" xlink:title="7">
<text text-anchor="middle" x="106.7878" y="-191.3597" font-family="Helvetica,sans-Serif" font-size="10.00" fill="#000000">7</text>
</a>
</g>
</g>
<!-- dir_8d04f135a1eb0fdc4d561ef87bbea216&#45;&gt;dir_bcbb2cf9a3d3d83e5515c82071a07177 -->
<g id="edge12" class="edge">
<title>dir_8d04f135a1eb0fdc4d561ef87bbea216&#45;&gt;dir_bcbb2cf9a3d3d83e5515c82071a07177</title>
<path fill="none" stroke="#000000" d="M131.5978,-215.8314C131.9186,-208.131 132.3001,-198.9743 132.6567,-190.4166"/>
<polygon fill="#000000" stroke="#000000" points="136.1541,-190.5503 133.0735,-180.4133 129.1602,-190.2589 136.1541,-190.5503"/>
<g id="a_edge12&#45;headlabel"><a xlink:href="dir_000005_000013.html" target="_top" xlink:title="4">
<text text-anchor="middle" x="138.8413" y="-191.76" font-family="Helvetica,sans-Serif" font-size="10.00" fill="#000000">4</text>
</a>
</g>
</g>
<!-- dir_bcbb2cf9a3d3d83e5515c82071a07177&#45;&gt;dir_051dca18e802f8e9474f2e30d29c04e0 -->
<g id="edge13" class="edge">
<title>dir_bcbb2cf9a3d3d83e5515c82071a07177&#45;&gt;dir_051dca18e802f8e9474f2e30d29c04e0</title>
<path fill="none" stroke="#000000" d="M145.3,-143.8314C152.7876,-135.1337 162.7311,-124.5783 172.2926,-115.1265"/>
<polygon fill="#000000" stroke="#000000" points="174.7345,-117.634 179.4829,-108.1628 169.8646,-112.6057 174.7345,-117.634"/>
<g id="a_edge13&#45;headlabel"><a xlink:href="dir_000013_000039.html" target="_top" xlink:title="4">
<text text-anchor="middle" x="174.1276" y="-119.6743" font-family="Helvetica,sans-Serif" font-size="10.00" fill="#000000">4</text>
</a>
</g>
</g>
<!-- dir_bcbb2cf9a3d3d83e5515c82071a07177&#45;&gt;dir_2171f7ec022c5423887b07c69b2f5b48 -->
<g id="edge14" class="edge">
<title>dir_bcbb2cf9a3d3d83e5515c82071a07177&#45;&gt;dir_2171f7ec022c5423887b07c69b2f5b48</title>
<path fill="none" stroke="#000000" d="M130.8027,-143.6935C132.8147,-124.9812 140.78,-95.4228 152.8407,-72 157.8227,-62.3246 164.5538,-52.5947 171.5446,-44.1115"/>
<polygon fill="#000000" stroke="#000000" points="174.3356,-46.2366 178.2782,-36.4027 169.0636,-41.6316 174.3356,-46.2366"/>
<g id="a_edge14&#45;headlabel"><a xlink:href="dir_000013_000076.html" target="_top" xlink:title="82">
<text text-anchor="middle" x="174.1092" y="-48.3117" font-family="Helvetica,sans-Serif" font-size="10.00" fill="#000000">82</text>
</a>
</g>
</g>
<!-- dir_2171f7ec022c5423887b07c69b2f5b48&#45;&gt;dir_051dca18e802f8e9474f2e30d29c04e0 -->
<g id="edge15" class="edge">
<title>dir_2171f7ec022c5423887b07c69b2f5b48&#45;&gt;dir_051dca18e802f8e9474f2e30d29c04e0</title>
<path fill="none" stroke="#000000" d="M208.8167,-36.4133C209.5479,-44.0593 209.761,-53.1084 209.4562,-61.5726"/>
<polygon fill="#000000" stroke="#000000" points="205.9455,-61.6264 208.7931,-71.8314 212.9309,-62.078 205.9455,-61.6264"/>
<g id="a_edge15&#45;headlabel"><a xlink:href="dir_000076_000039.html" target="_top" xlink:title="14">
<text text-anchor="middle" x="203.3439" y="-55.3562" font-family="Helvetica,sans-Serif" font-size="10.00" fill="#000000">14</text>
</a>
</g>
</g>
<!-- dir_2171f7ec022c5423887b07c69b2f5b48&#45;&gt;dir_bcbb2cf9a3d3d83e5515c82071a07177 -->
<g id="edge16" class="edge">
<title>dir_2171f7ec022c5423887b07c69b2f5b48&#45;&gt;dir_bcbb2cf9a3d3d83e5515c82071a07177</title>
<path fill="none" stroke="#000000" d="M194.33,-36.4027C187.0347,-46.37 177.4149,-59.2325 170.8407,-72 160.6644,-91.763 153.4038,-115.894 147.4853,-134.1925"/>
<polygon fill="#000000" stroke="#000000" points="144.1602,-133.0999 144.3252,-143.6935 150.8024,-135.3092 144.1602,-133.0999"/>
<g id="a_edge16&#45;headlabel"><a xlink:href="dir_000076_000013.html" target="_top" xlink:title="10">
<text text-anchor="middle" x="142.6004" y="-126.293" font-family="Helvetica,sans-Serif" font-size="10.00" fill="#000000">10</text>
</a>
</g>
</g>
</g>
</svg>
