<?xml version="1.0" encoding="UTF-8" standalone="no"?>
<!DOCTYPE svg PUBLIC "-//W3C//DTD SVG 1.1//EN"
 "http://www.w3.org/Graphics/SVG/1.1/DTD/svg11.dtd">
<!-- Generated by graphviz version 2.40.1 (20161225.0304)
 -->
<!-- Title: /home/travis/build/AliceO2Group/AliceO2/Detectors/MUON/MCH Pages: 1 -->
<svg width="718pt" height="447pt"
 viewBox="0.00 0.00 717.52 447.00" xmlns="http://www.w3.org/2000/svg" xmlns:xlink="http://www.w3.org/1999/xlink">
<g id="graph0" class="graph" transform="scale(1 1) rotate(0) translate(4 443)">
<title>/home/travis/build/AliceO2Group/AliceO2/Detectors/MUON/MCH</title>
<g id="clust1" class="cluster">
<title>clusterdir_1cc233fd3b1202b9dad36810b41b97af</title>
<g id="a_clust1"><a xlink:href="dir_1cc233fd3b1202b9dad36810b41b97af.html" target="_top" xlink:title="MUON">
<polygon fill="#ddddee" stroke="#000000" points="8,-128 8,-431 398,-431 398,-128 8,-128"/>
<text text-anchor="middle" x="203" y="-419" font-family="Helvetica,sans-Serif" font-size="10.00" fill="#000000">MUON</text>
</a>
</g>
</g>
<g id="clust2" class="cluster">
<title>clusterdir_061f7088060f41729027f6c2fce0273e</title>
<g id="a_clust2"><a xlink:href="dir_061f7088060f41729027f6c2fce0273e.html" target="_top">
<polygon fill="#eeeeff" stroke="#000000" points="16,-136 16,-404 390,-404 390,-136 16,-136"/>
</a>
</g>
</g>
<!-- dir_061f7088060f41729027f6c2fce0273e -->
<g id="node1" class="node">
<title>dir_061f7088060f41729027f6c2fce0273e</title>
<text text-anchor="middle" x="355" y="-375.5" font-family="Helvetica,sans-Serif" font-size="10.00" fill="#000000">MCH</text>
</g>
<!-- dir_1155c84989a046e7de4bf0156dc4b34c -->
<g id="node2" class="node">
<title>dir_1155c84989a046e7de4bf0156dc4b34c</title>
<g id="a_node2"><a xlink:href="dir_1155c84989a046e7de4bf0156dc4b34c.html" target="_top" xlink:title="Base">
<polygon fill="#ffffff" stroke="#ff0000" points="274,-252 220,-252 220,-216 274,-216 274,-252"/>
<text text-anchor="middle" x="247" y="-231.5" font-family="Helvetica,sans-Serif" font-size="10.00" fill="#000000">Base</text>
</a>
</g>
</g>
<!-- dir_f53aaea7b1f4a3d2e21e52645ea2576d -->
<g id="node3" class="node">
<title>dir_f53aaea7b1f4a3d2e21e52645ea2576d</title>
<g id="a_node3"><a xlink:href="dir_f53aaea7b1f4a3d2e21e52645ea2576d.html" target="_top" xlink:title="Contour">
<polygon fill="#ffffff" stroke="#ff0000" points="348.5,-180 293.5,-180 293.5,-144 348.5,-144 348.5,-180"/>
<text text-anchor="middle" x="321" y="-159.5" font-family="Helvetica,sans-Serif" font-size="10.00" fill="#000000">Contour</text>
</a>
</g>
</g>
<!-- dir_b098e3604916eca5f90f2bb1c75b7880 -->
<g id="node4" class="node">
<title>dir_b098e3604916eca5f90f2bb1c75b7880</title>
<g id="a_node4"><a xlink:href="dir_b098e3604916eca5f90f2bb1c75b7880.html" target="_top" xlink:title="Mapping">
<polygon fill="#ffffff" stroke="#ff0000" points="350,-252 292,-252 292,-216 350,-216 350,-252"/>
<text text-anchor="middle" x="321" y="-231.5" font-family="Helvetica,sans-Serif" font-size="10.00" fill="#000000">Mapping</text>
</a>
</g>
</g>
<!-- dir_b098e3604916eca5f90f2bb1c75b7880&#45;&gt;dir_f53aaea7b1f4a3d2e21e52645ea2576d -->
<g id="edge44" class="edge">
<title>dir_b098e3604916eca5f90f2bb1c75b7880&#45;&gt;dir_f53aaea7b1f4a3d2e21e52645ea2576d</title>
<path fill="none" stroke="#000000" d="M321,-215.8314C321,-208.131 321,-198.9743 321,-190.4166"/>
<polygon fill="#000000" stroke="#000000" points="324.5001,-190.4132 321,-180.4133 317.5001,-190.4133 324.5001,-190.4132"/>
<g id="a_edge44&#45;headlabel"><a xlink:href="dir_000515_000262.html" target="_top" xlink:title="13">
<text text-anchor="middle" x="327.3393" y="-191.5079" font-family="Helvetica,sans-Serif" font-size="10.00" fill="#000000">13</text>
</a>
</g>
</g>
<!-- dir_6229e1f1a243f5ed3f0013dfa4f13deb -->
<g id="node5" class="node">
<title>dir_6229e1f1a243f5ed3f0013dfa4f13deb</title>
<g id="a_node5"><a xlink:href="dir_6229e1f1a243f5ed3f0013dfa4f13deb.html" target="_top" xlink:title="PreClustering">
<polygon fill="#ffffff" stroke="#ff0000" points="202,-324 120,-324 120,-288 202,-288 202,-324"/>
<text text-anchor="middle" x="161" y="-303.5" font-family="Helvetica,sans-Serif" font-size="10.00" fill="#000000">PreClustering</text>
</a>
</g>
</g>
<!-- dir_6229e1f1a243f5ed3f0013dfa4f13deb&#45;&gt;dir_1155c84989a046e7de4bf0156dc4b34c -->
<g id="edge1" class="edge">
<title>dir_6229e1f1a243f5ed3f0013dfa4f13deb&#45;&gt;dir_1155c84989a046e7de4bf0156dc4b34c</title>
<path fill="none" stroke="#000000" d="M182.7014,-287.8314C193.1921,-279.0485 205.9455,-268.3712 217.3194,-258.8489"/>
<polygon fill="#000000" stroke="#000000" points="219.8847,-261.2659 225.3055,-252.1628 215.3911,-255.8986 219.8847,-261.2659"/>
<g id="a_edge1&#45;headlabel"><a xlink:href="dir_000535_000133.html" target="_top" xlink:title="2">
<text text-anchor="middle" x="218.9511" y="-263.2504" font-family="Helvetica,sans-Serif" font-size="10.00" fill="#000000">2</text>
</a>
</g>
</g>
<!-- dir_6229e1f1a243f5ed3f0013dfa4f13deb&#45;&gt;dir_b098e3604916eca5f90f2bb1c75b7880 -->
<g id="edge2" class="edge">
<title>dir_6229e1f1a243f5ed3f0013dfa4f13deb&#45;&gt;dir_b098e3604916eca5f90f2bb1c75b7880</title>
<path fill="none" stroke="#000000" d="M202.0626,-288.1381C223.7449,-278.635 250.9802,-266.5867 282.8719,-252.0131"/>
<polygon fill="#000000" stroke="#000000" points="284.3564,-255.1829 291.9897,-247.8356 281.4406,-248.819 284.3564,-255.1829"/>
<g id="a_edge2&#45;headlabel"><a xlink:href="dir_000535_000515.html" target="_top" xlink:title="2">
<text text-anchor="middle" x="282.271" y="-256.7613" font-family="Helvetica,sans-Serif" font-size="10.00" fill="#000000">2</text>
</a>
</g>
</g>
<!-- dir_f8de85f281636d081fd2e7e06b0134d2 -->
<g id="node6" class="node">
<title>dir_f8de85f281636d081fd2e7e06b0134d2</title>
<g id="a_node6"><a xlink:href="dir_f8de85f281636d081fd2e7e06b0134d2.html" target="_top" xlink:title="Raw">
<polygon fill="#ffffff" stroke="#ff0000" points="382,-324 328,-324 328,-288 382,-288 382,-324"/>
<text text-anchor="middle" x="355" y="-303.5" font-family="Helvetica,sans-Serif" font-size="10.00" fill="#000000">Raw</text>
</a>
</g>
</g>
<!-- dir_f8de85f281636d081fd2e7e06b0134d2&#45;&gt;dir_1155c84989a046e7de4bf0156dc4b34c -->
<g id="edge36" class="edge">
<title>dir_f8de85f281636d081fd2e7e06b0134d2&#45;&gt;dir_1155c84989a046e7de4bf0156dc4b34c</title>
<path fill="none" stroke="#000000" d="M327.747,-287.8314C314.0611,-278.7074 297.3085,-267.539 282.6173,-257.7449"/>
<polygon fill="#000000" stroke="#000000" points="284.5062,-254.7977 274.2442,-252.1628 280.6233,-260.6221 284.5062,-254.7977"/>
<g id="a_edge36&#45;headlabel"><a xlink:href="dir_000419_000133.html" target="_top" xlink:title="5">
<text text-anchor="middle" x="289.072" y="-251.9292" font-family="Helvetica,sans-Serif" font-size="10.00" fill="#000000">5</text>
</a>
</g>
</g>
<!-- dir_f8de85f281636d081fd2e7e06b0134d2&#45;&gt;dir_b098e3604916eca5f90f2bb1c75b7880 -->
<g id="edge40" class="edge">
<title>dir_f8de85f281636d081fd2e7e06b0134d2&#45;&gt;dir_b098e3604916eca5f90f2bb1c75b7880</title>
<path fill="none" stroke="#000000" d="M346.4204,-287.8314C342.6642,-279.8771 338.1743,-270.369 334.0202,-261.5723"/>
<polygon fill="#000000" stroke="#000000" points="337.1301,-259.9612 329.6952,-252.4133 330.8004,-262.9503 337.1301,-259.9612"/>
<g id="a_edge40&#45;headlabel"><a xlink:href="dir_000419_000515.html" target="_top" xlink:title="1">
<text text-anchor="middle" x="341.2324" y="-259.4993" font-family="Helvetica,sans-Serif" font-size="10.00" fill="#000000">1</text>
</a>
</g>
</g>
<!-- dir_4ab6b4cc6a7edbff49100e9123df213f -->
<g id="node10" class="node">
<title>dir_4ab6b4cc6a7edbff49100e9123df213f</title>
<g id="a_node10"><a xlink:href="dir_4ab6b4cc6a7edbff49100e9123df213f.html" target="_top" xlink:title="Common">
<polygon fill="none" stroke="#ff0000" points="467.5,-252 406.5,-252 406.5,-216 467.5,-216 467.5,-252"/>
<text text-anchor="middle" x="437" y="-231.5" font-family="Helvetica,sans-Serif" font-size="10.00" fill="#000000">Common</text>
</a>
</g>
</g>
<!-- dir_f8de85f281636d081fd2e7e06b0134d2&#45;&gt;dir_4ab6b4cc6a7edbff49100e9123df213f -->
<g id="edge35" class="edge">
<title>dir_f8de85f281636d081fd2e7e06b0134d2&#45;&gt;dir_4ab6b4cc6a7edbff49100e9123df213f</title>
<path fill="none" stroke="#000000" d="M375.6921,-287.8314C385.6948,-279.0485 397.855,-268.3712 408.6999,-258.8489"/>
<polygon fill="#000000" stroke="#000000" points="411.1094,-261.3909 416.3146,-252.1628 406.4908,-256.1308 411.1094,-261.3909"/>
<g id="a_edge35&#45;headlabel"><a xlink:href="dir_000419_000027.html" target="_top" xlink:title="1">
<text text-anchor="middle" x="410.2817" y="-263.3962" font-family="Helvetica,sans-Serif" font-size="10.00" fill="#000000">1</text>
</a>
</g>
</g>
<!-- dir_bcbb2cf9a3d3d83e5515c82071a07177 -->
<g id="node13" class="node">
<title>dir_bcbb2cf9a3d3d83e5515c82071a07177</title>
<g id="a_node13"><a xlink:href="dir_bcbb2cf9a3d3d83e5515c82071a07177.html" target="_top" xlink:title="Framework">
<polygon fill="none" stroke="#ff0000" points="609.5,-180 538.5,-180 538.5,-144 609.5,-144 609.5,-180"/>
<text text-anchor="middle" x="574" y="-159.5" font-family="Helvetica,sans-Serif" font-size="10.00" fill="#000000">Framework</text>
</a>
</g>
</g>
<!-- dir_f8de85f281636d081fd2e7e06b0134d2&#45;&gt;dir_bcbb2cf9a3d3d83e5515c82071a07177 -->
<g id="edge37" class="edge">
<title>dir_f8de85f281636d081fd2e7e06b0134d2&#45;&gt;dir_bcbb2cf9a3d3d83e5515c82071a07177</title>
<path fill="none" stroke="#000000" d="M382.0288,-294.7347C388.2078,-292.3525 394.7863,-289.967 401,-288 465.1276,-267.6998 499.4708,-298.5764 548,-252 564.6105,-236.0579 570.801,-210.2275 573.0163,-190.319"/>
<polygon fill="#000000" stroke="#000000" points="576.5126,-190.5087 573.8629,-180.2506 569.5372,-189.9221 576.5126,-190.5087"/>
<g id="a_edge37&#45;headlabel"><a xlink:href="dir_000419_000013.html" target="_top" xlink:title="2">
<text text-anchor="middle" x="579.0408" y="-191.8286" font-family="Helvetica,sans-Serif" font-size="10.00" fill="#000000">2</text>
</a>
</g>
</g>
<!-- dir_26637d1bd82229bc9ed97f7e706be743 -->
<g id="node14" class="node">
<title>dir_26637d1bd82229bc9ed97f7e706be743</title>
<g id="a_node14"><a xlink:href="dir_26637d1bd82229bc9ed97f7e706be743.html" target="_top" xlink:title="Raw">
<polygon fill="none" stroke="#ff0000" points="464,-324 410,-324 410,-288 464,-288 464,-324"/>
<text text-anchor="middle" x="437" y="-303.5" font-family="Helvetica,sans-Serif" font-size="10.00" fill="#000000">Raw</text>
</a>
</g>
</g>
<!-- dir_f8de85f281636d081fd2e7e06b0134d2&#45;&gt;dir_26637d1bd82229bc9ed97f7e706be743 -->
<g id="edge38" class="edge">
<title>dir_f8de85f281636d081fd2e7e06b0134d2&#45;&gt;dir_26637d1bd82229bc9ed97f7e706be743</title>
<path fill="none" stroke="#000000" d="M382.2266,-306C387.9321,-306 393.6377,-306 399.3433,-306"/>
<polygon fill="#000000" stroke="#000000" points="399.6133,-309.5001 409.6133,-306 399.6132,-302.5001 399.6133,-309.5001"/>
<g id="a_edge38&#45;headlabel"><a xlink:href="dir_000419_000572.html" target="_top" xlink:title="10">
<text text-anchor="middle" x="396.0187" y="-309.8393" font-family="Helvetica,sans-Serif" font-size="10.00" fill="#000000">10</text>
</a>
</g>
</g>
<!-- dir_2171f7ec022c5423887b07c69b2f5b48 -->
<g id="node15" class="node">
<title>dir_2171f7ec022c5423887b07c69b2f5b48</title>
<g id="a_node15"><a xlink:href="dir_2171f7ec022c5423887b07c69b2f5b48.html" target="_top" xlink:title="DataFormats">
<polygon fill="none" stroke="#ff0000" points="596,-108 516,-108 516,-72 596,-72 596,-108"/>
<text text-anchor="middle" x="556" y="-87.5" font-family="Helvetica,sans-Serif" font-size="10.00" fill="#000000">DataFormats</text>
</a>
</g>
</g>
<!-- dir_f8de85f281636d081fd2e7e06b0134d2&#45;&gt;dir_2171f7ec022c5423887b07c69b2f5b48 -->
<g id="edge39" class="edge">
<title>dir_f8de85f281636d081fd2e7e06b0134d2&#45;&gt;dir_2171f7ec022c5423887b07c69b2f5b48</title>
<path fill="none" stroke="#000000" d="M382.4728,-294.4018C388.512,-292.0915 394.9204,-289.8197 401,-288 474.9878,-265.8538 507.0731,-295.3359 571,-252 619.9159,-218.84 648.0566,-179.4593 619,-128 615.4163,-121.6532 610.3001,-116.2478 604.5126,-111.6795"/>
<polygon fill="#000000" stroke="#000000" points="606.4938,-108.7942 596.2854,-105.959 602.4976,-114.5414 606.4938,-108.7942"/>
<g id="a_edge39&#45;headlabel"><a xlink:href="dir_000419_000076.html" target="_top" xlink:title="12">
<text text-anchor="middle" x="611.066" y="-106.0151" font-family="Helvetica,sans-Serif" font-size="10.00" fill="#000000">12</text>
</a>
</g>
</g>
<!-- dir_e4cb5181a3c884468a78a261ced84e7b -->
<g id="node7" class="node">
<title>dir_e4cb5181a3c884468a78a261ced84e7b</title>
<g id="a_node7"><a xlink:href="dir_e4cb5181a3c884468a78a261ced84e7b.html" target="_top" xlink:title="Simulation">
<polygon fill="#ffffff" stroke="#ff0000" points="289.5,-324 220.5,-324 220.5,-288 289.5,-288 289.5,-324"/>
<text text-anchor="middle" x="255" y="-303.5" font-family="Helvetica,sans-Serif" font-size="10.00" fill="#000000">Simulation</text>
</a>
</g>
</g>
<!-- dir_e4cb5181a3c884468a78a261ced84e7b&#45;&gt;dir_1155c84989a046e7de4bf0156dc4b34c -->
<g id="edge14" class="edge">
<title>dir_e4cb5181a3c884468a78a261ced84e7b&#45;&gt;dir_1155c84989a046e7de4bf0156dc4b34c</title>
<path fill="none" stroke="#000000" d="M252.9813,-287.8314C252.1257,-280.131 251.1083,-270.9743 250.1574,-262.4166"/>
<polygon fill="#000000" stroke="#000000" points="253.6289,-261.9656 249.0459,-252.4133 246.6717,-262.7386 253.6289,-261.9656"/>
<g id="a_edge14&#45;headlabel"><a xlink:href="dir_000203_000133.html" target="_top" xlink:title="6">
<text text-anchor="middle" x="256.8477" y="-262.7247" font-family="Helvetica,sans-Serif" font-size="10.00" fill="#000000">6</text>
</a>
</g>
</g>
<!-- dir_e4cb5181a3c884468a78a261ced84e7b&#45;&gt;dir_b098e3604916eca5f90f2bb1c75b7880 -->
<g id="edge19" class="edge">
<title>dir_e4cb5181a3c884468a78a261ced84e7b&#45;&gt;dir_b098e3604916eca5f90f2bb1c75b7880</title>
<path fill="none" stroke="#000000" d="M271.6546,-287.8314C279.4114,-279.3694 288.7802,-269.1489 297.261,-259.8971"/>
<polygon fill="#000000" stroke="#000000" points="299.9439,-262.1499 304.1212,-252.4133 294.7838,-257.4198 299.9439,-262.1499"/>
<g id="a_edge19&#45;headlabel"><a xlink:href="dir_000203_000515.html" target="_top" xlink:title="3">
<text text-anchor="middle" x="299.608" y="-264.2182" font-family="Helvetica,sans-Serif" font-size="10.00" fill="#000000">3</text>
</a>
</g>
</g>
<!-- dir_e4cb5181a3c884468a78a261ced84e7b&#45;&gt;dir_4ab6b4cc6a7edbff49100e9123df213f -->
<g id="edge13" class="edge">
<title>dir_e4cb5181a3c884468a78a261ced84e7b&#45;&gt;dir_4ab6b4cc6a7edbff49100e9123df213f</title>
<path fill="none" stroke="#000000" d="M289.6575,-292.8218C317.8379,-282.0378 358.5874,-266.2879 394,-252 394.8537,-251.6556 395.7164,-251.3062 396.5857,-250.953"/>
<polygon fill="#000000" stroke="#000000" points="398.1143,-254.109 406.0364,-247.074 395.4564,-247.6332 398.1143,-254.109"/>
<g id="a_edge13&#45;headlabel"><a xlink:href="dir_000203_000027.html" target="_top" xlink:title="2">
<text text-anchor="middle" x="395.867" y="-255.6005" font-family="Helvetica,sans-Serif" font-size="10.00" fill="#000000">2</text>
</a>
</g>
</g>
<!-- dir_37c90836491b695b472bf98d1be8336b -->
<g id="node11" class="node">
<title>dir_37c90836491b695b472bf98d1be8336b</title>
<g id="a_node11"><a xlink:href="dir_37c90836491b695b472bf98d1be8336b.html" target="_top" xlink:title="Base">
<polygon fill="none" stroke="#ff0000" points="498,-36 444,-36 444,0 498,0 498,-36"/>
<text text-anchor="middle" x="471" y="-15.5" font-family="Helvetica,sans-Serif" font-size="10.00" fill="#000000">Base</text>
</a>
</g>
</g>
<!-- dir_e4cb5181a3c884468a78a261ced84e7b&#45;&gt;dir_37c90836491b695b472bf98d1be8336b -->
<g id="edge15" class="edge">
<title>dir_e4cb5181a3c884468a78a261ced84e7b&#45;&gt;dir_37c90836491b695b472bf98d1be8336b</title>
<path fill="none" stroke="#000000" d="M230.4199,-287.7772C219.8518,-278.4022 208.6457,-266.0021 203,-252 189.5442,-218.6279 219.4818,-132.2766 223,-128 277.2551,-62.0482 379.0614,-34.3389 433.8457,-23.7844"/>
<polygon fill="#000000" stroke="#000000" points="434.6233,-27.2002 443.8268,-21.9518 433.3592,-20.3153 434.6233,-27.2002"/>
<g id="a_edge15&#45;headlabel"><a xlink:href="dir_000203_000274.html" target="_top" xlink:title="5">
<text text-anchor="middle" x="431.6005" y="-28.1419" font-family="Helvetica,sans-Serif" font-size="10.00" fill="#000000">5</text>
</a>
</g>
</g>
<!-- dir_f01815b857f9009bea48e2cb39492245 -->
<g id="node12" class="node">
<title>dir_f01815b857f9009bea48e2cb39492245</title>
<g id="a_node12"><a xlink:href="dir_f01815b857f9009bea48e2cb39492245.html" target="_top" xlink:title="Passive">
<polygon fill="none" stroke="#ff0000" points="498,-108 444,-108 444,-72 498,-72 498,-108"/>
<text text-anchor="middle" x="471" y="-87.5" font-family="Helvetica,sans-Serif" font-size="10.00" fill="#000000">Passive</text>
</a>
</g>
</g>
<!-- dir_e4cb5181a3c884468a78a261ced84e7b&#45;&gt;dir_f01815b857f9009bea48e2cb39492245 -->
<g id="edge16" class="edge">
<title>dir_e4cb5181a3c884468a78a261ced84e7b&#45;&gt;dir_f01815b857f9009bea48e2cb39492245</title>
<path fill="none" stroke="#000000" d="M289.8963,-292.9713C311.4226,-283.7669 338.7006,-269.8905 359,-252 365.0572,-246.6616 423.1611,-160.9898 453.2013,-116.4498"/>
<polygon fill="#000000" stroke="#000000" points="456.1247,-118.3748 458.8115,-108.1263 450.32,-114.4624 456.1247,-118.3748"/>
<g id="a_edge16&#45;headlabel"><a xlink:href="dir_000203_000582.html" target="_top" xlink:title="6">
<text text-anchor="middle" x="456.4701" y="-120.4424" font-family="Helvetica,sans-Serif" font-size="10.00" fill="#000000">6</text>
</a>
</g>
</g>
<!-- dir_e4cb5181a3c884468a78a261ced84e7b&#45;&gt;dir_bcbb2cf9a3d3d83e5515c82071a07177 -->
<g id="edge17" class="edge">
<title>dir_e4cb5181a3c884468a78a261ced84e7b&#45;&gt;dir_bcbb2cf9a3d3d83e5515c82071a07177</title>
<path fill="none" stroke="#000000" d="M289.7326,-295.6323C299.1835,-292.9754 309.448,-290.2389 319,-288 403.1042,-268.287 437.2491,-298.5771 510,-252 533.5577,-236.9177 551.0506,-209.7955 561.7402,-189.2549"/>
<polygon fill="#000000" stroke="#000000" points="564.9909,-190.5782 566.3041,-180.065 558.7214,-187.4646 564.9909,-190.5782"/>
<g id="a_edge17&#45;headlabel"><a xlink:href="dir_000203_000013.html" target="_top" xlink:title="1">
<text text-anchor="middle" x="565.935" y="-192.5605" font-family="Helvetica,sans-Serif" font-size="10.00" fill="#000000">1</text>
</a>
</g>
</g>
<!-- dir_e4cb5181a3c884468a78a261ced84e7b&#45;&gt;dir_2171f7ec022c5423887b07c69b2f5b48 -->
<g id="edge18" class="edge">
<title>dir_e4cb5181a3c884468a78a261ced84e7b&#45;&gt;dir_2171f7ec022c5423887b07c69b2f5b48</title>
<path fill="none" stroke="#000000" d="M234.5974,-287.5625C225.5059,-277.9675 215.7838,-265.4441 211,-252 205.6362,-236.9258 205.57,-231.0504 211,-216 228.2457,-168.1993 239.0172,-151.6404 284,-128 325.6341,-106.1195 444.4475,-117.4696 505.8259,-107.6217"/>
<polygon fill="#000000" stroke="#000000" points="506.7165,-111.0146 515.8757,-105.6891 505.3946,-104.1405 506.7165,-111.0146"/>
<g id="a_edge18&#45;headlabel"><a xlink:href="dir_000203_000076.html" target="_top" xlink:title="10">
<text text-anchor="middle" x="503.7227" y="-111.9815" font-family="Helvetica,sans-Serif" font-size="10.00" fill="#000000">10</text>
</a>
</g>
</g>
<!-- dir_09445408fa345a18838fb91740d089d0 -->
<g id="node8" class="node">
<title>dir_09445408fa345a18838fb91740d089d0</title>
<g id="a_node8"><a xlink:href="dir_09445408fa345a18838fb91740d089d0.html" target="_top" xlink:title="Tracking">
<polygon fill="#ffffff" stroke="#ff0000" points="101.5,-324 44.5,-324 44.5,-288 101.5,-288 101.5,-324"/>
<text text-anchor="middle" x="73" y="-303.5" font-family="Helvetica,sans-Serif" font-size="10.00" fill="#000000">Tracking</text>
</a>
</g>
</g>
<!-- dir_09445408fa345a18838fb91740d089d0&#45;&gt;dir_1155c84989a046e7de4bf0156dc4b34c -->
<g id="edge9" class="edge">
<title>dir_09445408fa345a18838fb91740d089d0&#45;&gt;dir_1155c84989a046e7de4bf0156dc4b34c</title>
<path fill="none" stroke="#000000" d="M101.5436,-292.2378C104.7209,-290.778 107.9206,-289.339 111,-288 144.302,-273.5191 182.8169,-258.3733 210.3399,-247.8202"/>
<polygon fill="#000000" stroke="#000000" points="211.859,-250.9867 219.9526,-244.1497 209.362,-244.4472 211.859,-250.9867"/>
<g id="a_edge9&#45;headlabel"><a xlink:href="dir_000116_000133.html" target="_top" xlink:title="11">
<text text-anchor="middle" x="209.5137" y="-252.4213" font-family="Helvetica,sans-Serif" font-size="10.00" fill="#000000">11</text>
</a>
</g>
</g>
<!-- dir_09445408fa345a18838fb91740d089d0&#45;&gt;dir_4ab6b4cc6a7edbff49100e9123df213f -->
<g id="edge8" class="edge">
<title>dir_09445408fa345a18838fb91740d089d0&#45;&gt;dir_4ab6b4cc6a7edbff49100e9123df213f</title>
<path fill="none" stroke="#000000" d="M101.6755,-291.2669C104.7714,-290.0246 107.9171,-288.9014 111,-288 232.6963,-252.4184 271.5186,-284.7775 394,-252 394.8893,-251.762 395.7844,-251.5096 396.6832,-251.2446"/>
<polygon fill="#000000" stroke="#000000" points="397.9798,-254.5014 406.3462,-248.0012 395.7523,-247.8652 397.9798,-254.5014"/>
<g id="a_edge8&#45;headlabel"><a xlink:href="dir_000116_000027.html" target="_top" xlink:title="6">
<text text-anchor="middle" x="395.4755" y="-255.8369" font-family="Helvetica,sans-Serif" font-size="10.00" fill="#000000">6</text>
</a>
</g>
</g>
<!-- dir_09445408fa345a18838fb91740d089d0&#45;&gt;dir_37c90836491b695b472bf98d1be8336b -->
<g id="edge10" class="edge">
<title>dir_09445408fa345a18838fb91740d089d0&#45;&gt;dir_37c90836491b695b472bf98d1be8336b</title>
<path fill="none" stroke="#000000" d="M75.8476,-287.7329C79.3835,-268.7894 86.6495,-238.8068 100,-216 144.9372,-139.2332 161.6239,-115.8798 239,-72 301.3718,-36.6291 385.6798,-24.3999 433.5981,-20.1906"/>
<polygon fill="#000000" stroke="#000000" points="434.1342,-23.6588 443.8207,-19.3666 433.5718,-16.6814 434.1342,-23.6588"/>
<g id="a_edge10&#45;headlabel"><a xlink:href="dir_000116_000274.html" target="_top" xlink:title="1">
<text text-anchor="middle" x="430.7793" y="-24.2776" font-family="Helvetica,sans-Serif" font-size="10.00" fill="#000000">1</text>
</a>
</g>
</g>
<!-- dir_09445408fa345a18838fb91740d089d0&#45;&gt;dir_bcbb2cf9a3d3d83e5515c82071a07177 -->
<g id="edge11" class="edge">
<title>dir_09445408fa345a18838fb91740d089d0&#45;&gt;dir_bcbb2cf9a3d3d83e5515c82071a07177</title>
<path fill="none" stroke="#000000" d="M101.65,-291.1772C104.7508,-289.9525 107.9047,-288.8578 111,-288 268.0887,-244.4664 329.6566,-323.8029 476,-252 495.7578,-242.3059 494.0087,-231.1203 510,-216 520.5222,-206.051 532.5455,-195.6688 543.3087,-186.6967"/>
<polygon fill="#000000" stroke="#000000" points="545.7655,-189.2071 551.2481,-180.1412 541.3085,-183.8094 545.7655,-189.2071"/>
<g id="a_edge11&#45;headlabel"><a xlink:href="dir_000116_000013.html" target="_top" xlink:title="64">
<text text-anchor="middle" x="544.8014" y="-191.1852" font-family="Helvetica,sans-Serif" font-size="10.00" fill="#000000">64</text>
</a>
</g>
</g>
<!-- dir_09445408fa345a18838fb91740d089d0&#45;&gt;dir_2171f7ec022c5423887b07c69b2f5b48 -->
<g id="edge12" class="edge">
<title>dir_09445408fa345a18838fb91740d089d0&#45;&gt;dir_2171f7ec022c5423887b07c69b2f5b48</title>
<path fill="none" stroke="#000000" d="M81.9217,-287.7443C101.4632,-250.0411 152.0359,-164.0859 223,-128 276.8615,-100.6109 430.4677,-119.3925 505.7982,-107.6241"/>
<polygon fill="#000000" stroke="#000000" points="506.6954,-111.0175 515.8896,-105.7528 505.4191,-104.1348 506.6954,-111.0175"/>
<g id="a_edge12&#45;headlabel"><a xlink:href="dir_000116_000076.html" target="_top" xlink:title="1">
<text text-anchor="middle" x="503.6787" y="-111.9645" font-family="Helvetica,sans-Serif" font-size="10.00" fill="#000000">1</text>
</a>
</g>
</g>
<!-- dir_04ece05d7c7fe751e39bd0511b9068fc -->
<g id="node9" class="node">
<title>dir_04ece05d7c7fe751e39bd0511b9068fc</title>
<g id="a_node9"><a xlink:href="dir_04ece05d7c7fe751e39bd0511b9068fc.html" target="_top" xlink:title="Workflow">
<polygon fill="#ffffff" stroke="#ff0000" points="310,-396 248,-396 248,-360 310,-360 310,-396"/>
<text text-anchor="middle" x="279" y="-375.5" font-family="Helvetica,sans-Serif" font-size="10.00" fill="#000000">Workflow</text>
</a>
</g>
</g>
<!-- dir_04ece05d7c7fe751e39bd0511b9068fc&#45;&gt;dir_1155c84989a046e7de4bf0156dc4b34c -->
<g id="edge23" class="edge">
<title>dir_04ece05d7c7fe751e39bd0511b9068fc&#45;&gt;dir_1155c84989a046e7de4bf0156dc4b34c</title>
<path fill="none" stroke="#000000" d="M247.6332,-375.8066C187.8864,-370.9065 61.3477,-356.8163 35,-324 -14.151,-262.782 136.7992,-242.5269 209.8209,-236.4111"/>
<polygon fill="#000000" stroke="#000000" points="210.3024,-239.8841 219.996,-235.6082 209.7517,-232.9058 210.3024,-239.8841"/>
<g id="a_edge23&#45;headlabel"><a xlink:href="dir_000556_000133.html" target="_top" xlink:title="8">
<text text-anchor="middle" x="206.9422" y="-240.4972" font-family="Helvetica,sans-Serif" font-size="10.00" fill="#000000">8</text>
</a>
</g>
</g>
<!-- dir_04ece05d7c7fe751e39bd0511b9068fc&#45;&gt;dir_b098e3604916eca5f90f2bb1c75b7880 -->
<g id="edge28" class="edge">
<title>dir_04ece05d7c7fe751e39bd0511b9068fc&#45;&gt;dir_b098e3604916eca5f90f2bb1c75b7880</title>
<path fill="none" stroke="#000000" d="M285.9129,-359.6384C289.7086,-349.2528 294.3681,-335.9841 298,-324 304.256,-303.3571 310.2532,-279.7175 314.5543,-261.8474"/>
<polygon fill="#000000" stroke="#000000" points="317.9736,-262.5969 316.8799,-252.0586 311.1632,-260.9788 317.9736,-262.5969"/>
<g id="a_edge28&#45;headlabel"><a xlink:href="dir_000556_000515.html" target="_top" xlink:title="4">
<text text-anchor="middle" x="319.9052" y="-264.2504" font-family="Helvetica,sans-Serif" font-size="10.00" fill="#000000">4</text>
</a>
</g>
</g>
<!-- dir_04ece05d7c7fe751e39bd0511b9068fc&#45;&gt;dir_6229e1f1a243f5ed3f0013dfa4f13deb -->
<g id="edge22" class="edge">
<title>dir_04ece05d7c7fe751e39bd0511b9068fc&#45;&gt;dir_6229e1f1a243f5ed3f0013dfa4f13deb</title>
<path fill="none" stroke="#000000" d="M249.2236,-359.8314C234.1307,-350.6221 215.6243,-339.3301 199.4657,-329.4706"/>
<polygon fill="#000000" stroke="#000000" points="201.1263,-326.3838 190.7669,-324.1628 197.4802,-332.3593 201.1263,-326.3838"/>
<g id="a_edge22&#45;headlabel"><a xlink:href="dir_000556_000535.html" target="_top" xlink:title="1">
<text text-anchor="middle" x="205.6737" y="-323.3323" font-family="Helvetica,sans-Serif" font-size="10.00" fill="#000000">1</text>
</a>
</g>
</g>
<!-- dir_04ece05d7c7fe751e39bd0511b9068fc&#45;&gt;dir_f8de85f281636d081fd2e7e06b0134d2 -->
<g id="edge25" class="edge">
<title>dir_04ece05d7c7fe751e39bd0511b9068fc&#45;&gt;dir_f8de85f281636d081fd2e7e06b0134d2</title>
<path fill="none" stroke="#000000" d="M298.178,-359.8314C307.3588,-351.1337 318.5006,-340.5783 328.4776,-331.1265"/>
<polygon fill="#000000" stroke="#000000" points="330.9757,-333.5811 335.8281,-324.1628 326.1615,-328.4995 330.9757,-333.5811"/>
<g id="a_edge25&#45;headlabel"><a xlink:href="dir_000556_000419.html" target="_top" xlink:title="6">
<text text-anchor="middle" x="330.3189" y="-335.6145" font-family="Helvetica,sans-Serif" font-size="10.00" fill="#000000">6</text>
</a>
</g>
</g>
<!-- dir_04ece05d7c7fe751e39bd0511b9068fc&#45;&gt;dir_bcbb2cf9a3d3d83e5515c82071a07177 -->
<g id="edge24" class="edge">
<title>dir_04ece05d7c7fe751e39bd0511b9068fc&#45;&gt;dir_bcbb2cf9a3d3d83e5515c82071a07177</title>
<path fill="none" stroke="#000000" d="M310.213,-363.266C313.1543,-362.0869 316.1146,-360.9762 319,-360 446.9177,-316.7206 534.441,-368.3431 603,-252 614.6029,-232.3101 605.0094,-207.4189 593.8422,-188.8068"/>
<polygon fill="#000000" stroke="#000000" points="596.6743,-186.74 588.3197,-180.2246 590.7877,-190.528 596.6743,-186.74"/>
<g id="a_edge24&#45;headlabel"><a xlink:href="dir_000556_000013.html" target="_top" xlink:title="81">
<text text-anchor="middle" x="601.0071" y="-185.7264" font-family="Helvetica,sans-Serif" font-size="10.00" fill="#000000">81</text>
</a>
</g>
</g>
<!-- dir_04ece05d7c7fe751e39bd0511b9068fc&#45;&gt;dir_26637d1bd82229bc9ed97f7e706be743 -->
<g id="edge26" class="edge">
<title>dir_04ece05d7c7fe751e39bd0511b9068fc&#45;&gt;dir_26637d1bd82229bc9ed97f7e706be743</title>
<path fill="none" stroke="#000000" d="M310.2157,-363.7751C336.2006,-351.9339 373.2335,-335.0581 400.57,-322.601"/>
<polygon fill="#000000" stroke="#000000" points="402.1526,-325.7262 409.8009,-318.3945 399.2498,-319.3564 402.1526,-325.7262"/>
<g id="a_edge26&#45;headlabel"><a xlink:href="dir_000556_000572.html" target="_top" xlink:title="3">
<text text-anchor="middle" x="400.0589" y="-327.3004" font-family="Helvetica,sans-Serif" font-size="10.00" fill="#000000">3</text>
</a>
</g>
</g>
<!-- dir_04ece05d7c7fe751e39bd0511b9068fc&#45;&gt;dir_2171f7ec022c5423887b07c69b2f5b48 -->
<g id="edge27" class="edge">
<title>dir_04ece05d7c7fe751e39bd0511b9068fc&#45;&gt;dir_2171f7ec022c5423887b07c69b2f5b48</title>
<path fill="none" stroke="#000000" d="M310.1311,-363.0062C313.0896,-361.8816 316.0763,-360.8546 319,-360 482.1984,-312.2977 600.6678,-399.0634 686,-252 713.6597,-204.3306 720.1001,-172.0661 687,-128 677.0433,-114.7447 638.7908,-104.6217 606.1728,-98.1699"/>
<polygon fill="#000000" stroke="#000000" points="606.7464,-94.7163 596.2685,-96.286 605.4383,-101.593 606.7464,-94.7163"/>
<g id="a_edge27&#45;headlabel"><a xlink:href="dir_000556_000076.html" target="_top" xlink:title="3">
<text text-anchor="middle" x="610.8082" y="-90.0986" font-family="Helvetica,sans-Serif" font-size="10.00" fill="#000000">3</text>
</a>
</g>
</g>
<!-- dir_4ab6b4cc6a7edbff49100e9123df213f&#45;&gt;dir_bcbb2cf9a3d3d83e5515c82071a07177 -->
<g id="edge3" class="edge">
<title>dir_4ab6b4cc6a7edbff49100e9123df213f&#45;&gt;dir_bcbb2cf9a3d3d83e5515c82071a07177</title>
<path fill="none" stroke="#000000" d="M465.6185,-215.8314C484.0932,-205.5979 508.3968,-192.7926 529.3511,-182.239"/>
<polygon fill="#000000" stroke="#000000" points="531.0217,-185.3169 538.4039,-177.7173 527.8938,-179.0546 531.0217,-185.3169"/>
<g id="a_edge3&#45;headlabel"><a xlink:href="dir_000027_000013.html" target="_top" xlink:title="2">
<text text-anchor="middle" x="529.0746" y="-186.9631" font-family="Helvetica,sans-Serif" font-size="10.00" fill="#000000">2</text>
</a>
</g>
</g>
<!-- dir_4ab6b4cc6a7edbff49100e9123df213f&#45;&gt;dir_2171f7ec022c5423887b07c69b2f5b48 -->
<g id="edge4" class="edge">
<title>dir_4ab6b4cc6a7edbff49100e9123df213f&#45;&gt;dir_2171f7ec022c5423887b07c69b2f5b48</title>
<path fill="none" stroke="#000000" d="M447.3983,-215.7623C465.7857,-190.4436 503.5242,-144.5182 529.4266,-115.7251"/>
<polygon fill="#000000" stroke="#000000" points="532.2384,-117.8361 536.3927,-108.0896 527.0672,-113.1182 532.2384,-117.8361"/>
<g id="a_edge4&#45;headlabel"><a xlink:href="dir_000027_000076.html" target="_top" xlink:title="2">
<text text-anchor="middle" x="531.9133" y="-119.9052" font-family="Helvetica,sans-Serif" font-size="10.00" fill="#000000">2</text>
</a>
</g>
</g>
<!-- dir_37c90836491b695b472bf98d1be8336b&#45;&gt;dir_4ab6b4cc6a7edbff49100e9123df213f -->
<g id="edge5" class="edge">
<title>dir_37c90836491b695b472bf98d1be8336b&#45;&gt;dir_4ab6b4cc6a7edbff49100e9123df213f</title>
<path fill="none" stroke="#000000" d="M455.0095,-36.0831C447.3462,-45.9629 438.9834,-58.8437 435,-72 421.3792,-116.9863 426.3932,-172.2709 431.5174,-205.2398"/>
<polygon fill="#000000" stroke="#000000" points="428.1342,-206.2305 433.2326,-215.518 435.0387,-205.0783 428.1342,-206.2305"/>
<g id="a_edge5&#45;headlabel"><a xlink:href="dir_000274_000027.html" target="_top" xlink:title="16">
<text text-anchor="middle" x="424.7421" y="-200.6523" font-family="Helvetica,sans-Serif" font-size="10.00" fill="#000000">16</text>
</a>
</g>
</g>
<!-- dir_37c90836491b695b472bf98d1be8336b&#45;&gt;dir_bcbb2cf9a3d3d83e5515c82071a07177 -->
<g id="edge6" class="edge">
<title>dir_37c90836491b695b472bf98d1be8336b&#45;&gt;dir_bcbb2cf9a3d3d83e5515c82071a07177</title>
<path fill="none" stroke="#000000" d="M498.1291,-20.2235C529.8783,-24.4439 581.1407,-36.6612 605,-72 618.0123,-91.273 607.3536,-116.5506 595.1147,-135.4087"/>
<polygon fill="#000000" stroke="#000000" points="592.0928,-133.6245 589.2688,-143.836 597.8444,-137.6144 592.0928,-133.6245"/>
<g id="a_edge6&#45;headlabel"><a xlink:href="dir_000274_000013.html" target="_top" xlink:title="1">
<text text-anchor="middle" x="591.8087" y="-126.5526" font-family="Helvetica,sans-Serif" font-size="10.00" fill="#000000">1</text>
</a>
</g>
</g>
<!-- dir_37c90836491b695b472bf98d1be8336b&#45;&gt;dir_2171f7ec022c5423887b07c69b2f5b48 -->
<g id="edge7" class="edge">
<title>dir_37c90836491b695b472bf98d1be8336b&#45;&gt;dir_2171f7ec022c5423887b07c69b2f5b48</title>
<path fill="none" stroke="#000000" d="M498.0751,-35.9134C509.3547,-44.726 522.2412,-55.4921 533.0514,-65.0919"/>
<polygon fill="#000000" stroke="#000000" points="530.7389,-67.7196 540.5033,-71.8314 535.4342,-62.5278 530.7389,-67.7196"/>
<g id="a_edge7&#45;headlabel"><a xlink:href="dir_000274_000076.html" target="_top" xlink:title="12">
<text text-anchor="middle" x="526.1684" y="-64.9143" font-family="Helvetica,sans-Serif" font-size="10.00" fill="#000000">12</text>
</a>
</g>
</g>
<!-- dir_f01815b857f9009bea48e2cb39492245&#45;&gt;dir_4ab6b4cc6a7edbff49100e9123df213f -->
<g id="edge20" class="edge">
<title>dir_f01815b857f9009bea48e2cb39492245&#45;&gt;dir_4ab6b4cc6a7edbff49100e9123df213f</title>
<path fill="none" stroke="#000000" d="M466.7288,-108.0896C460.9227,-132.6805 450.4808,-176.905 443.6458,-205.8531"/>
<polygon fill="#000000" stroke="#000000" points="440.1978,-205.2256 441.3061,-215.7623 447.0105,-206.8342 440.1978,-205.2256"/>
<g id="a_edge20&#45;headlabel"><a xlink:href="dir_000582_000027.html" target="_top" xlink:title="5">
<text text-anchor="middle" x="438.2604" y="-198.5748" font-family="Helvetica,sans-Serif" font-size="10.00" fill="#000000">5</text>
</a>
</g>
</g>
<!-- dir_f01815b857f9009bea48e2cb39492245&#45;&gt;dir_37c90836491b695b472bf98d1be8336b -->
<g id="edge21" class="edge">
<title>dir_f01815b857f9009bea48e2cb39492245&#45;&gt;dir_37c90836491b695b472bf98d1be8336b</title>
<path fill="none" stroke="#000000" d="M471,-71.8314C471,-64.131 471,-54.9743 471,-46.4166"/>
<polygon fill="#000000" stroke="#000000" points="474.5001,-46.4132 471,-36.4133 467.5001,-46.4133 474.5001,-46.4132"/>
<g id="a_edge21&#45;headlabel"><a xlink:href="dir_000582_000274.html" target="_top" xlink:title="19">
<text text-anchor="middle" x="477.3393" y="-47.5079" font-family="Helvetica,sans-Serif" font-size="10.00" fill="#000000">19</text>
</a>
</g>
</g>
<!-- dir_bcbb2cf9a3d3d83e5515c82071a07177&#45;&gt;dir_4ab6b4cc6a7edbff49100e9123df213f -->
<g id="edge29" class="edge">
<title>dir_bcbb2cf9a3d3d83e5515c82071a07177&#45;&gt;dir_4ab6b4cc6a7edbff49100e9123df213f</title>
<path fill="none" stroke="#000000" d="M545.3448,-180.189C525.4643,-191.2002 498.8469,-205.1833 476.9148,-216.1354"/>
<polygon fill="#000000" stroke="#000000" points="475.2473,-213.0554 467.8354,-220.6261 478.3507,-219.3299 475.2473,-213.0554"/>
<g id="a_edge29&#45;headlabel"><a xlink:href="dir_000013_000027.html" target="_top" xlink:title="8">
<text text-anchor="middle" x="477.2106" y="-206.4168" font-family="Helvetica,sans-Serif" font-size="10.00" fill="#000000">8</text>
</a>
</g>
</g>
<!-- dir_bcbb2cf9a3d3d83e5515c82071a07177&#45;&gt;dir_f01815b857f9009bea48e2cb39492245 -->
<g id="edge30" class="edge">
<title>dir_bcbb2cf9a3d3d83e5515c82071a07177&#45;&gt;dir_f01815b857f9009bea48e2cb39492245</title>
<path fill="none" stroke="#000000" d="M548.0088,-143.8314C535.0784,-134.7927 519.2778,-123.7476 505.3617,-114.0198"/>
<polygon fill="#000000" stroke="#000000" points="507.1843,-111.0235 496.9829,-108.1628 503.1737,-116.7608 507.1843,-111.0235"/>
<g id="a_edge30&#45;headlabel"><a xlink:href="dir_000013_000582.html" target="_top" xlink:title="2">
<text text-anchor="middle" x="511.7571" y="-108.2559" font-family="Helvetica,sans-Serif" font-size="10.00" fill="#000000">2</text>
</a>
</g>
</g>
<!-- dir_bcbb2cf9a3d3d83e5515c82071a07177&#45;&gt;dir_2171f7ec022c5423887b07c69b2f5b48 -->
<g id="edge31" class="edge">
<title>dir_bcbb2cf9a3d3d83e5515c82071a07177&#45;&gt;dir_2171f7ec022c5423887b07c69b2f5b48</title>
<path fill="none" stroke="#000000" d="M563.5054,-143.8314C560.8299,-136.131 558.3199,-126.9743 556.4891,-118.4166"/>
<polygon fill="#000000" stroke="#000000" points="559.898,-117.604 554.6273,-108.4133 553.0162,-118.8849 559.898,-117.604"/>
<g id="a_edge31&#45;headlabel"><a xlink:href="dir_000013_000076.html" target="_top" xlink:title="82">
<text text-anchor="middle" x="563.347" y="-118.1185" font-family="Helvetica,sans-Serif" font-size="10.00" fill="#000000">82</text>
</a>
</g>
</g>
<!-- dir_26637d1bd82229bc9ed97f7e706be743&#45;&gt;dir_4ab6b4cc6a7edbff49100e9123df213f -->
<g id="edge32" class="edge">
<title>dir_26637d1bd82229bc9ed97f7e706be743&#45;&gt;dir_4ab6b4cc6a7edbff49100e9123df213f</title>
<path fill="none" stroke="#000000" d="M437,-287.8314C437,-280.131 437,-270.9743 437,-262.4166"/>
<polygon fill="#000000" stroke="#000000" points="440.5001,-262.4132 437,-252.4133 433.5001,-262.4133 440.5001,-262.4132"/>
<g id="a_edge32&#45;headlabel"><a xlink:href="dir_000572_000027.html" target="_top" xlink:title="10">
<text text-anchor="middle" x="443.3393" y="-263.5079" font-family="Helvetica,sans-Serif" font-size="10.00" fill="#000000">10</text>
</a>
</g>
</g>
<!-- dir_26637d1bd82229bc9ed97f7e706be743&#45;&gt;dir_bcbb2cf9a3d3d83e5515c82071a07177 -->
<g id="edge33" class="edge">
<title>dir_26637d1bd82229bc9ed97f7e706be743&#45;&gt;dir_bcbb2cf9a3d3d83e5515c82071a07177</title>
<path fill="none" stroke="#000000" d="M464.1917,-300.0608C503.1391,-290.9401 571.7036,-272.3876 586,-252 598.6393,-233.9755 593.9171,-208.8324 587.0143,-189.7018"/>
<polygon fill="#000000" stroke="#000000" points="590.2304,-188.3171 583.2862,-180.3153 583.7247,-190.901 590.2304,-188.3171"/>
<g id="a_edge33&#45;headlabel"><a xlink:href="dir_000572_000013.html" target="_top" xlink:title="25">
<text text-anchor="middle" x="594.1959" y="-188.1099" font-family="Helvetica,sans-Serif" font-size="10.00" fill="#000000">25</text>
</a>
</g>
</g>
<!-- dir_26637d1bd82229bc9ed97f7e706be743&#45;&gt;dir_2171f7ec022c5423887b07c69b2f5b48 -->
<g id="edge34" class="edge">
<title>dir_26637d1bd82229bc9ed97f7e706be743&#45;&gt;dir_2171f7ec022c5423887b07c69b2f5b48</title>
<path fill="none" stroke="#000000" d="M464.2686,-303.5863C518.6839,-298.1455 637.6262,-282.9157 662,-252 696.1206,-208.7216 693.7198,-173.0676 662,-128 655.028,-118.0941 629.9662,-108.8739 605.9624,-101.9969"/>
<polygon fill="#000000" stroke="#000000" points="606.7218,-98.5758 596.1512,-99.2922 604.8614,-105.324 606.7218,-98.5758"/>
<g id="a_edge34&#45;headlabel"><a xlink:href="dir_000572_000076.html" target="_top" xlink:title="15">
<text text-anchor="middle" x="610.9417" y="-94.2938" font-family="Helvetica,sans-Serif" font-size="10.00" fill="#000000">15</text>
</a>
</g>
</g>
<!-- dir_2171f7ec022c5423887b07c69b2f5b48&#45;&gt;dir_4ab6b4cc6a7edbff49100e9123df213f -->
<g id="edge41" class="edge">
<title>dir_2171f7ec022c5423887b07c69b2f5b48&#45;&gt;dir_4ab6b4cc6a7edbff49100e9123df213f</title>
<path fill="none" stroke="#000000" d="M545.7092,-108.0896C527.3975,-133.3276 489.6738,-179.2462 463.7253,-208.1061"/>
<polygon fill="#000000" stroke="#000000" points="460.8958,-206.0146 456.7446,-215.7623 466.0685,-210.7308 460.8958,-206.0146"/>
<g id="a_edge41&#45;headlabel"><a xlink:href="dir_000076_000027.html" target="_top" xlink:title="35">
<text text-anchor="middle" x="461.2195" y="-198.9454" font-family="Helvetica,sans-Serif" font-size="10.00" fill="#000000">35</text>
</a>
</g>
</g>
<!-- dir_2171f7ec022c5423887b07c69b2f5b48&#45;&gt;dir_37c90836491b695b472bf98d1be8336b -->
<g id="edge42" class="edge">
<title>dir_2171f7ec022c5423887b07c69b2f5b48&#45;&gt;dir_37c90836491b695b472bf98d1be8336b</title>
<path fill="none" stroke="#000000" d="M528.5985,-71.8314C517.4829,-63.1337 504.8496,-52.5783 494.1947,-43.1265"/>
<polygon fill="#000000" stroke="#000000" points="496.256,-40.2718 486.4904,-36.1628 491.5621,-45.4649 496.256,-40.2718"/>
<g id="a_edge42&#45;headlabel"><a xlink:href="dir_000076_000274.html" target="_top" xlink:title="1">
<text text-anchor="middle" x="500.8266" y="-38.0758" font-family="Helvetica,sans-Serif" font-size="10.00" fill="#000000">1</text>
</a>
</g>
</g>
<!-- dir_2171f7ec022c5423887b07c69b2f5b48&#45;&gt;dir_bcbb2cf9a3d3d83e5515c82071a07177 -->
<g id="edge43" class="edge">
<title>dir_2171f7ec022c5423887b07c69b2f5b48&#45;&gt;dir_bcbb2cf9a3d3d83e5515c82071a07177</title>
<path fill="none" stroke="#000000" d="M566.5793,-108.4133C569.2513,-116.1442 571.7524,-125.3097 573.5687,-133.8545"/>
<polygon fill="#000000" stroke="#000000" points="570.1532,-134.6328 575.4102,-143.8314 577.0369,-133.3622 570.1532,-134.6328"/>
<g id="a_edge43&#45;headlabel"><a xlink:href="dir_000076_000013.html" target="_top" xlink:title="10">
<text text-anchor="middle" x="566.7087" y="-129.1132" font-family="Helvetica,sans-Serif" font-size="10.00" fill="#000000">10</text>
</a>
</g>
</g>
</g>
</svg>
