<?xml version="1.0" encoding="UTF-8" standalone="no"?>
<!DOCTYPE svg PUBLIC "-//W3C//DTD SVG 1.1//EN"
 "http://www.w3.org/Graphics/SVG/1.1/DTD/svg11.dtd">
<!-- Generated by graphviz version 2.40.1 (20161225.0304)
 -->
<!-- Title: /home/travis/build/AliceO2Group/AliceO2/Analysis Pages: 1 -->
<svg width="302pt" height="348pt"
 viewBox="0.00 0.00 302.07 348.00" xmlns="http://www.w3.org/2000/svg" xmlns:xlink="http://www.w3.org/1999/xlink">
<g id="graph0" class="graph" transform="scale(1 1) rotate(0) translate(4 344)">
<title>/home/travis/build/AliceO2Group/AliceO2/Analysis</title>
<g id="clust1" class="cluster">
<title>clusterdir_19b17cb436010079e3d017a29cb7858f</title>
<g id="a_clust1"><a xlink:href="dir_19b17cb436010079e3d017a29cb7858f.html" target="_top">
<polygon fill="#eeeeff" stroke="#000000" points="8,-208 8,-332 230,-332 230,-208 8,-208"/>
</a>
</g>
</g>
<!-- dir_19b17cb436010079e3d017a29cb7858f -->
<g id="node1" class="node">
<title>dir_19b17cb436010079e3d017a29cb7858f</title>
<text text-anchor="middle" x="193" y="-303.5" font-family="Helvetica,sans-Serif" font-size="10.00" fill="#000000">Analysis</text>
</g>
<!-- dir_8d04f135a1eb0fdc4d561ef87bbea216 -->
<g id="node2" class="node">
<title>dir_8d04f135a1eb0fdc4d561ef87bbea216</title>
<g id="a_node2"><a xlink:href="dir_8d04f135a1eb0fdc4d561ef87bbea216.html" target="_top" xlink:title="Core">
<polygon fill="#ffffff" stroke="#ff0000" points="158,-252 104,-252 104,-216 158,-216 158,-252"/>
<text text-anchor="middle" x="131" y="-231.5" font-family="Helvetica,sans-Serif" font-size="10.00" fill="#000000">Core</text>
</a>
</g>
</g>
<!-- dir_bcbb2cf9a3d3d83e5515c82071a07177 -->
<g id="node8" class="node">
<title>dir_bcbb2cf9a3d3d83e5515c82071a07177</title>
<g id="a_node8"><a xlink:href="dir_bcbb2cf9a3d3d83e5515c82071a07177.html" target="_top" xlink:title="Framework">
<polygon fill="none" stroke="#ff0000" points="206.5,-180 135.5,-180 135.5,-144 206.5,-144 206.5,-180"/>
<text text-anchor="middle" x="171" y="-159.5" font-family="Helvetica,sans-Serif" font-size="10.00" fill="#000000">Framework</text>
</a>
</g>
</g>
<!-- dir_8d04f135a1eb0fdc4d561ef87bbea216&#45;&gt;dir_bcbb2cf9a3d3d83e5515c82071a07177 -->
<g id="edge15" class="edge">
<title>dir_8d04f135a1eb0fdc4d561ef87bbea216&#45;&gt;dir_bcbb2cf9a3d3d83e5515c82071a07177</title>
<path fill="none" stroke="#000000" d="M141.0937,-215.8314C145.5597,-207.7925 150.9075,-198.1666 155.8379,-189.2918"/>
<polygon fill="#000000" stroke="#000000" points="158.9735,-190.8546 160.7704,-180.4133 152.8544,-187.4551 158.9735,-190.8546"/>
<g id="a_edge15&#45;headlabel"><a xlink:href="dir_000005_000013.html" target="_top" xlink:title="4">
<text text-anchor="middle" x="159.7098" y="-192.8757" font-family="Helvetica,sans-Serif" font-size="10.00" fill="#000000">4</text>
</a>
</g>
</g>
<!-- dir_f41dd59f861c855ea21b0dc3111cb7b0 -->
<g id="node3" class="node">
<title>dir_f41dd59f861c855ea21b0dc3111cb7b0</title>
<g id="a_node3"><a xlink:href="dir_f41dd59f861c855ea21b0dc3111cb7b0.html" target="_top" xlink:title="DataModel">
<polygon fill="#ffffff" stroke="#ff0000" points="85.5,-252 16.5,-252 16.5,-216 85.5,-216 85.5,-252"/>
<text text-anchor="middle" x="51" y="-231.5" font-family="Helvetica,sans-Serif" font-size="10.00" fill="#000000">DataModel</text>
</a>
</g>
</g>
<!-- dir_f41dd59f861c855ea21b0dc3111cb7b0&#45;&gt;dir_bcbb2cf9a3d3d83e5515c82071a07177 -->
<g id="edge8" class="edge">
<title>dir_f41dd59f861c855ea21b0dc3111cb7b0&#45;&gt;dir_bcbb2cf9a3d3d83e5515c82071a07177</title>
<path fill="none" stroke="#000000" d="M81.2811,-215.8314C96.6298,-206.6221 115.4498,-195.3301 131.8823,-185.4706"/>
<polygon fill="#000000" stroke="#000000" points="133.9544,-188.3091 140.7286,-180.1628 130.3529,-182.3066 133.9544,-188.3091"/>
<g id="a_edge8&#45;headlabel"><a xlink:href="dir_000009_000013.html" target="_top" xlink:title="7">
<text text-anchor="middle" x="132.3329" y="-190.0931" font-family="Helvetica,sans-Serif" font-size="10.00" fill="#000000">7</text>
</a>
</g>
</g>
<!-- dir_eff7324435ca3301414fec6c28c4adf5 -->
<g id="node4" class="node">
<title>dir_eff7324435ca3301414fec6c28c4adf5</title>
<g id="a_node4"><a xlink:href="dir_eff7324435ca3301414fec6c28c4adf5.html" target="_top" xlink:title="Tasks">
<polygon fill="#ffffff" stroke="#000000" points="146,-324 92,-324 92,-288 146,-288 146,-324"/>
<text text-anchor="middle" x="119" y="-303.5" font-family="Helvetica,sans-Serif" font-size="10.00" fill="#000000">Tasks</text>
</a>
</g>
</g>
<!-- dir_eff7324435ca3301414fec6c28c4adf5&#45;&gt;dir_8d04f135a1eb0fdc4d561ef87bbea216 -->
<g id="edge12" class="edge">
<title>dir_eff7324435ca3301414fec6c28c4adf5&#45;&gt;dir_8d04f135a1eb0fdc4d561ef87bbea216</title>
<path fill="none" stroke="#000000" d="M122.0281,-287.8314C123.3115,-280.131 124.8376,-270.9743 126.2639,-262.4166"/>
<polygon fill="#000000" stroke="#000000" points="129.7394,-262.8526 127.9311,-252.4133 122.8347,-261.7018 129.7394,-262.8526"/>
<g id="a_edge12&#45;headlabel"><a xlink:href="dir_000016_000005.html" target="_top" xlink:title="8">
<text text-anchor="middle" x="131.9492" y="-264.3651" font-family="Helvetica,sans-Serif" font-size="10.00" fill="#000000">8</text>
</a>
</g>
</g>
<!-- dir_eff7324435ca3301414fec6c28c4adf5&#45;&gt;dir_f41dd59f861c855ea21b0dc3111cb7b0 -->
<g id="edge11" class="edge">
<title>dir_eff7324435ca3301414fec6c28c4adf5&#45;&gt;dir_f41dd59f861c855ea21b0dc3111cb7b0</title>
<path fill="none" stroke="#000000" d="M101.8407,-287.8314C93.8489,-279.3694 84.1962,-269.1489 75.4584,-259.8971"/>
<polygon fill="#000000" stroke="#000000" points="77.8011,-257.2802 68.3903,-252.4133 72.712,-262.0866 77.8011,-257.2802"/>
<g id="a_edge11&#45;headlabel"><a xlink:href="dir_000016_000009.html" target="_top" xlink:title="23">
<text text-anchor="middle" x="82.3334" y="-255.444" font-family="Helvetica,sans-Serif" font-size="10.00" fill="#000000">23</text>
</a>
</g>
</g>
<!-- dir_6af676bf18881990e4083e191d0e63e0 -->
<g id="node6" class="node">
<title>dir_6af676bf18881990e4083e191d0e63e0</title>
<g id="a_node6"><a xlink:href="dir_6af676bf18881990e4083e191d0e63e0.html" target="_top" xlink:title="CCDB">
<polygon fill="none" stroke="#ff0000" points="151,-36 97,-36 97,0 151,0 151,-36"/>
<text text-anchor="middle" x="124" y="-15.5" font-family="Helvetica,sans-Serif" font-size="10.00" fill="#000000">CCDB</text>
</a>
</g>
</g>
<!-- dir_eff7324435ca3301414fec6c28c4adf5&#45;&gt;dir_6af676bf18881990e4083e191d0e63e0 -->
<g id="edge9" class="edge">
<title>dir_eff7324435ca3301414fec6c28c4adf5&#45;&gt;dir_6af676bf18881990e4083e191d0e63e0</title>
<path fill="none" stroke="#000000" d="M91.9037,-292.3747C88.904,-290.8893 85.8901,-289.4068 83,-288 49.3943,-271.6416 26.9866,-283.5828 7,-252 -3.4573,-235.4753 1.6714,-226.8156 7,-208 25.4207,-142.9554 73.0956,-78.2995 101.581,-43.7277"/>
<polygon fill="#000000" stroke="#000000" points="104.3064,-45.9246 108.037,-36.0083 98.9367,-41.4338 104.3064,-45.9246"/>
<g id="a_edge9&#45;headlabel"><a xlink:href="dir_000016_000019.html" target="_top" xlink:title="2">
<text text-anchor="middle" x="104.1783" y="-48.0035" font-family="Helvetica,sans-Serif" font-size="10.00" fill="#000000">2</text>
</a>
</g>
</g>
<!-- dir_051dca18e802f8e9474f2e30d29c04e0 -->
<g id="node7" class="node">
<title>dir_051dca18e802f8e9474f2e30d29c04e0</title>
<g id="a_node7"><a xlink:href="dir_051dca18e802f8e9474f2e30d29c04e0.html" target="_top" xlink:title="Detectors">
<polygon fill="none" stroke="#ff0000" points="272,-108 208,-108 208,-72 272,-72 272,-108"/>
<text text-anchor="middle" x="240" y="-87.5" font-family="Helvetica,sans-Serif" font-size="10.00" fill="#000000">Detectors</text>
</a>
</g>
</g>
<!-- dir_eff7324435ca3301414fec6c28c4adf5&#45;&gt;dir_051dca18e802f8e9474f2e30d29c04e0 -->
<g id="edge10" class="edge">
<title>dir_eff7324435ca3301414fec6c28c4adf5&#45;&gt;dir_051dca18e802f8e9474f2e30d29c04e0</title>
<path fill="none" stroke="#000000" d="M146.3347,-292.356C173.4297,-278.586 211.5332,-258.4603 216,-252 243.6495,-212.0111 245.0699,-153.1664 242.9646,-118.4964"/>
<polygon fill="#000000" stroke="#000000" points="246.4262,-117.8532 242.1859,-108.1439 239.4459,-118.3783 246.4262,-117.8532"/>
<g id="a_edge10&#45;headlabel"><a xlink:href="dir_000016_000039.html" target="_top" xlink:title="2">
<text text-anchor="middle" x="249.527" y="-118.7248" font-family="Helvetica,sans-Serif" font-size="10.00" fill="#000000">2</text>
</a>
</g>
</g>
<!-- dir_eff7324435ca3301414fec6c28c4adf5&#45;&gt;dir_bcbb2cf9a3d3d83e5515c82071a07177 -->
<g id="edge13" class="edge">
<title>dir_eff7324435ca3301414fec6c28c4adf5&#45;&gt;dir_bcbb2cf9a3d3d83e5515c82071a07177</title>
<path fill="none" stroke="#000000" d="M146.085,-291.6406C167.2377,-279.7945 194.0188,-263.1759 200,-252 209.2274,-234.7584 205.4278,-226.7872 200,-208 198.0634,-201.2969 194.828,-194.6302 191.2051,-188.5376"/>
<polygon fill="#000000" stroke="#000000" points="194.1022,-186.5723 185.7259,-180.0846 188.2282,-190.3797 194.1022,-186.5723"/>
<g id="a_edge13&#45;headlabel"><a xlink:href="dir_000016_000013.html" target="_top" xlink:title="50">
<text text-anchor="middle" x="198.4398" y="-185.5443" font-family="Helvetica,sans-Serif" font-size="10.00" fill="#000000">50</text>
</a>
</g>
</g>
<!-- dir_2171f7ec022c5423887b07c69b2f5b48 -->
<g id="node9" class="node">
<title>dir_2171f7ec022c5423887b07c69b2f5b48</title>
<g id="a_node9"><a xlink:href="dir_2171f7ec022c5423887b07c69b2f5b48.html" target="_top" xlink:title="DataFormats">
<polygon fill="none" stroke="#ff0000" points="280,-36 200,-36 200,0 280,0 280,-36"/>
<text text-anchor="middle" x="240" y="-15.5" font-family="Helvetica,sans-Serif" font-size="10.00" fill="#000000">DataFormats</text>
</a>
</g>
</g>
<!-- dir_eff7324435ca3301414fec6c28c4adf5&#45;&gt;dir_2171f7ec022c5423887b07c69b2f5b48 -->
<g id="edge14" class="edge">
<title>dir_eff7324435ca3301414fec6c28c4adf5&#45;&gt;dir_2171f7ec022c5423887b07c69b2f5b48</title>
<path fill="none" stroke="#000000" d="M146.0441,-292.2649C149.0536,-290.8 152.084,-289.3524 155,-288 191.8472,-270.9103 212.0697,-282.4062 239,-252 293.4666,-190.5034 307.2075,-149.8563 281,-72 277.6203,-61.9596 271.5495,-52.3047 265.0975,-44.0052"/>
<polygon fill="#000000" stroke="#000000" points="267.6879,-41.6461 258.604,-36.1933 262.3048,-46.1208 267.6879,-41.6461"/>
<g id="a_edge14&#45;headlabel"><a xlink:href="dir_000016_000076.html" target="_top" xlink:title="2">
<text text-anchor="middle" x="272.1691" y="-40.0955" font-family="Helvetica,sans-Serif" font-size="10.00" fill="#000000">2</text>
</a>
</g>
</g>
<!-- dir_6e355b58bf8669476ee36a32071bc3eb -->
<g id="node5" class="node">
<title>dir_6e355b58bf8669476ee36a32071bc3eb</title>
<g id="a_node5"><a xlink:href="dir_6e355b58bf8669476ee36a32071bc3eb.html" target="_top" xlink:title="Tutorials">
<polygon fill="#ffffff" stroke="#ff0000" points="74,-324 16,-324 16,-288 74,-288 74,-324"/>
<text text-anchor="middle" x="45" y="-303.5" font-family="Helvetica,sans-Serif" font-size="10.00" fill="#000000">Tutorials</text>
</a>
</g>
</g>
<!-- dir_6e355b58bf8669476ee36a32071bc3eb&#45;&gt;dir_8d04f135a1eb0fdc4d561ef87bbea216 -->
<g id="edge2" class="edge">
<title>dir_6e355b58bf8669476ee36a32071bc3eb&#45;&gt;dir_8d04f135a1eb0fdc4d561ef87bbea216</title>
<path fill="none" stroke="#000000" d="M66.7014,-287.8314C77.1921,-279.0485 89.9455,-268.3712 101.3194,-258.8489"/>
<polygon fill="#000000" stroke="#000000" points="103.8847,-261.2659 109.3055,-252.1628 99.3911,-255.8986 103.8847,-261.2659"/>
<g id="a_edge2&#45;headlabel"><a xlink:href="dir_000017_000005.html" target="_top" xlink:title="1">
<text text-anchor="middle" x="102.9511" y="-263.2504" font-family="Helvetica,sans-Serif" font-size="10.00" fill="#000000">1</text>
</a>
</g>
</g>
<!-- dir_6e355b58bf8669476ee36a32071bc3eb&#45;&gt;dir_f41dd59f861c855ea21b0dc3111cb7b0 -->
<g id="edge1" class="edge">
<title>dir_6e355b58bf8669476ee36a32071bc3eb&#45;&gt;dir_f41dd59f861c855ea21b0dc3111cb7b0</title>
<path fill="none" stroke="#000000" d="M46.5141,-287.8314C47.1558,-280.131 47.9188,-270.9743 48.6319,-262.4166"/>
<polygon fill="#000000" stroke="#000000" points="52.1229,-262.6694 49.4656,-252.4133 45.1471,-262.088 52.1229,-262.6694"/>
<g id="a_edge1&#45;headlabel"><a xlink:href="dir_000017_000009.html" target="_top" xlink:title="2">
<text text-anchor="middle" x="54.654" y="-263.9874" font-family="Helvetica,sans-Serif" font-size="10.00" fill="#000000">2</text>
</a>
</g>
</g>
<!-- dir_6e355b58bf8669476ee36a32071bc3eb&#45;&gt;dir_bcbb2cf9a3d3d83e5515c82071a07177 -->
<g id="edge3" class="edge">
<title>dir_6e355b58bf8669476ee36a32071bc3eb&#45;&gt;dir_bcbb2cf9a3d3d83e5515c82071a07177</title>
<path fill="none" stroke="#000000" d="M74.4079,-291.9367C77.3044,-290.5916 80.2051,-289.2603 83,-288 120.0269,-271.3032 143.893,-285.4042 167,-252 179.3122,-234.201 179.483,-209.3484 177.0405,-190.2679"/>
<polygon fill="#000000" stroke="#000000" points="180.4905,-189.6755 175.4753,-180.3429 173.5759,-190.7661 180.4905,-189.6755"/>
<g id="a_edge3&#45;headlabel"><a xlink:href="dir_000017_000013.html" target="_top" xlink:title="48">
<text text-anchor="middle" x="183.855" y="-190.284" font-family="Helvetica,sans-Serif" font-size="10.00" fill="#000000">48</text>
</a>
</g>
</g>
<!-- dir_6af676bf18881990e4083e191d0e63e0&#45;&gt;dir_bcbb2cf9a3d3d83e5515c82071a07177 -->
<g id="edge4" class="edge">
<title>dir_6af676bf18881990e4083e191d0e63e0&#45;&gt;dir_bcbb2cf9a3d3d83e5515c82071a07177</title>
<path fill="none" stroke="#000000" d="M128.0399,-36.1559C132.307,-54.4959 139.576,-83.5361 148,-108 151.0046,-116.7255 154.7617,-126.0354 158.3629,-134.4243"/>
<polygon fill="#000000" stroke="#000000" points="155.2374,-136.0116 162.4644,-143.7588 161.646,-133.1956 155.2374,-136.0116"/>
<g id="a_edge4&#45;headlabel"><a xlink:href="dir_000019_000013.html" target="_top" xlink:title="2">
<text text-anchor="middle" x="151.192" y="-131.3627" font-family="Helvetica,sans-Serif" font-size="10.00" fill="#000000">2</text>
</a>
</g>
</g>
<!-- dir_051dca18e802f8e9474f2e30d29c04e0&#45;&gt;dir_6af676bf18881990e4083e191d0e63e0 -->
<g id="edge5" class="edge">
<title>dir_051dca18e802f8e9474f2e30d29c04e0&#45;&gt;dir_6af676bf18881990e4083e191d0e63e0</title>
<path fill="none" stroke="#000000" d="M210.7283,-71.8314C195.3249,-62.2706 176.3049,-50.4651 160.0053,-40.3481"/>
<polygon fill="#000000" stroke="#000000" points="161.6123,-37.2262 151.2701,-34.9263 157.9208,-43.1737 161.6123,-37.2262"/>
<g id="a_edge5&#45;headlabel"><a xlink:href="dir_000039_000019.html" target="_top" xlink:title="25">
<text text-anchor="middle" x="166.1638" y="-34.2095" font-family="Helvetica,sans-Serif" font-size="10.00" fill="#000000">25</text>
</a>
</g>
</g>
<!-- dir_051dca18e802f8e9474f2e30d29c04e0&#45;&gt;dir_bcbb2cf9a3d3d83e5515c82071a07177 -->
<g id="edge6" class="edge">
<title>dir_051dca18e802f8e9474f2e30d29c04e0&#45;&gt;dir_bcbb2cf9a3d3d83e5515c82071a07177</title>
<path fill="none" stroke="#000000" d="M228.33,-108.4133C220.9274,-116.9938 211.1792,-127.3414 201.7779,-136.6463"/>
<polygon fill="#000000" stroke="#000000" points="199.1092,-134.3586 194.364,-143.8314 203.9808,-139.3853 199.1092,-134.3586"/>
<g id="a_edge6&#45;headlabel"><a xlink:href="dir_000039_000013.html" target="_top" xlink:title="741">
<text text-anchor="middle" x="199.7145" y="-127.3181" font-family="Helvetica,sans-Serif" font-size="10.00" fill="#000000">741</text>
</a>
</g>
</g>
<!-- dir_051dca18e802f8e9474f2e30d29c04e0&#45;&gt;dir_2171f7ec022c5423887b07c69b2f5b48 -->
<g id="edge7" class="edge">
<title>dir_051dca18e802f8e9474f2e30d29c04e0&#45;&gt;dir_2171f7ec022c5423887b07c69b2f5b48</title>
<path fill="none" stroke="#000000" d="M234.0476,-71.8314C233.2972,-64.131 233.0763,-54.9743 233.3849,-46.4166"/>
<polygon fill="#000000" stroke="#000000" points="236.8792,-46.6161 234.024,-36.4133 229.8935,-46.1697 236.8792,-46.6161"/>
<g id="a_edge7&#45;headlabel"><a xlink:href="dir_000039_000076.html" target="_top" xlink:title="1091">
<text text-anchor="middle" x="239.4836" y="-47.8844" font-family="Helvetica,sans-Serif" font-size="10.00" fill="#000000">1091</text>
</a>
</g>
</g>
<!-- dir_bcbb2cf9a3d3d83e5515c82071a07177&#45;&gt;dir_051dca18e802f8e9474f2e30d29c04e0 -->
<g id="edge16" class="edge">
<title>dir_bcbb2cf9a3d3d83e5515c82071a07177&#45;&gt;dir_051dca18e802f8e9474f2e30d29c04e0</title>
<path fill="none" stroke="#000000" d="M182.4592,-143.8314C189.9468,-135.1337 199.8904,-124.5783 209.4519,-115.1265"/>
<polygon fill="#000000" stroke="#000000" points="211.8937,-117.634 216.6421,-108.1628 207.0238,-112.6057 211.8937,-117.634"/>
<g id="a_edge16&#45;headlabel"><a xlink:href="dir_000013_000039.html" target="_top" xlink:title="4">
<text text-anchor="middle" x="211.2869" y="-119.6743" font-family="Helvetica,sans-Serif" font-size="10.00" fill="#000000">4</text>
</a>
</g>
</g>
<!-- dir_bcbb2cf9a3d3d83e5515c82071a07177&#45;&gt;dir_2171f7ec022c5423887b07c69b2f5b48 -->
<g id="edge17" class="edge">
<title>dir_bcbb2cf9a3d3d83e5515c82071a07177&#45;&gt;dir_2171f7ec022c5423887b07c69b2f5b48</title>
<path fill="none" stroke="#000000" d="M167.9619,-143.6935C169.974,-124.9812 177.9392,-95.4228 190,-72 194.982,-62.3246 201.713,-52.5947 208.7039,-44.1115"/>
<polygon fill="#000000" stroke="#000000" points="211.4948,-46.2366 215.4375,-36.4027 206.2228,-41.6316 211.4948,-46.2366"/>
<g id="a_edge17&#45;headlabel"><a xlink:href="dir_000013_000076.html" target="_top" xlink:title="82">
<text text-anchor="middle" x="211.2685" y="-48.3117" font-family="Helvetica,sans-Serif" font-size="10.00" fill="#000000">82</text>
</a>
</g>
</g>
<!-- dir_2171f7ec022c5423887b07c69b2f5b48&#45;&gt;dir_051dca18e802f8e9474f2e30d29c04e0 -->
<g id="edge18" class="edge">
<title>dir_2171f7ec022c5423887b07c69b2f5b48&#45;&gt;dir_051dca18e802f8e9474f2e30d29c04e0</title>
<path fill="none" stroke="#000000" d="M245.976,-36.4133C246.7071,-44.0593 246.9203,-53.1084 246.6155,-61.5726"/>
<polygon fill="#000000" stroke="#000000" points="243.1048,-61.6264 245.9524,-71.8314 250.0902,-62.078 243.1048,-61.6264"/>
<g id="a_edge18&#45;headlabel"><a xlink:href="dir_000076_000039.html" target="_top" xlink:title="14">
<text text-anchor="middle" x="240.5032" y="-55.3562" font-family="Helvetica,sans-Serif" font-size="10.00" fill="#000000">14</text>
</a>
</g>
</g>
<!-- dir_2171f7ec022c5423887b07c69b2f5b48&#45;&gt;dir_bcbb2cf9a3d3d83e5515c82071a07177 -->
<g id="edge19" class="edge">
<title>dir_2171f7ec022c5423887b07c69b2f5b48&#45;&gt;dir_bcbb2cf9a3d3d83e5515c82071a07177</title>
<path fill="none" stroke="#000000" d="M231.4893,-36.4027C224.1939,-46.37 214.5742,-59.2325 208,-72 197.8237,-91.763 190.5631,-115.894 184.6445,-134.1925"/>
<polygon fill="#000000" stroke="#000000" points="181.3194,-133.0999 181.4845,-143.6935 187.9617,-135.3092 181.3194,-133.0999"/>
<g id="a_edge19&#45;headlabel"><a xlink:href="dir_000076_000013.html" target="_top" xlink:title="10">
<text text-anchor="middle" x="179.7597" y="-126.293" font-family="Helvetica,sans-Serif" font-size="10.00" fill="#000000">10</text>
</a>
</g>
</g>
</g>
</svg>
