<?xml version="1.0" encoding="UTF-8" standalone="no"?>
<!DOCTYPE svg PUBLIC "-//W3C//DTD SVG 1.1//EN"
 "http://www.w3.org/Graphics/SVG/1.1/DTD/svg11.dtd">
<!-- Generated by graphviz version 2.40.1 (20161225.0304)
 -->
<!-- Title: Graphical Class Hierarchy Pages: 1 -->
<svg width="213pt" height="78pt"
 viewBox="0.00 0.00 213.00 77.50" xmlns="http://www.w3.org/2000/svg" xmlns:xlink="http://www.w3.org/1999/xlink">
<g id="graph0" class="graph" transform="scale(1 1) rotate(0) translate(4 73.5)">
<title>Graphical Class Hierarchy</title>
<!-- Node2716 -->
<g id="node1" class="node">
<title>Node2716</title>
<polygon fill="none" stroke="#bfbfbf" points="0,-22.5 0,-41.5 29,-41.5 29,-22.5 0,-22.5"/>
<text text-anchor="middle" x="14.5" y="-29.5" font-family="Helvetica,sans-Serif" font-size="10.00" fill="#000000">T</text>
</g>
<!-- Node0 -->
<g id="node2" class="node">
<title>Node0</title>
<g id="a_node2"><a xlink:href="d6/deb/classGPUCA__NAMESPACE_1_1gpu_1_1GPUTRDTrack__t.html" target="_top" xlink:title="GPUCA_NAMESPACE::gpu\l::GPUTRDTrack_t\&lt; T \&gt;">
<polygon fill="none" stroke="#000000" points="65,-39 65,-69 205,-69 205,-39 65,-39"/>
<text text-anchor="start" x="73" y="-57" font-family="Helvetica,sans-Serif" font-size="10.00" fill="#000000">GPUCA_NAMESPACE::gpu</text>
<text text-anchor="middle" x="135" y="-46" font-family="Helvetica,sans-Serif" font-size="10.00" fill="#000000">::GPUTRDTrack_t&lt; T &gt;</text>
</a>
</g>
</g>
<!-- Node2716&#45;&gt;Node0 -->
<g id="edge1" class="edge">
<title>Node2716&#45;&gt;Node0</title>
<path fill="none" stroke="#191970" d="M39.1863,-36.507C46.8198,-37.9007 55.6395,-39.5109 64.7739,-41.1786"/>
<polygon fill="#191970" stroke="#191970" points="39.7417,-33.0507 29.2757,-34.6976 38.4844,-39.9368 39.7417,-33.0507"/>
</g>
<!-- Node2718 -->
<g id="node3" class="node">
<title>Node2718</title>
<g id="a_node3"><a xlink:href="dd/ddc/classo2_1_1soa_1_1Filtered.html" target="_top" xlink:title="o2::soa::Filtered\&lt; T \&gt;">
<polygon fill="none" stroke="#000000" points="74,-.5 74,-19.5 196,-19.5 196,-.5 74,-.5"/>
<text text-anchor="middle" x="135" y="-7.5" font-family="Helvetica,sans-Serif" font-size="10.00" fill="#000000">o2::soa::Filtered&lt; T &gt;</text>
</a>
</g>
</g>
<!-- Node2716&#45;&gt;Node2718 -->
<g id="edge2" class="edge">
<title>Node2716&#45;&gt;Node2718</title>
<path fill="none" stroke="#191970" d="M39.4321,-27.4481C52.0338,-25.1473 67.8217,-22.2649 82.9134,-19.5096"/>
<polygon fill="#191970" stroke="#191970" points="38.4844,-24.0632 29.2757,-29.3024 39.7417,-30.9493 38.4844,-24.0632"/>
</g>
</g>
</svg>
