<?xml version="1.0" encoding="UTF-8" standalone="no"?>
<!DOCTYPE svg PUBLIC "-//W3C//DTD SVG 1.1//EN"
 "http://www.w3.org/Graphics/SVG/1.1/DTD/svg11.dtd">
<!-- Generated by graphviz version 2.40.1 (20161225.0304)
 -->
<!-- Title: Graphical Class Hierarchy Pages: 1 -->
<svg width="518pt" height="659pt"
 viewBox="0.00 0.00 518.00 658.50" xmlns="http://www.w3.org/2000/svg" xmlns:xlink="http://www.w3.org/1999/xlink">
<g id="graph0" class="graph" transform="scale(1 1) rotate(0) translate(4 654.5)">
<title>Graphical Class Hierarchy</title>
<!-- Node934 -->
<g id="node1" class="node">
<title>Node934</title>
<g id="a_node1"><a xlink:href="d6/d00/classo2_1_1mergers_1_1MergeInterface.html" target="_top" xlink:title="An interface which allows to merge custom objects. ">
<polygon fill="none" stroke="#000000" points="0,-600.5 0,-619.5 155,-619.5 155,-600.5 0,-600.5"/>
<text text-anchor="middle" x="77.5" y="-607.5" font-family="Helvetica,sans-Serif" font-size="10.00" fill="#000000">o2::mergers::MergeInterface</text>
</a>
</g>
</g>
<!-- Node935 -->
<g id="node2" class="node">
<title>Node935</title>
<g id="a_node2"><a xlink:href="d8/ddf/classo2_1_1mergers_1_1CustomMergeableObject.html" target="_top" xlink:title="o2::mergers::CustomMergeable\lObject">
<polygon fill="none" stroke="#000000" points="191,-620 191,-650 361,-650 361,-620 191,-620"/>
<text text-anchor="start" x="199" y="-638" font-family="Helvetica,sans-Serif" font-size="10.00" fill="#000000">o2::mergers::CustomMergeable</text>
<text text-anchor="middle" x="276" y="-627" font-family="Helvetica,sans-Serif" font-size="10.00" fill="#000000">Object</text>
</a>
</g>
</g>
<!-- Node934&#45;&gt;Node935 -->
<g id="edge1" class="edge">
<title>Node934&#45;&gt;Node935</title>
<path fill="none" stroke="#191970" d="M163.071,-620.7772C172.3231,-621.9425 181.7369,-623.1281 190.9824,-624.2925"/>
<polygon fill="#191970" stroke="#191970" points="163.4696,-617.2998 153.1106,-619.5227 162.5948,-624.245 163.4696,-617.2998"/>
</g>
<!-- Node19 -->
<g id="node3" class="node">
<title>Node19</title>
<g id="a_node3"><a xlink:href="dc/dcc/classo2_1_1mergers_1_1CustomMergeableTObject.html" target="_top" xlink:title="o2::mergers::CustomMergeable\lTObject">
<polygon fill="none" stroke="#000000" points="191,-571 191,-601 361,-601 361,-571 191,-571"/>
<text text-anchor="start" x="199" y="-589" font-family="Helvetica,sans-Serif" font-size="10.00" fill="#000000">o2::mergers::CustomMergeable</text>
<text text-anchor="middle" x="276" y="-578" font-family="Helvetica,sans-Serif" font-size="10.00" fill="#000000">TObject</text>
</a>
</g>
</g>
<!-- Node934&#45;&gt;Node19 -->
<g id="edge2" class="edge">
<title>Node934&#45;&gt;Node19</title>
<path fill="none" stroke="#191970" d="M165.0921,-599.4095C173.6648,-598.373 182.3551,-597.3223 190.9025,-596.2889"/>
<polygon fill="#191970" stroke="#191970" points="164.6057,-595.9428 155.0981,-600.6179 165.446,-602.8921 164.6057,-595.9428"/>
</g>
<!-- Node0 -->
<g id="node4" class="node">
<title>Node0</title>
<g id="a_node4"><a xlink:href="d5/d0f/classTObject.html" target="_top" xlink:title="TObject">
<polygon fill="none" stroke="#000000" points="50.5,-285.5 50.5,-304.5 104.5,-304.5 104.5,-285.5 50.5,-285.5"/>
<text text-anchor="middle" x="77.5" y="-292.5" font-family="Helvetica,sans-Serif" font-size="10.00" fill="#000000">TObject</text>
</a>
</g>
</g>
<!-- Node0&#45;&gt;Node19 -->
<g id="edge21" class="edge">
<title>Node0&#45;&gt;Node19</title>
<path fill="none" stroke="#191970" d="M80.1085,-314.6336C87.6827,-363.726 114.2426,-492.7533 191,-561 195.3682,-564.8839 200.3125,-568.1656 205.5655,-570.9383"/>
<polygon fill="#191970" stroke="#191970" points="83.5648,-314.079 78.6694,-304.683 76.6369,-315.081 83.5648,-314.079"/>
</g>
<!-- Node1 -->
<g id="node5" class="node">
<title>Node1</title>
<g id="a_node5"><a xlink:href="d1/d57/classAliHLT3DTrackParam.html" target="_top" xlink:title="AliHLT3DTrackParam">
<polygon fill="none" stroke="#000000" points="218,-532.5 218,-551.5 334,-551.5 334,-532.5 218,-532.5"/>
<text text-anchor="middle" x="276" y="-539.5" font-family="Helvetica,sans-Serif" font-size="10.00" fill="#000000">AliHLT3DTrackParam</text>
</a>
</g>
</g>
<!-- Node0&#45;&gt;Node1 -->
<g id="edge3" class="edge">
<title>Node0&#45;&gt;Node1</title>
<path fill="none" stroke="#191970" d="M81.2812,-314.4823C90.9747,-358.9318 121.0407,-468.2083 191,-523 198.738,-529.0603 208.0263,-533.2681 217.5789,-536.1732"/>
<polygon fill="#191970" stroke="#191970" points="84.7002,-313.7326 79.2438,-304.6509 77.8459,-315.1531 84.7002,-313.7326"/>
</g>
<!-- Node2 -->
<g id="node6" class="node">
<title>Node2</title>
<g id="a_node6"><a xlink:href="de/d1a/classex2_1_1A.html" target="_top" xlink:title="ex2::A">
<polygon fill="none" stroke="#000000" points="252.5,-494.5 252.5,-513.5 299.5,-513.5 299.5,-494.5 252.5,-494.5"/>
<text text-anchor="middle" x="276" y="-501.5" font-family="Helvetica,sans-Serif" font-size="10.00" fill="#000000">ex2::A</text>
</a>
</g>
</g>
<!-- Node0&#45;&gt;Node2 -->
<g id="edge4" class="edge">
<title>Node0&#45;&gt;Node2</title>
<path fill="none" stroke="#191970" d="M83.301,-314.3785C95.9992,-353.2891 130.0971,-440.9562 191,-485 208.8891,-497.937 234.0202,-502.2976 252.3144,-503.6564"/>
<polygon fill="#191970" stroke="#191970" points="86.6196,-313.2641 80.2824,-304.7734 79.9416,-315.3628 86.6196,-313.2641"/>
</g>
<!-- Node3 -->
<g id="node7" class="node">
<title>Node3</title>
<g id="a_node7"><a xlink:href="dc/d3f/classex3_1_1A.html" target="_top" xlink:title="ex3::A">
<polygon fill="none" stroke="#000000" points="252.5,-456.5 252.5,-475.5 299.5,-475.5 299.5,-456.5 252.5,-456.5"/>
<text text-anchor="middle" x="276" y="-463.5" font-family="Helvetica,sans-Serif" font-size="10.00" fill="#000000">ex3::A</text>
</a>
</g>
</g>
<!-- Node0&#45;&gt;Node3 -->
<g id="edge5" class="edge">
<title>Node0&#45;&gt;Node3</title>
<path fill="none" stroke="#191970" d="M86.1204,-314.0451C101.948,-346.7308 138.8659,-413.24 191,-447 209.4039,-458.9176 234.229,-463.4303 252.297,-465.1031"/>
<polygon fill="#191970" stroke="#191970" points="89.1518,-312.2666 81.73,-304.7057 82.8169,-315.2447 89.1518,-312.2666"/>
</g>
<!-- Node4 -->
<g id="node8" class="node">
<title>Node4</title>
<g id="a_node8"><a xlink:href="d8/db3/classex4_1_1A.html" target="_top" xlink:title="ex4::A">
<polygon fill="none" stroke="#000000" points="252.5,-418.5 252.5,-437.5 299.5,-437.5 299.5,-418.5 252.5,-418.5"/>
<text text-anchor="middle" x="276" y="-425.5" font-family="Helvetica,sans-Serif" font-size="10.00" fill="#000000">ex4::A</text>
</a>
</g>
</g>
<!-- Node0&#45;&gt;Node4 -->
<g id="edge6" class="edge">
<title>Node0&#45;&gt;Node4</title>
<path fill="none" stroke="#191970" d="M90.2402,-313.18C109.1651,-338.7397 147.2146,-384.866 191,-409 210.0695,-419.5109 234.5804,-424.2087 252.3773,-426.3075"/>
<polygon fill="#191970" stroke="#191970" points="92.8551,-310.8233 84.1579,-304.7726 87.1836,-314.9263 92.8551,-310.8233"/>
</g>
<!-- Node5 -->
<g id="node9" class="node">
<title>Node5</title>
<g id="a_node9"><a xlink:href="d0/d20/classo2_1_1base_1_1GeometryManager.html" target="_top" xlink:title="o2::base::GeometryManager">
<polygon fill="none" stroke="#000000" points="198.5,-380.5 198.5,-399.5 353.5,-399.5 353.5,-380.5 198.5,-380.5"/>
<text text-anchor="middle" x="276" y="-387.5" font-family="Helvetica,sans-Serif" font-size="10.00" fill="#000000">o2::base::GeometryManager</text>
</a>
</g>
</g>
<!-- Node0&#45;&gt;Node5 -->
<g id="edge7" class="edge">
<title>Node0&#45;&gt;Node5</title>
<path fill="none" stroke="#191970" d="M96.6041,-311.0645C118.1773,-328.3908 154.9851,-355.5616 191,-371 199.8947,-374.8129 209.6546,-377.9068 219.2911,-380.403"/>
<polygon fill="#191970" stroke="#191970" points="98.5545,-308.1384 88.5966,-304.5201 94.1247,-313.5584 98.5545,-308.1384"/>
</g>
<!-- Node6 -->
<g id="node10" class="node">
<title>Node6</title>
<g id="a_node10"><a xlink:href="d5/dd3/classo2_1_1ccdb_1_1IdPath.html" target="_top" xlink:title="o2::ccdb::IdPath">
<polygon fill="none" stroke="#000000" points="229.5,-342.5 229.5,-361.5 322.5,-361.5 322.5,-342.5 229.5,-342.5"/>
<text text-anchor="middle" x="276" y="-349.5" font-family="Helvetica,sans-Serif" font-size="10.00" fill="#000000">o2::ccdb::IdPath</text>
</a>
</g>
</g>
<!-- Node0&#45;&gt;Node6 -->
<g id="edge8" class="edge">
<title>Node0&#45;&gt;Node6</title>
<path fill="none" stroke="#191970" d="M113.0862,-307.9657C135.3082,-315.7991 164.6127,-325.6547 191,-333 203.3822,-336.4468 216.9126,-339.6993 229.4637,-342.5066"/>
<polygon fill="#191970" stroke="#191970" points="114.0051,-304.5778 103.4104,-304.5251 111.6598,-311.1732 114.0051,-304.5778"/>
</g>
<!-- Node7 -->
<g id="node11" class="node">
<title>Node7</title>
<g id="a_node11"><a xlink:href="d2/d76/classo2_1_1cpv_1_1Digitizer.html" target="_top" xlink:title="o2::cpv::Digitizer">
<polygon fill="none" stroke="#000000" points="227,-304.5 227,-323.5 325,-323.5 325,-304.5 227,-304.5"/>
<text text-anchor="middle" x="276" y="-311.5" font-family="Helvetica,sans-Serif" font-size="10.00" fill="#000000">o2::cpv::Digitizer</text>
</a>
</g>
</g>
<!-- Node0&#45;&gt;Node7 -->
<g id="edge9" class="edge">
<title>Node0&#45;&gt;Node7</title>
<path fill="none" stroke="#191970" d="M114.8351,-298.5736C146.4505,-301.5998 192.0218,-305.9618 226.6446,-309.2758"/>
<polygon fill="#191970" stroke="#191970" points="114.9724,-295.0709 104.6844,-297.602 114.3054,-302.039 114.9724,-295.0709"/>
</g>
<!-- Node8 -->
<g id="node12" class="node">
<title>Node8</title>
<g id="a_node12"><a xlink:href="d6/d7e/classo2_1_1emcal_1_1Digitizer.html" target="_top" xlink:title="EMCAL FEE digitizer. ">
<polygon fill="none" stroke="#000000" points="220,-266.5 220,-285.5 332,-285.5 332,-266.5 220,-266.5"/>
<text text-anchor="middle" x="276" y="-273.5" font-family="Helvetica,sans-Serif" font-size="10.00" fill="#000000">o2::emcal::Digitizer</text>
</a>
</g>
</g>
<!-- Node0&#45;&gt;Node8 -->
<g id="edge10" class="edge">
<title>Node0&#45;&gt;Node8</title>
<path fill="none" stroke="#191970" d="M114.9946,-291.4111C144.5727,-288.5799 186.2936,-284.5865 219.8538,-281.3742"/>
<polygon fill="#191970" stroke="#191970" points="114.3054,-287.961 104.6844,-292.398 114.9724,-294.9291 114.3054,-287.961"/>
</g>
<!-- Node9 -->
<g id="node13" class="node">
<title>Node9</title>
<g id="a_node13"><a xlink:href="d6/d50/classo2_1_1its3_1_1V11Geometry.html" target="_top" xlink:title="o2::its3::V11Geometry">
<polygon fill="none" stroke="#000000" points="213,-228.5 213,-247.5 339,-247.5 339,-228.5 213,-228.5"/>
<text text-anchor="middle" x="276" y="-235.5" font-family="Helvetica,sans-Serif" font-size="10.00" fill="#000000">o2::its3::V11Geometry</text>
</a>
</g>
</g>
<!-- Node0&#45;&gt;Node9 -->
<g id="edge11" class="edge">
<title>Node0&#45;&gt;Node9</title>
<path fill="none" stroke="#191970" d="M113.0862,-282.0343C135.3082,-274.2009 164.6127,-264.3453 191,-257 203.2365,-253.5938 216.5944,-250.3772 229.0203,-247.5926"/>
<polygon fill="#191970" stroke="#191970" points="111.6598,-278.8268 103.4104,-285.4749 114.0051,-285.4222 111.6598,-278.8268"/>
</g>
<!-- Node13 -->
<g id="node17" class="node">
<title>Node13</title>
<g id="a_node17"><a xlink:href="d3/d6b/classo2_1_1its_1_1V11Geometry.html" target="_top" xlink:title="o2::its::V11Geometry">
<polygon fill="none" stroke="#000000" points="216,-190.5 216,-209.5 336,-209.5 336,-190.5 216,-190.5"/>
<text text-anchor="middle" x="276" y="-197.5" font-family="Helvetica,sans-Serif" font-size="10.00" fill="#000000">o2::its::V11Geometry</text>
</a>
</g>
</g>
<!-- Node0&#45;&gt;Node13 -->
<g id="edge15" class="edge">
<title>Node0&#45;&gt;Node13</title>
<path fill="none" stroke="#191970" d="M96.6041,-278.9355C118.1773,-261.6092 154.9851,-234.4384 191,-219 199.8947,-215.1871 209.6546,-212.0932 219.2911,-209.597"/>
<polygon fill="#191970" stroke="#191970" points="94.1247,-276.4416 88.5966,-285.4799 98.5545,-281.8616 94.1247,-276.4416"/>
</g>
<!-- Node17 -->
<g id="node21" class="node">
<title>Node17</title>
<g id="a_node21"><a xlink:href="d9/dc7/classo2_1_1itsmft_1_1ClusterShape.html" target="_top" xlink:title="o2::itsmft::ClusterShape">
<polygon fill="none" stroke="#000000" points="209,-152.5 209,-171.5 343,-171.5 343,-152.5 209,-152.5"/>
<text text-anchor="middle" x="276" y="-159.5" font-family="Helvetica,sans-Serif" font-size="10.00" fill="#000000">o2::itsmft::ClusterShape</text>
</a>
</g>
</g>
<!-- Node0&#45;&gt;Node17 -->
<g id="edge19" class="edge">
<title>Node0&#45;&gt;Node17</title>
<path fill="none" stroke="#191970" d="M90.2402,-276.82C109.1651,-251.2603 147.2146,-205.134 191,-181 198.0186,-177.1314 205.7744,-174.0503 213.6612,-171.5964"/>
<polygon fill="#191970" stroke="#191970" points="87.1836,-275.0737 84.1579,-285.2274 92.8551,-279.1767 87.1836,-275.0737"/>
</g>
<!-- Node18 -->
<g id="node22" class="node">
<title>Node18</title>
<g id="a_node22"><a xlink:href="d0/d77/classo2_1_1itsmft_1_1Digitizer.html" target="_top" xlink:title="o2::itsmft::Digitizer">
<polygon fill="none" stroke="#000000" points="220.5,-114.5 220.5,-133.5 331.5,-133.5 331.5,-114.5 220.5,-114.5"/>
<text text-anchor="middle" x="276" y="-121.5" font-family="Helvetica,sans-Serif" font-size="10.00" fill="#000000">o2::itsmft::Digitizer</text>
</a>
</g>
</g>
<!-- Node0&#45;&gt;Node18 -->
<g id="edge20" class="edge">
<title>Node0&#45;&gt;Node18</title>
<path fill="none" stroke="#191970" d="M86.1204,-275.9549C101.948,-243.2692 138.8659,-176.76 191,-143 199.7577,-137.3288 209.9695,-133.3345 220.2152,-130.5251"/>
<polygon fill="#191970" stroke="#191970" points="82.8169,-274.7553 81.73,-285.2943 89.1518,-277.7334 82.8169,-274.7553"/>
</g>
<!-- Node20 -->
<g id="node23" class="node">
<title>Node20</title>
<g id="a_node23"><a xlink:href="db/d73/classo2_1_1phos_1_1Digitizer.html" target="_top" xlink:title="o2::phos::Digitizer">
<polygon fill="none" stroke="#000000" points="223.5,-76.5 223.5,-95.5 328.5,-95.5 328.5,-76.5 223.5,-76.5"/>
<text text-anchor="middle" x="276" y="-83.5" font-family="Helvetica,sans-Serif" font-size="10.00" fill="#000000">o2::phos::Digitizer</text>
</a>
</g>
</g>
<!-- Node0&#45;&gt;Node20 -->
<g id="edge22" class="edge">
<title>Node0&#45;&gt;Node20</title>
<path fill="none" stroke="#191970" d="M83.301,-275.6215C95.9992,-236.7109 130.0971,-149.0438 191,-105 200.4347,-98.177 211.8837,-93.7396 223.2817,-90.8699"/>
<polygon fill="#191970" stroke="#191970" points="79.9416,-274.6372 80.2824,-285.2266 86.6196,-276.7359 79.9416,-274.6372"/>
</g>
<!-- Node21 -->
<g id="node24" class="node">
<title>Node21</title>
<g id="a_node24"><a xlink:href="d7/d2d/classo2_1_1TObjectWrapper.html" target="_top" xlink:title="o2::TObjectWrapper\&lt; T \&gt;">
<polygon fill="none" stroke="#000000" points="205.5,-38.5 205.5,-57.5 346.5,-57.5 346.5,-38.5 205.5,-38.5"/>
<text text-anchor="middle" x="276" y="-45.5" font-family="Helvetica,sans-Serif" font-size="10.00" fill="#000000">o2::TObjectWrapper&lt; T &gt;</text>
</a>
</g>
</g>
<!-- Node0&#45;&gt;Node21 -->
<g id="edge23" class="edge">
<title>Node0&#45;&gt;Node21</title>
<path fill="none" stroke="#191970" d="M81.2812,-275.5177C90.9747,-231.0682 121.0407,-121.7917 191,-67 195.8809,-63.1773 201.3786,-60.0918 207.1704,-57.6052"/>
<polygon fill="#191970" stroke="#191970" points="77.8459,-274.8469 79.2438,-285.3491 84.7002,-276.2674 77.8459,-274.8469"/>
</g>
<!-- Node22 -->
<g id="node25" class="node">
<title>Node22</title>
<g id="a_node25"><a xlink:href="d7/d2d/classTrackSelection.html" target="_top" xlink:title="TrackSelection">
<polygon fill="none" stroke="#000000" points="232.5,-.5 232.5,-19.5 319.5,-19.5 319.5,-.5 232.5,-.5"/>
<text text-anchor="middle" x="276" y="-7.5" font-family="Helvetica,sans-Serif" font-size="10.00" fill="#000000">TrackSelection</text>
</a>
</g>
</g>
<!-- Node0&#45;&gt;Node22 -->
<g id="edge24" class="edge">
<title>Node0&#45;&gt;Node22</title>
<path fill="none" stroke="#191970" d="M79.7933,-275.3922C86.6787,-225.8317 111.849,-94.8205 191,-29 202.5101,-19.4284 217.8297,-14.4184 232.2911,-11.8732"/>
<polygon fill="#191970" stroke="#191970" points="76.3078,-275.0563 78.5003,-285.4218 83.2503,-275.9514 76.3078,-275.0563"/>
</g>
<!-- Node10 -->
<g id="node14" class="node">
<title>Node10</title>
<g id="a_node14"><a xlink:href="d8/d38/classo2_1_1its3_1_1V1Layer.html" target="_top" xlink:title="o2::its3::V1Layer">
<polygon fill="none" stroke="#000000" points="404.5,-304.5 404.5,-323.5 502.5,-323.5 502.5,-304.5 404.5,-304.5"/>
<text text-anchor="middle" x="453.5" y="-311.5" font-family="Helvetica,sans-Serif" font-size="10.00" fill="#000000">o2::its3::V1Layer</text>
</a>
</g>
</g>
<!-- Node9&#45;&gt;Node10 -->
<g id="edge12" class="edge">
<title>Node9&#45;&gt;Node10</title>
<path fill="none" stroke="#191970" d="M348.5202,-251.0328C352.8493,-252.7778 357.0464,-254.7564 361,-257 381.2335,-268.4822 377.3937,-282.4769 397,-295 402.9306,-298.7881 409.6971,-301.9043 416.4369,-304.4383"/>
<polygon fill="#191970" stroke="#191970" points="349.4704,-247.6553 338.8758,-247.5737 347.1071,-254.2443 349.4704,-247.6553"/>
</g>
<!-- Node11 -->
<g id="node15" class="node">
<title>Node11</title>
<g id="a_node15"><a xlink:href="d6/db7/classo2_1_1its3_1_1V3Layer.html" target="_top" xlink:title="o2::its3::V3Layer">
<polygon fill="none" stroke="#000000" points="404.5,-266.5 404.5,-285.5 502.5,-285.5 502.5,-266.5 404.5,-266.5"/>
<text text-anchor="middle" x="453.5" y="-273.5" font-family="Helvetica,sans-Serif" font-size="10.00" fill="#000000">o2::its3::V3Layer</text>
</a>
</g>
</g>
<!-- Node9&#45;&gt;Node11 -->
<g id="edge13" class="edge">
<title>Node9&#45;&gt;Node11</title>
<path fill="none" stroke="#191970" d="M330.8969,-249.7526C355.9954,-255.1258 385.3428,-261.4086 409.0313,-266.4799"/>
<polygon fill="#191970" stroke="#191970" points="331.3019,-246.26 320.7907,-247.589 329.8365,-253.1049 331.3019,-246.26"/>
</g>
<!-- Node12 -->
<g id="node16" class="node">
<title>Node12</title>
<g id="a_node16"><a xlink:href="d1/dfd/classo2_1_1its3_1_1V3Services.html" target="_top" xlink:title="This class defines the Geometry for the Services of the ITS Upgrade using TGeo. ">
<polygon fill="none" stroke="#000000" points="397,-228.5 397,-247.5 510,-247.5 510,-228.5 397,-228.5"/>
<text text-anchor="middle" x="453.5" y="-235.5" font-family="Helvetica,sans-Serif" font-size="10.00" fill="#000000">o2::its3::V3Services</text>
</a>
</g>
</g>
<!-- Node9&#45;&gt;Node12 -->
<g id="edge14" class="edge">
<title>Node9&#45;&gt;Node12</title>
<path fill="none" stroke="#191970" d="M349.3732,-238C365.2186,-238 381.7386,-238 396.8289,-238"/>
<polygon fill="#191970" stroke="#191970" points="349.0797,-234.5001 339.0796,-238 349.0796,-241.5001 349.0797,-234.5001"/>
</g>
<!-- Node14 -->
<g id="node18" class="node">
<title>Node14</title>
<g id="a_node18"><a xlink:href="d7/d2d/classo2_1_1its_1_1V1Layer.html" target="_top" xlink:title="o2::its::V1Layer">
<polygon fill="none" stroke="#000000" points="407.5,-190.5 407.5,-209.5 499.5,-209.5 499.5,-190.5 407.5,-190.5"/>
<text text-anchor="middle" x="453.5" y="-197.5" font-family="Helvetica,sans-Serif" font-size="10.00" fill="#000000">o2::its::V1Layer</text>
</a>
</g>
</g>
<!-- Node13&#45;&gt;Node14 -->
<g id="edge16" class="edge">
<title>Node13&#45;&gt;Node14</title>
<path fill="none" stroke="#191970" d="M346.3286,-200C366.7974,-200 388.6337,-200 407.2188,-200"/>
<polygon fill="#191970" stroke="#191970" points="346.0934,-196.5001 336.0934,-200 346.0934,-203.5001 346.0934,-196.5001"/>
</g>
<!-- Node15 -->
<g id="node19" class="node">
<title>Node15</title>
<g id="a_node19"><a xlink:href="d8/d07/classo2_1_1its_1_1V3Layer.html" target="_top" xlink:title="o2::its::V3Layer">
<polygon fill="none" stroke="#000000" points="407.5,-152.5 407.5,-171.5 499.5,-171.5 499.5,-152.5 407.5,-152.5"/>
<text text-anchor="middle" x="453.5" y="-159.5" font-family="Helvetica,sans-Serif" font-size="10.00" fill="#000000">o2::its::V3Layer</text>
</a>
</g>
</g>
<!-- Node13&#45;&gt;Node15 -->
<g id="edge17" class="edge">
<title>Node13&#45;&gt;Node15</title>
<path fill="none" stroke="#191970" d="M330.8969,-188.2474C355.9954,-182.8742 385.3428,-176.5914 409.0313,-171.5201"/>
<polygon fill="#191970" stroke="#191970" points="329.8365,-184.8951 320.7907,-190.411 331.3019,-191.74 329.8365,-184.8951"/>
</g>
<!-- Node16 -->
<g id="node20" class="node">
<title>Node16</title>
<g id="a_node20"><a xlink:href="de/d18/classo2_1_1its_1_1V3Services.html" target="_top" xlink:title="This class defines the Geometry for the Services of the ITS Upgrade using TGeo. ">
<polygon fill="none" stroke="#000000" points="400,-114.5 400,-133.5 507,-133.5 507,-114.5 400,-114.5"/>
<text text-anchor="middle" x="453.5" y="-121.5" font-family="Helvetica,sans-Serif" font-size="10.00" fill="#000000">o2::its::V3Services</text>
</a>
</g>
</g>
<!-- Node13&#45;&gt;Node16 -->
<g id="edge18" class="edge">
<title>Node13&#45;&gt;Node16</title>
<path fill="none" stroke="#191970" d="M345.8314,-188.0153C351.1112,-186.0255 356.2327,-183.7053 361,-181 381.2335,-169.5178 377.3937,-155.5231 397,-143 402.9306,-139.2119 409.6971,-136.0957 416.4369,-133.5617"/>
<polygon fill="#191970" stroke="#191970" points="344.5633,-184.749 336.199,-191.252 346.7931,-191.3844 344.5633,-184.749"/>
</g>
</g>
</svg>
