<?xml version="1.0" encoding="UTF-8" standalone="no"?>
<!DOCTYPE svg PUBLIC "-//W3C//DTD SVG 1.1//EN"
 "http://www.w3.org/Graphics/SVG/1.1/DTD/svg11.dtd">
<!-- Generated by graphviz version 2.40.1 (20161225.0304)
 -->
<!-- Title: o2::globaltracking::MatchITSTPCParams Pages: 1 -->
<svg width="705pt" height="1114pt"
 viewBox="0.00 0.00 705.00 1114.00" xmlns="http://www.w3.org/2000/svg" xmlns:xlink="http://www.w3.org/1999/xlink">
<g id="graph0" class="graph" transform="scale(1 1) rotate(0) translate(4 1110)">
<title>o2::globaltracking::MatchITSTPCParams</title>
<!-- Node4 -->
<g id="node1" class="node">
<title>Node4</title>
<polygon fill="#bfbfbf" stroke="#000000" points="320,-.5 320,-68.5 442,-68.5 442,-.5 320,-.5"/>
<text text-anchor="start" x="328" y="-56.5" font-family="Helvetica,sans-Serif" font-size="10.00" fill="#000000">o2::globaltracking</text>
<text text-anchor="middle" x="381" y="-45.5" font-family="Helvetica,sans-Serif" font-size="10.00" fill="#000000">::MatchITSTPCParams</text>
<polyline fill="none" stroke="#000000" points="320,-38.5 442,-38.5 "/>
<text text-anchor="middle" x="381" y="-26.5" font-family="Helvetica,sans-Serif" font-size="10.00" fill="#000000"> </text>
<polyline fill="none" stroke="#000000" points="320,-19.5 442,-19.5 "/>
<text text-anchor="start" x="328" y="-7.5" font-family="Helvetica,sans-Serif" font-size="10.00" fill="#000000">+ O2ParamDef()</text>
</g>
<!-- Node5 -->
<g id="node2" class="node">
<title>Node5</title>
<g id="a_node2"><a xlink:href="../../d7/d50/classo2_1_1conf_1_1ConfigurableParamHelper.html" target="_top" xlink:title="{o2::conf::ConfigurableParam\lHelper\&lt; MatchITSTPCParams \&gt;\n||+ getName()\l+ printKeyValues()\l+ output()\l+ getDataMembers()\l+ putKeyValues()\l+ initFrom()\l+ serializeTo()\l+ Instance()\l}">
<polygon fill="none" stroke="#000000" points="13,-193.5 13,-338.5 183,-338.5 183,-193.5 13,-193.5"/>
<text text-anchor="start" x="21" y="-326.5" font-family="Helvetica,sans-Serif" font-size="10.00" fill="#000000">o2::conf::ConfigurableParam</text>
<text text-anchor="middle" x="98" y="-315.5" font-family="Helvetica,sans-Serif" font-size="10.00" fill="#000000">Helper&lt; MatchITSTPCParams &gt;</text>
<polyline fill="none" stroke="#000000" points="13,-308.5 183,-308.5 "/>
<text text-anchor="middle" x="98" y="-296.5" font-family="Helvetica,sans-Serif" font-size="10.00" fill="#000000"> </text>
<polyline fill="none" stroke="#000000" points="13,-289.5 183,-289.5 "/>
<text text-anchor="start" x="21" y="-277.5" font-family="Helvetica,sans-Serif" font-size="10.00" fill="#000000">+ getName()</text>
<text text-anchor="start" x="21" y="-266.5" font-family="Helvetica,sans-Serif" font-size="10.00" fill="#000000">+ printKeyValues()</text>
<text text-anchor="start" x="21" y="-255.5" font-family="Helvetica,sans-Serif" font-size="10.00" fill="#000000">+ output()</text>
<text text-anchor="start" x="21" y="-244.5" font-family="Helvetica,sans-Serif" font-size="10.00" fill="#000000">+ getDataMembers()</text>
<text text-anchor="start" x="21" y="-233.5" font-family="Helvetica,sans-Serif" font-size="10.00" fill="#000000">+ putKeyValues()</text>
<text text-anchor="start" x="21" y="-222.5" font-family="Helvetica,sans-Serif" font-size="10.00" fill="#000000">+ initFrom()</text>
<text text-anchor="start" x="21" y="-211.5" font-family="Helvetica,sans-Serif" font-size="10.00" fill="#000000">+ serializeTo()</text>
<text text-anchor="start" x="21" y="-200.5" font-family="Helvetica,sans-Serif" font-size="10.00" fill="#000000">+ Instance()</text>
</a>
</g>
</g>
<!-- Node5&#45;&gt;Node4 -->
<g id="edge1" class="edge">
<title>Node5&#45;&gt;Node4</title>
<path fill="none" stroke="#191970" d="M132.1208,-184.3277C150.152,-149.9465 175.3942,-112.1596 208,-87 240.1801,-62.1689 284.0726,-49.0255 319.5931,-42.0992"/>
<polygon fill="none" stroke="#191970" points="128.8922,-182.9542 127.4595,-193.4517 135.1258,-186.1389 128.8922,-182.9542"/>
</g>
<!-- Node6 -->
<g id="node3" class="node">
<title>Node6</title>
<g id="a_node3"><a xlink:href="../../d6/d14/classo2_1_1conf_1_1ConfigurableParam.html" target="_top" xlink:title="{o2::conf::ConfigurableParam\n||+ getName()\l+ printKeyValues()\l+ toString()\l+ printAllRegisteredParamNames()\l+ printAllKeyValuePairs()\l+ readINI()\l+ readJSON()\l+ readConfigFile()\l+ writeJSON()\l+ writeINI()\l+ getValueAs()\l+ setValue()\l+ setValue()\l+ setEnumValue()\l+ setArrayValue()\l+ setValues()\l+ initialize()\l+ toCCDB()\l+ fromCCDB()\l+ updateFromString()\l+ updateFromFile()\l# ConfigurableParam()\l# ~ConfigurableParam()\l# putKeyValues()\l# output()\l# serializeTo()\l# initFrom()\l# setRegisterMode()\l# isInitialized()\l# initPropertyTree()\l# updateThroughStorageMap()\l# updateThroughStorageMapWith\lConversion()\l}">
<polygon fill="none" stroke="#000000" points="0,-569.5 0,-978.5 188,-978.5 188,-569.5 0,-569.5"/>
<text text-anchor="middle" x="94" y="-966.5" font-family="Helvetica,sans-Serif" font-size="10.00" fill="#000000">o2::conf::ConfigurableParam</text>
<polyline fill="none" stroke="#000000" points="0,-959.5 188,-959.5 "/>
<text text-anchor="middle" x="94" y="-947.5" font-family="Helvetica,sans-Serif" font-size="10.00" fill="#000000"> </text>
<polyline fill="none" stroke="#000000" points="0,-940.5 188,-940.5 "/>
<text text-anchor="start" x="8" y="-928.5" font-family="Helvetica,sans-Serif" font-size="10.00" fill="#000000">+ getName()</text>
<text text-anchor="start" x="8" y="-917.5" font-family="Helvetica,sans-Serif" font-size="10.00" fill="#000000">+ printKeyValues()</text>
<text text-anchor="start" x="8" y="-906.5" font-family="Helvetica,sans-Serif" font-size="10.00" fill="#000000">+ toString()</text>
<text text-anchor="start" x="8" y="-895.5" font-family="Helvetica,sans-Serif" font-size="10.00" fill="#000000">+ printAllRegisteredParamNames()</text>
<text text-anchor="start" x="8" y="-884.5" font-family="Helvetica,sans-Serif" font-size="10.00" fill="#000000">+ printAllKeyValuePairs()</text>
<text text-anchor="start" x="8" y="-873.5" font-family="Helvetica,sans-Serif" font-size="10.00" fill="#000000">+ readINI()</text>
<text text-anchor="start" x="8" y="-862.5" font-family="Helvetica,sans-Serif" font-size="10.00" fill="#000000">+ readJSON()</text>
<text text-anchor="start" x="8" y="-851.5" font-family="Helvetica,sans-Serif" font-size="10.00" fill="#000000">+ readConfigFile()</text>
<text text-anchor="start" x="8" y="-840.5" font-family="Helvetica,sans-Serif" font-size="10.00" fill="#000000">+ writeJSON()</text>
<text text-anchor="start" x="8" y="-829.5" font-family="Helvetica,sans-Serif" font-size="10.00" fill="#000000">+ writeINI()</text>
<text text-anchor="start" x="8" y="-818.5" font-family="Helvetica,sans-Serif" font-size="10.00" fill="#000000">+ getValueAs()</text>
<text text-anchor="start" x="8" y="-807.5" font-family="Helvetica,sans-Serif" font-size="10.00" fill="#000000">+ setValue()</text>
<text text-anchor="start" x="8" y="-796.5" font-family="Helvetica,sans-Serif" font-size="10.00" fill="#000000">+ setValue()</text>
<text text-anchor="start" x="8" y="-785.5" font-family="Helvetica,sans-Serif" font-size="10.00" fill="#000000">+ setEnumValue()</text>
<text text-anchor="start" x="8" y="-774.5" font-family="Helvetica,sans-Serif" font-size="10.00" fill="#000000">+ setArrayValue()</text>
<text text-anchor="start" x="8" y="-763.5" font-family="Helvetica,sans-Serif" font-size="10.00" fill="#000000">+ setValues()</text>
<text text-anchor="start" x="8" y="-752.5" font-family="Helvetica,sans-Serif" font-size="10.00" fill="#000000">+ initialize()</text>
<text text-anchor="start" x="8" y="-741.5" font-family="Helvetica,sans-Serif" font-size="10.00" fill="#000000">+ toCCDB()</text>
<text text-anchor="start" x="8" y="-730.5" font-family="Helvetica,sans-Serif" font-size="10.00" fill="#000000">+ fromCCDB()</text>
<text text-anchor="start" x="8" y="-719.5" font-family="Helvetica,sans-Serif" font-size="10.00" fill="#000000">+ updateFromString()</text>
<text text-anchor="start" x="8" y="-708.5" font-family="Helvetica,sans-Serif" font-size="10.00" fill="#000000">+ updateFromFile()</text>
<text text-anchor="start" x="8" y="-697.5" font-family="Helvetica,sans-Serif" font-size="10.00" fill="#000000"># ConfigurableParam()</text>
<text text-anchor="start" x="8" y="-686.5" font-family="Helvetica,sans-Serif" font-size="10.00" fill="#000000"># ~ConfigurableParam()</text>
<text text-anchor="start" x="8" y="-675.5" font-family="Helvetica,sans-Serif" font-size="10.00" fill="#000000"># putKeyValues()</text>
<text text-anchor="start" x="8" y="-664.5" font-family="Helvetica,sans-Serif" font-size="10.00" fill="#000000"># output()</text>
<text text-anchor="start" x="8" y="-653.5" font-family="Helvetica,sans-Serif" font-size="10.00" fill="#000000"># serializeTo()</text>
<text text-anchor="start" x="8" y="-642.5" font-family="Helvetica,sans-Serif" font-size="10.00" fill="#000000"># initFrom()</text>
<text text-anchor="start" x="8" y="-631.5" font-family="Helvetica,sans-Serif" font-size="10.00" fill="#000000"># setRegisterMode()</text>
<text text-anchor="start" x="8" y="-620.5" font-family="Helvetica,sans-Serif" font-size="10.00" fill="#000000"># isInitialized()</text>
<text text-anchor="start" x="8" y="-609.5" font-family="Helvetica,sans-Serif" font-size="10.00" fill="#000000"># initPropertyTree()</text>
<text text-anchor="start" x="8" y="-598.5" font-family="Helvetica,sans-Serif" font-size="10.00" fill="#000000"># updateThroughStorageMap()</text>
<text text-anchor="start" x="8" y="-587.5" font-family="Helvetica,sans-Serif" font-size="10.00" fill="#000000"># updateThroughStorageMapWith</text>
<text text-anchor="start" x="8" y="-576.5" font-family="Helvetica,sans-Serif" font-size="10.00" fill="#000000">Conversion()</text>
</a>
</g>
</g>
<!-- Node6&#45;&gt;Node5 -->
<g id="edge2" class="edge">
<title>Node6&#45;&gt;Node5</title>
<path fill="none" stroke="#191970" d="M95.692,-559.1214C96.3128,-480.2777 96.9742,-396.2813 97.4291,-338.5085"/>
<polygon fill="none" stroke="#191970" points="92.1915,-559.1798 95.6125,-569.2071 99.1913,-559.235 92.1915,-559.1798"/>
</g>
<!-- Node8 -->
<g id="node5" class="node">
<title>Node8</title>
<g id="a_node5"><a xlink:href="../../d7/d50/classo2_1_1conf_1_1ConfigurableParamHelper.html" target="_top" xlink:title="{o2::conf::ConfigurableParam\lHelper\&lt; P \&gt;\n||+ getName()\l+ printKeyValues()\l+ output()\l+ getDataMembers()\l+ putKeyValues()\l+ initFrom()\l+ serializeTo()\l+ Instance()\l}">
<polygon fill="none" stroke="#000000" points="110,-386.5 110,-531.5 264,-531.5 264,-386.5 110,-386.5"/>
<text text-anchor="start" x="118" y="-519.5" font-family="Helvetica,sans-Serif" font-size="10.00" fill="#000000">o2::conf::ConfigurableParam</text>
<text text-anchor="middle" x="187" y="-508.5" font-family="Helvetica,sans-Serif" font-size="10.00" fill="#000000">Helper&lt; P &gt;</text>
<polyline fill="none" stroke="#000000" points="110,-501.5 264,-501.5 "/>
<text text-anchor="middle" x="187" y="-489.5" font-family="Helvetica,sans-Serif" font-size="10.00" fill="#000000"> </text>
<polyline fill="none" stroke="#000000" points="110,-482.5 264,-482.5 "/>
<text text-anchor="start" x="118" y="-470.5" font-family="Helvetica,sans-Serif" font-size="10.00" fill="#000000">+ getName()</text>
<text text-anchor="start" x="118" y="-459.5" font-family="Helvetica,sans-Serif" font-size="10.00" fill="#000000">+ printKeyValues()</text>
<text text-anchor="start" x="118" y="-448.5" font-family="Helvetica,sans-Serif" font-size="10.00" fill="#000000">+ output()</text>
<text text-anchor="start" x="118" y="-437.5" font-family="Helvetica,sans-Serif" font-size="10.00" fill="#000000">+ getDataMembers()</text>
<text text-anchor="start" x="118" y="-426.5" font-family="Helvetica,sans-Serif" font-size="10.00" fill="#000000">+ putKeyValues()</text>
<text text-anchor="start" x="118" y="-415.5" font-family="Helvetica,sans-Serif" font-size="10.00" fill="#000000">+ initFrom()</text>
<text text-anchor="start" x="118" y="-404.5" font-family="Helvetica,sans-Serif" font-size="10.00" fill="#000000">+ serializeTo()</text>
<text text-anchor="start" x="118" y="-393.5" font-family="Helvetica,sans-Serif" font-size="10.00" fill="#000000">+ Instance()</text>
</a>
</g>
</g>
<!-- Node6&#45;&gt;Node8 -->
<g id="edge5" class="edge">
<title>Node6&#45;&gt;Node8</title>
<path fill="none" stroke="#191970" d="M157.3585,-559.3986C160.2132,-549.7297 162.9698,-540.3928 165.5764,-531.5639"/>
<polygon fill="none" stroke="#191970" points="153.948,-558.5899 154.4731,-569.1717 160.6615,-560.572 153.948,-558.5899"/>
</g>
<!-- Node7 -->
<g id="node4" class="node">
<title>Node7</title>
<polygon fill="none" stroke="#bfbfbf" points="72,-1048.5 72,-1105.5 116,-1105.5 116,-1048.5 72,-1048.5"/>
<text text-anchor="middle" x="94" y="-1093.5" font-family="Helvetica,sans-Serif" font-size="10.00" fill="#000000">static</text>
<polyline fill="none" stroke="#bfbfbf" points="72,-1086.5 116,-1086.5 "/>
<text text-anchor="middle" x="94" y="-1074.5" font-family="Helvetica,sans-Serif" font-size="10.00" fill="#000000"> </text>
<polyline fill="none" stroke="#bfbfbf" points="72,-1067.5 116,-1067.5 "/>
<text text-anchor="middle" x="94" y="-1055.5" font-family="Helvetica,sans-Serif" font-size="10.00" fill="#000000"> </text>
</g>
<!-- Node7&#45;&gt;Node6 -->
<g id="edge3" class="edge">
<title>Node7&#45;&gt;Node6</title>
<path fill="none" stroke="#404040" d="M94,-1048.4945C94,-1033.3148 94,-1013.1276 94,-990.5633"/>
<polygon fill="none" stroke="#404040" points="94.0001,-990.5608 90,-984.5608 94,-978.5608 98,-984.5608 94.0001,-990.5608"/>
<text text-anchor="middle" x="153" y="-1022" font-family="Helvetica,sans-Serif" font-size="10.00" fill="#000000"> #sEnumRegistry</text>
<text text-anchor="middle" x="153" y="-1011" font-family="Helvetica,sans-Serif" font-size="10.00" fill="#000000">#sValueProvenanceMap</text>
<text text-anchor="middle" x="153" y="-1000" font-family="Helvetica,sans-Serif" font-size="10.00" fill="#000000">#sKeyToStorageMap</text>
</g>
<!-- Node8&#45;&gt;Node5 -->
<g id="edge4" class="edge">
<title>Node8&#45;&gt;Node5</title>
<path fill="none" stroke="#ffa500" d="M149.2238,-377.0808C143.3315,-364.3031 137.2782,-351.1763 131.4901,-338.6245"/>
<polygon fill="#ffa500" stroke="#ffa500" points="146.1137,-378.6947 153.4797,-386.31 152.4704,-375.7633 146.1137,-378.6947"/>
<text text-anchor="middle" x="205.5" y="-360" font-family="Helvetica,sans-Serif" font-size="10.00" fill="#000000"> &lt; MatchITSTPCParams &gt;</text>
</g>
<!-- Node9 -->
<g id="node6" class="node">
<title>Node9</title>
<g id="a_node6"><a xlink:href="../../d4/dc3/classfloat.html" target="_top" xlink:title="{float\n||}">
<polygon fill="none" stroke="#000000" points="201,-237.5 201,-294.5 239,-294.5 239,-237.5 201,-237.5"/>
<text text-anchor="middle" x="220" y="-282.5" font-family="Helvetica,sans-Serif" font-size="10.00" fill="#000000">float</text>
<polyline fill="none" stroke="#000000" points="201,-275.5 239,-275.5 "/>
<text text-anchor="middle" x="220" y="-263.5" font-family="Helvetica,sans-Serif" font-size="10.00" fill="#000000"> </text>
<polyline fill="none" stroke="#000000" points="201,-256.5 239,-256.5 "/>
<text text-anchor="middle" x="220" y="-244.5" font-family="Helvetica,sans-Serif" font-size="10.00" fill="#000000"> </text>
</a>
</g>
</g>
<!-- Node9&#45;&gt;Node4 -->
<g id="edge6" class="edge">
<title>Node9&#45;&gt;Node4</title>
<path fill="none" stroke="#404040" d="M214.5118,-237.2017C208.9102,-198.7368 205.2251,-130.4102 239,-87 248.2972,-75.0504 277.985,-63.2236 307.8277,-53.8291"/>
<polygon fill="none" stroke="#404040" points="308.1933,-53.7178 312.7678,-48.1434 319.6728,-50.2219 315.0984,-55.7964 308.1933,-53.7178"/>
<text text-anchor="middle" x="308" y="-167" font-family="Helvetica,sans-Serif" font-size="10.00" fill="#000000"> +crudeAbsDiffCut</text>
<text text-anchor="middle" x="308" y="-156" font-family="Helvetica,sans-Serif" font-size="10.00" fill="#000000">+TPCITSTimeBinSafeMargin</text>
<text text-anchor="middle" x="308" y="-145" font-family="Helvetica,sans-Serif" font-size="10.00" fill="#000000">+cutABTrack2ClChi2</text>
<text text-anchor="middle" x="308" y="-134" font-family="Helvetica,sans-Serif" font-size="10.00" fill="#000000">+TimeBinTolerance</text>
<text text-anchor="middle" x="308" y="-123" font-family="Helvetica,sans-Serif" font-size="10.00" fill="#000000">+minTPCPt</text>
<text text-anchor="middle" x="308" y="-112" font-family="Helvetica,sans-Serif" font-size="10.00" fill="#000000">+crudeNSigma2Cut</text>
<text text-anchor="middle" x="308" y="-101" font-family="Helvetica,sans-Serif" font-size="10.00" fill="#000000">+TPCTimeEdgeZSafeMargin</text>
<text text-anchor="middle" x="308" y="-90" font-family="Helvetica,sans-Serif" font-size="10.00" fill="#000000">+cutMatchingChi2</text>
</g>
<!-- Node10 -->
<g id="node7" class="node">
<title>Node10</title>
<polygon fill="none" stroke="#bfbfbf" points="342.5,-237.5 342.5,-294.5 419.5,-294.5 419.5,-237.5 342.5,-237.5"/>
<text text-anchor="middle" x="381" y="-282.5" font-family="Helvetica,sans-Serif" font-size="10.00" fill="#000000">MatCorrType</text>
<polyline fill="none" stroke="#bfbfbf" points="342.5,-275.5 419.5,-275.5 "/>
<text text-anchor="middle" x="381" y="-263.5" font-family="Helvetica,sans-Serif" font-size="10.00" fill="#000000"> </text>
<polyline fill="none" stroke="#bfbfbf" points="342.5,-256.5 419.5,-256.5 "/>
<text text-anchor="middle" x="381" y="-244.5" font-family="Helvetica,sans-Serif" font-size="10.00" fill="#000000"> </text>
</g>
<!-- Node10&#45;&gt;Node4 -->
<g id="edge7" class="edge">
<title>Node10&#45;&gt;Node4</title>
<path fill="none" stroke="#404040" d="M381,-237.1484C381,-197.9559 381,-127.4401 381,-80.7975"/>
<polygon fill="none" stroke="#404040" points="381.0001,-80.6129 377,-74.613 381,-68.6129 385,-74.6129 381.0001,-80.6129"/>
<text text-anchor="middle" x="407" y="-128.5" font-family="Helvetica,sans-Serif" font-size="10.00" fill="#000000"> +matCorr</text>
</g>
<!-- Node11 -->
<g id="node8" class="node">
<title>Node11</title>
<polygon fill="none" stroke="#bfbfbf" points="441.5,-237.5 441.5,-294.5 470.5,-294.5 470.5,-237.5 441.5,-237.5"/>
<text text-anchor="middle" x="456" y="-282.5" font-family="Helvetica,sans-Serif" font-size="10.00" fill="#000000">int</text>
<polyline fill="none" stroke="#bfbfbf" points="441.5,-275.5 470.5,-275.5 "/>
<text text-anchor="middle" x="456" y="-263.5" font-family="Helvetica,sans-Serif" font-size="10.00" fill="#000000"> </text>
<polyline fill="none" stroke="#bfbfbf" points="441.5,-256.5 470.5,-256.5 "/>
<text text-anchor="middle" x="456" y="-244.5" font-family="Helvetica,sans-Serif" font-size="10.00" fill="#000000"> </text>
</g>
<!-- Node11&#45;&gt;Node4 -->
<g id="edge8" class="edge">
<title>Node11&#45;&gt;Node4</title>
<path fill="none" stroke="#404040" d="M458.0747,-237.4059C459.5302,-200.6511 457.9323,-135.7674 434,-87 432.5521,-84.0497 430.8706,-81.1684 429.0159,-78.3715"/>
<polygon fill="none" stroke="#404040" points="428.8926,-78.2086 422.0821,-75.8385 421.6505,-68.6404 428.461,-71.0104 428.8926,-78.2086"/>
<text text-anchor="middle" x="519" y="-145" font-family="Helvetica,sans-Serif" font-size="10.00" fill="#000000"> +minTPCClusters</text>
<text text-anchor="middle" x="519" y="-134" font-family="Helvetica,sans-Serif" font-size="10.00" fill="#000000">+ABRequireToReachLayer</text>
<text text-anchor="middle" x="519" y="-123" font-family="Helvetica,sans-Serif" font-size="10.00" fill="#000000">+maxMatchCandidates</text>
<text text-anchor="middle" x="519" y="-112" font-family="Helvetica,sans-Serif" font-size="10.00" fill="#000000">+askMinTPCRow</text>
</g>
<!-- Node12 -->
<g id="node9" class="node">
<title>Node12</title>
<polygon fill="none" stroke="#bfbfbf" points="586,-237.5 586,-294.5 624,-294.5 624,-237.5 586,-237.5"/>
<text text-anchor="middle" x="605" y="-282.5" font-family="Helvetica,sans-Serif" font-size="10.00" fill="#000000">bool</text>
<polyline fill="none" stroke="#bfbfbf" points="586,-275.5 624,-275.5 "/>
<text text-anchor="middle" x="605" y="-263.5" font-family="Helvetica,sans-Serif" font-size="10.00" fill="#000000"> </text>
<polyline fill="none" stroke="#bfbfbf" points="586,-256.5 624,-256.5 "/>
<text text-anchor="middle" x="605" y="-244.5" font-family="Helvetica,sans-Serif" font-size="10.00" fill="#000000"> </text>
</g>
<!-- Node12&#45;&gt;Node4 -->
<g id="edge9" class="edge">
<title>Node12&#45;&gt;Node4</title>
<path fill="none" stroke="#404040" d="M610.4406,-237.2914C616.0552,-198.2978 619.5178,-128.6861 583,-87 565.8968,-67.4762 504.6735,-53.3624 454.0682,-44.718"/>
<polygon fill="none" stroke="#404040" points="453.9695,-44.7018 447.3974,-47.6695 442.1302,-42.7444 448.7023,-39.7767 453.9695,-44.7018"/>
<text text-anchor="middle" x="655" y="-128.5" font-family="Helvetica,sans-Serif" font-size="10.00" fill="#000000"> +runAfterBurner</text>
</g>
</g>
</svg>
