<?xml version="1.0" encoding="UTF-8" standalone="no"?>
<!DOCTYPE svg PUBLIC "-//W3C//DTD SVG 1.1//EN"
 "http://www.w3.org/Graphics/SVG/1.1/DTD/svg11.dtd">
<!-- Generated by graphviz version 2.40.1 (20161225.0304)
 -->
<!-- Title: GPUCA_NAMESPACE::gpu::GPUSettingsDeviceProcessing Pages: 1 -->
<!--zoomable 1112 -->
<svg id="main" version="1.1" xmlns="http://www.w3.org/2000/svg" xmlns:xlink="http://www.w3.org/1999/xlink" xml:space="preserve" onload="init(evt)">
<style type="text/css"><![CDATA[
.edge:hover path { stroke: red; }
.edge:hover polygon { stroke: red; fill: red; }
]]></style>
<script type="text/javascript"><![CDATA[
var edges = document.getElementsByTagName('g');
if (edges && edges.length) {
  for (var i=0;i<edges.length;i++) {
    if (edges[i].id.substr(0,4)=='edge') {
      edges[i].setAttribute('class','edge');
    }
  }
}
]]></script>
        <defs>
                <circle id="rim" cx="0" cy="0" r="7"/>
                <circle id="rim2" cx="0" cy="0" r="3.5"/>
                <g id="zoomPlus">
                        <use xlink:href="#rim" fill="#404040">
                                <set attributeName="fill" to="#808080" begin="zoomplus.mouseover" end="zoomplus.mouseout"/>
                        </use>
                        <path d="M-4,0h8M0,-4v8" fill="none" stroke="white" stroke-width="1.5" pointer-events="none"/>
                </g>
                <g id="zoomMin">
                        <use xlink:href="#rim" fill="#404040">
                                <set attributeName="fill" to="#808080" begin="zoomminus.mouseover" end="zoomminus.mouseout"/>
                        </use>
                        <path d="M-4,0h8" fill="none" stroke="white" stroke-width="1.5" pointer-events="none"/>
                </g>
                <g id="dirArrow">
                        <path fill="none" stroke="white" stroke-width="1.5" d="M0,-3.0v7 M-2.5,-0.5L0,-3.0L2.5,-0.5"/>
                </g>
               <g id="resetDef">
                       <use xlink:href="#rim2" fill="#404040">
                               <set attributeName="fill" to="#808080" begin="reset.mouseover" end="reset.mouseout"/>
                       </use>
               </g>
        </defs>

<script type="text/javascript">
var viewWidth = 998;
var viewHeight = 1112;
var sectionId = 'dynsection-0';
</script>
<script xlink:href="../../svgpan.js"/>
<svg id="graph" class="graph">
<g id="viewport">
<title>GPUCA_NAMESPACE::gpu::GPUSettingsDeviceProcessing</title>
<!-- Node1 -->
<g id="node1" class="node">
<title>Node1</title>
<polygon fill="#bfbfbf" stroke="#000000" points="287.6773,-.5 287.6773,-178.5 472.6773,-178.5 472.6773,-.5 287.6773,-.5"/>
<text text-anchor="start" x="295.6773" y="-166.5" font-family="Helvetica,sans-Serif" font-size="10.00" fill="#000000">GPUCA_NAMESPACE::gpu</text>
<text text-anchor="middle" x="380.1773" y="-155.5" font-family="Helvetica,sans-Serif" font-size="10.00" fill="#000000">::GPUSettingsDeviceProcessing</text>
<polyline fill="none" stroke="#000000" points="287.6773,-148.5 472.6773,-148.5 "/>
<text text-anchor="start" x="295.6773" y="-136.5" font-family="Helvetica,sans-Serif" font-size="10.00" fill="#000000">+ gpuDeviceOnly</text>
<text text-anchor="start" x="295.6773" y="-125.5" font-family="Helvetica,sans-Serif" font-size="10.00" fill="#000000">+ debugLevel</text>
<text text-anchor="start" x="295.6773" y="-114.5" font-family="Helvetica,sans-Serif" font-size="10.00" fill="#000000">+ debugMask</text>
<text text-anchor="start" x="295.6773" y="-103.5" font-family="Helvetica,sans-Serif" font-size="10.00" fill="#000000">+ resetTimers</text>
<text text-anchor="start" x="295.6773" y="-92.5" font-family="Helvetica,sans-Serif" font-size="10.00" fill="#000000">+ runQA</text>
<text text-anchor="start" x="295.6773" y="-81.5" font-family="Helvetica,sans-Serif" font-size="10.00" fill="#000000">+ keepAllMemory</text>
<text text-anchor="start" x="295.6773" y="-70.5" font-family="Helvetica,sans-Serif" font-size="10.00" fill="#000000">+ registerStandaloneInputMemory</text>
<text text-anchor="start" x="295.6773" y="-59.5" font-family="Helvetica,sans-Serif" font-size="10.00" fill="#000000">+ delayedOutput</text>
<text text-anchor="start" x="295.6773" y="-48.5" font-family="Helvetica,sans-Serif" font-size="10.00" fill="#000000">+ tpccfGatherKernel</text>
<text text-anchor="start" x="295.6773" y="-37.5" font-family="Helvetica,sans-Serif" font-size="10.00" fill="#000000">+ doublePipeline</text>
<polyline fill="none" stroke="#000000" points="287.6773,-30.5 472.6773,-30.5 "/>
<text text-anchor="start" x="295.6773" y="-18.5" font-family="Helvetica,sans-Serif" font-size="10.00" fill="#000000">+ GPUSettingsDeviceProcessing()</text>
<text text-anchor="start" x="295.6773" y="-7.5" font-family="Helvetica,sans-Serif" font-size="10.00" fill="#000000">+ SetDefaults()</text>
</g>
<!-- Node2 -->
<g id="node2" class="node">
<title>Node2</title>
<g id="a_node2"><a xlink:href="../../d4/dc3/classfloat.html" target="_top" xlink:title="{float\n||}">
<polygon fill="none" stroke="#000000" points="145.1773,-975 145.1773,-1032 183.1773,-1032 183.1773,-975 145.1773,-975"/>
<text text-anchor="middle" x="164.1773" y="-1020" font-family="Helvetica,sans-Serif" font-size="10.00" fill="#000000">float</text>
<polyline fill="none" stroke="#000000" points="145.1773,-1013 183.1773,-1013 "/>
<text text-anchor="middle" x="164.1773" y="-1001" font-family="Helvetica,sans-Serif" font-size="10.00" fill="#000000"> </text>
<polyline fill="none" stroke="#000000" points="145.1773,-994 183.1773,-994 "/>
<text text-anchor="middle" x="164.1773" y="-982" font-family="Helvetica,sans-Serif" font-size="10.00" fill="#000000"> </text>
</a>
</g>
</g>
<!-- Node2&#45;&gt;Node1 -->
<g id="edge1" class="edge">
<title>Node2&#45;&gt;Node1</title>
<path fill="none" stroke="#404040" d="M146.766,-974.7142C119.9266,-928.4774 69.6188,-833.9155 51.1773,-746 7.746,-538.9506 -37.1295,-462.2437 51.1773,-270 91.4826,-182.2556 195.3934,-135.6099 275.7513,-111.8852"/>
<polygon fill="none" stroke="#404040" points="275.888,-111.8462 280.558,-106.3515 287.4261,-108.5489 282.7561,-114.0436 275.888,-111.8462"/>
<text text-anchor="middle" x="110.1773" y="-505.5" font-family="Helvetica,sans-Serif" font-size="10.00" fill="#000000"> +memoryScalingFactor</text>
</g>
<!-- Node7 -->
<g id="node7" class="node">
<title>Node7</title>
<g id="a_node7"><a xlink:href="../../d6/d42/classGPUCA__NAMESPACE_1_1gpu_1_1GPUDisplayBackend.html" target="_top" xlink:title="{GPUCA_NAMESPACE::gpu\l::GPUDisplayBackend\n|+ GL_MIN_VERSION_MAJOR\l+ GL_MIN_VERSION_MINOR\l# INIT_WIDTH\l# GL_WINDOW_NAME\l# KEY_LEFT\l# KEY_RIGHT\l# KEY_PAGEUP\l# KEY_PAGEDOWN\l# KEY_SHIFT\l# KEY_ALT\l# KEY_CTRL\l# KEY_F1\l# KEY_F2\l# KEY_F3\l# KEY_F10\l# KEY_F11\l# KEY_F12\l# KEY_HOME\l# KEY_END\l# KEY_INSERT\l# KEY_ESCAPE\l# KEY_ENTER\l|+ GPUDisplayBackend()\l+ ~GPUDisplayBackend()\l+ StartDisplay()\l+ DisplayExit()\l+ SwitchFullscreen()\l+ ToggleMaximized()\l+ SetVSync()\l+ EnableSendKey()\l+ OpenGLPrint()\l# OpenGLMain()\l# HandleKeyRelease()\l# DrawGLScene()\l# HandleSendKey()\l# ReSizeGLScene()\l# InitGL()\l# ExitGL()\l# OpenGLWrapper()\l}">
<polygon fill="none" stroke="#000000" points="612.1773,-270.5 612.1773,-745.5 764.1773,-745.5 764.1773,-270.5 612.1773,-270.5"/>
<text text-anchor="start" x="620.1773" y="-733.5" font-family="Helvetica,sans-Serif" font-size="10.00" fill="#000000">GPUCA_NAMESPACE::gpu</text>
<text text-anchor="middle" x="688.1773" y="-722.5" font-family="Helvetica,sans-Serif" font-size="10.00" fill="#000000">::GPUDisplayBackend</text>
<polyline fill="none" stroke="#000000" points="612.1773,-715.5 764.1773,-715.5 "/>
<text text-anchor="start" x="620.1773" y="-703.5" font-family="Helvetica,sans-Serif" font-size="10.00" fill="#000000">+ GL_MIN_VERSION_MAJOR</text>
<text text-anchor="start" x="620.1773" y="-692.5" font-family="Helvetica,sans-Serif" font-size="10.00" fill="#000000">+ GL_MIN_VERSION_MINOR</text>
<text text-anchor="start" x="620.1773" y="-681.5" font-family="Helvetica,sans-Serif" font-size="10.00" fill="#000000"># INIT_WIDTH</text>
<text text-anchor="start" x="620.1773" y="-670.5" font-family="Helvetica,sans-Serif" font-size="10.00" fill="#000000"># GL_WINDOW_NAME</text>
<text text-anchor="start" x="620.1773" y="-659.5" font-family="Helvetica,sans-Serif" font-size="10.00" fill="#000000"># KEY_LEFT</text>
<text text-anchor="start" x="620.1773" y="-648.5" font-family="Helvetica,sans-Serif" font-size="10.00" fill="#000000"># KEY_RIGHT</text>
<text text-anchor="start" x="620.1773" y="-637.5" font-family="Helvetica,sans-Serif" font-size="10.00" fill="#000000"># KEY_PAGEUP</text>
<text text-anchor="start" x="620.1773" y="-626.5" font-family="Helvetica,sans-Serif" font-size="10.00" fill="#000000"># KEY_PAGEDOWN</text>
<text text-anchor="start" x="620.1773" y="-615.5" font-family="Helvetica,sans-Serif" font-size="10.00" fill="#000000"># KEY_SHIFT</text>
<text text-anchor="start" x="620.1773" y="-604.5" font-family="Helvetica,sans-Serif" font-size="10.00" fill="#000000"># KEY_ALT</text>
<text text-anchor="start" x="620.1773" y="-593.5" font-family="Helvetica,sans-Serif" font-size="10.00" fill="#000000"># KEY_CTRL</text>
<text text-anchor="start" x="620.1773" y="-582.5" font-family="Helvetica,sans-Serif" font-size="10.00" fill="#000000"># KEY_F1</text>
<text text-anchor="start" x="620.1773" y="-571.5" font-family="Helvetica,sans-Serif" font-size="10.00" fill="#000000"># KEY_F2</text>
<text text-anchor="start" x="620.1773" y="-560.5" font-family="Helvetica,sans-Serif" font-size="10.00" fill="#000000"># KEY_F3</text>
<text text-anchor="start" x="620.1773" y="-549.5" font-family="Helvetica,sans-Serif" font-size="10.00" fill="#000000"># KEY_F10</text>
<text text-anchor="start" x="620.1773" y="-538.5" font-family="Helvetica,sans-Serif" font-size="10.00" fill="#000000"># KEY_F11</text>
<text text-anchor="start" x="620.1773" y="-527.5" font-family="Helvetica,sans-Serif" font-size="10.00" fill="#000000"># KEY_F12</text>
<text text-anchor="start" x="620.1773" y="-516.5" font-family="Helvetica,sans-Serif" font-size="10.00" fill="#000000"># KEY_HOME</text>
<text text-anchor="start" x="620.1773" y="-505.5" font-family="Helvetica,sans-Serif" font-size="10.00" fill="#000000"># KEY_END</text>
<text text-anchor="start" x="620.1773" y="-494.5" font-family="Helvetica,sans-Serif" font-size="10.00" fill="#000000"># KEY_INSERT</text>
<text text-anchor="start" x="620.1773" y="-483.5" font-family="Helvetica,sans-Serif" font-size="10.00" fill="#000000"># KEY_ESCAPE</text>
<text text-anchor="start" x="620.1773" y="-472.5" font-family="Helvetica,sans-Serif" font-size="10.00" fill="#000000"># KEY_ENTER</text>
<polyline fill="none" stroke="#000000" points="612.1773,-465.5 764.1773,-465.5 "/>
<text text-anchor="start" x="620.1773" y="-453.5" font-family="Helvetica,sans-Serif" font-size="10.00" fill="#000000">+ GPUDisplayBackend()</text>
<text text-anchor="start" x="620.1773" y="-442.5" font-family="Helvetica,sans-Serif" font-size="10.00" fill="#000000">+ ~GPUDisplayBackend()</text>
<text text-anchor="start" x="620.1773" y="-431.5" font-family="Helvetica,sans-Serif" font-size="10.00" fill="#000000">+ StartDisplay()</text>
<text text-anchor="start" x="620.1773" y="-420.5" font-family="Helvetica,sans-Serif" font-size="10.00" fill="#000000">+ DisplayExit()</text>
<text text-anchor="start" x="620.1773" y="-409.5" font-family="Helvetica,sans-Serif" font-size="10.00" fill="#000000">+ SwitchFullscreen()</text>
<text text-anchor="start" x="620.1773" y="-398.5" font-family="Helvetica,sans-Serif" font-size="10.00" fill="#000000">+ ToggleMaximized()</text>
<text text-anchor="start" x="620.1773" y="-387.5" font-family="Helvetica,sans-Serif" font-size="10.00" fill="#000000">+ SetVSync()</text>
<text text-anchor="start" x="620.1773" y="-376.5" font-family="Helvetica,sans-Serif" font-size="10.00" fill="#000000">+ EnableSendKey()</text>
<text text-anchor="start" x="620.1773" y="-365.5" font-family="Helvetica,sans-Serif" font-size="10.00" fill="#000000">+ OpenGLPrint()</text>
<text text-anchor="start" x="620.1773" y="-354.5" font-family="Helvetica,sans-Serif" font-size="10.00" fill="#000000"># OpenGLMain()</text>
<text text-anchor="start" x="620.1773" y="-343.5" font-family="Helvetica,sans-Serif" font-size="10.00" fill="#000000"># HandleKeyRelease()</text>
<text text-anchor="start" x="620.1773" y="-332.5" font-family="Helvetica,sans-Serif" font-size="10.00" fill="#000000"># DrawGLScene()</text>
<text text-anchor="start" x="620.1773" y="-321.5" font-family="Helvetica,sans-Serif" font-size="10.00" fill="#000000"># HandleSendKey()</text>
<text text-anchor="start" x="620.1773" y="-310.5" font-family="Helvetica,sans-Serif" font-size="10.00" fill="#000000"># ReSizeGLScene()</text>
<text text-anchor="start" x="620.1773" y="-299.5" font-family="Helvetica,sans-Serif" font-size="10.00" fill="#000000"># InitGL()</text>
<text text-anchor="start" x="620.1773" y="-288.5" font-family="Helvetica,sans-Serif" font-size="10.00" fill="#000000"># ExitGL()</text>
<text text-anchor="start" x="620.1773" y="-277.5" font-family="Helvetica,sans-Serif" font-size="10.00" fill="#000000"># OpenGLWrapper()</text>
</a>
</g>
</g>
<!-- Node2&#45;&gt;Node7 -->
<g id="edge7" class="edge">
<title>Node2&#45;&gt;Node7</title>
<path fill="none" stroke="#404040" d="M181.4394,-974.6303C214.6772,-922.0431 293.1167,-811.6777 392.1773,-764 433.5833,-744.0714 561.5459,-773.7442 598.1773,-746 599.8721,-744.7164 601.5349,-743.397 603.1663,-742.0436"/>
<polygon fill="none" stroke="#404040" points="603.2556,-741.9632 605.0369,-734.9756 612.1722,-733.9323 610.3909,-740.9199 603.2556,-741.9632"/>
<text text-anchor="middle" x="428.6773" y="-838.5" font-family="Helvetica,sans-Serif" font-size="10.00" fill="#000000"> #mMouseDnX</text>
<text text-anchor="middle" x="428.6773" y="-827.5" font-family="Helvetica,sans-Serif" font-size="10.00" fill="#000000">#mMouseDnY</text>
<text text-anchor="middle" x="428.6773" y="-816.5" font-family="Helvetica,sans-Serif" font-size="10.00" fill="#000000">#mouseMvX</text>
<text text-anchor="middle" x="428.6773" y="-805.5" font-family="Helvetica,sans-Serif" font-size="10.00" fill="#000000">#mouseMvY</text>
</g>
<!-- Node3 -->
<g id="node3" class="node">
<title>Node3</title>
<polygon fill="none" stroke="#bfbfbf" points="178.1773,-479.5 178.1773,-536.5 216.1773,-536.5 216.1773,-479.5 178.1773,-479.5"/>
<text text-anchor="middle" x="197.1773" y="-524.5" font-family="Helvetica,sans-Serif" font-size="10.00" fill="#000000">char</text>
<polyline fill="none" stroke="#bfbfbf" points="178.1773,-517.5 216.1773,-517.5 "/>
<text text-anchor="middle" x="197.1773" y="-505.5" font-family="Helvetica,sans-Serif" font-size="10.00" fill="#000000"> </text>
<polyline fill="none" stroke="#bfbfbf" points="178.1773,-498.5 216.1773,-498.5 "/>
<text text-anchor="middle" x="197.1773" y="-486.5" font-family="Helvetica,sans-Serif" font-size="10.00" fill="#000000"> </text>
</g>
<!-- Node3&#45;&gt;Node1 -->
<g id="edge2" class="edge">
<title>Node3&#45;&gt;Node1</title>
<path fill="none" stroke="#404040" d="M198.1752,-479.1469C198.7012,-432.9406 195.2969,-340.3917 164.1773,-270 159.9667,-260.4756 152.7224,-261.7917 149.1773,-252 140.8558,-229.0156 136.0354,-217.6112 149.1773,-197 177.2988,-152.8957 228.7281,-126.5995 275.9327,-111.0701"/>
<polygon fill="none" stroke="#404040" points="276.0561,-111.0315 280.5861,-105.4208 287.5075,-107.4444 282.9775,-113.055 276.0561,-111.0315"/>
<text text-anchor="middle" x="224.6773" y="-244" font-family="Helvetica,sans-Serif" font-size="10.00" fill="#000000"> +mergerSortTracks</text>
<text text-anchor="middle" x="224.6773" y="-233" font-family="Helvetica,sans-Serif" font-size="10.00" fill="#000000">+trackletSelectorInPipeline</text>
<text text-anchor="middle" x="224.6773" y="-222" font-family="Helvetica,sans-Serif" font-size="10.00" fill="#000000">+trackletSelectorSlices</text>
<text text-anchor="middle" x="224.6773" y="-211" font-family="Helvetica,sans-Serif" font-size="10.00" fill="#000000">+alternateBorderSort</text>
<text text-anchor="middle" x="224.6773" y="-200" font-family="Helvetica,sans-Serif" font-size="10.00" fill="#000000">+trackletConstructorInPipeline</text>
</g>
<!-- Node4 -->
<g id="node4" class="node">
<title>Node4</title>
<polygon fill="none" stroke="#bfbfbf" points="291.6773,-479.5 291.6773,-536.5 336.6773,-536.5 336.6773,-479.5 291.6773,-479.5"/>
<text text-anchor="middle" x="314.1773" y="-524.5" font-family="Helvetica,sans-Serif" font-size="10.00" fill="#000000">size_t</text>
<polyline fill="none" stroke="#bfbfbf" points="291.6773,-517.5 336.6773,-517.5 "/>
<text text-anchor="middle" x="314.1773" y="-505.5" font-family="Helvetica,sans-Serif" font-size="10.00" fill="#000000"> </text>
<polyline fill="none" stroke="#bfbfbf" points="291.6773,-498.5 336.6773,-498.5 "/>
<text text-anchor="middle" x="314.1773" y="-486.5" font-family="Helvetica,sans-Serif" font-size="10.00" fill="#000000"> </text>
</g>
<!-- Node4&#45;&gt;Node1 -->
<g id="edge3" class="edge">
<title>Node4&#45;&gt;Node1</title>
<path fill="none" stroke="#404040" d="M309.2806,-479.4276C300.8258,-423.7993 286.9554,-297.5932 315.1773,-197 315.818,-194.7164 316.5216,-192.4328 317.2815,-190.1533"/>
<polygon fill="none" stroke="#404040" points="317.3199,-190.0504 315.6734,-183.0297 321.5207,-178.8096 323.1672,-185.8303 317.3199,-190.0504"/>
<text text-anchor="middle" x="374.1773" y="-222" font-family="Helvetica,sans-Serif" font-size="10.00" fill="#000000"> +forceMemoryPoolSize</text>
</g>
<!-- Node5 -->
<g id="node5" class="node">
<title>Node5</title>
<polygon fill="none" stroke="#bfbfbf" points="442.6773,-975 442.6773,-1032 471.6773,-1032 471.6773,-975 442.6773,-975"/>
<text text-anchor="middle" x="457.1773" y="-1020" font-family="Helvetica,sans-Serif" font-size="10.00" fill="#000000">int</text>
<polyline fill="none" stroke="#bfbfbf" points="442.6773,-1013 471.6773,-1013 "/>
<text text-anchor="middle" x="457.1773" y="-1001" font-family="Helvetica,sans-Serif" font-size="10.00" fill="#000000"> </text>
<polyline fill="none" stroke="#bfbfbf" points="442.6773,-994 471.6773,-994 "/>
<text text-anchor="middle" x="457.1773" y="-982" font-family="Helvetica,sans-Serif" font-size="10.00" fill="#000000"> </text>
</g>
<!-- Node5&#45;&gt;Node1 -->
<g id="edge4" class="edge">
<title>Node5&#45;&gt;Node1</title>
<path fill="none" stroke="#404040" d="M457.0462,-974.6999C456.3343,-839.7766 452.2265,-273.5475 433.1773,-197 432.6356,-194.823 432.0455,-192.6387 431.412,-190.4516"/>
<polygon fill="none" stroke="#404040" points="431.3228,-190.1747 425.6743,-185.6919 427.6398,-178.7538 433.2882,-183.2366 431.3228,-190.1747"/>
<text text-anchor="middle" x="527.6773" y="-560.5" font-family="Helvetica,sans-Serif" font-size="10.00" fill="#000000"> +platformNum</text>
<text text-anchor="middle" x="527.6773" y="-549.5" font-family="Helvetica,sans-Serif" font-size="10.00" fill="#000000">+nStreams</text>
<text text-anchor="middle" x="527.6773" y="-538.5" font-family="Helvetica,sans-Serif" font-size="10.00" fill="#000000">+memoryAllocationStrategy</text>
<text text-anchor="middle" x="527.6773" y="-527.5" font-family="Helvetica,sans-Serif" font-size="10.00" fill="#000000">+allocDebugLevel</text>
<text text-anchor="middle" x="527.6773" y="-516.5" font-family="Helvetica,sans-Serif" font-size="10.00" fill="#000000">+deviceNum</text>
<text text-anchor="middle" x="527.6773" y="-505.5" font-family="Helvetica,sans-Serif" font-size="10.00" fill="#000000">+tpcCompressionGatherMode</text>
<text text-anchor="middle" x="527.6773" y="-494.5" font-family="Helvetica,sans-Serif" font-size="10.00" fill="#000000">+nDeviceHelperThreads</text>
<text text-anchor="middle" x="527.6773" y="-483.5" font-family="Helvetica,sans-Serif" font-size="10.00" fill="#000000">+nThreads</text>
<text text-anchor="middle" x="527.6773" y="-472.5" font-family="Helvetica,sans-Serif" font-size="10.00" fill="#000000">+stuckProtection</text>
<text text-anchor="middle" x="527.6773" y="-461.5" font-family="Helvetica,sans-Serif" font-size="10.00" fill="#000000">+nTPCClustererLanes</text>
<text text-anchor="middle" x="527.6773" y="-450.5" font-family="Helvetica,sans-Serif" font-size="10.00" fill="#000000">...</text>
</g>
<!-- Node5&#45;&gt;Node7 -->
<g id="edge9" class="edge">
<title>Node5&#45;&gt;Node7</title>
<path fill="none" stroke="#404040" d="M459.29,-974.5868C464.0678,-917.4788 477.6637,-793.2045 507.1773,-764 536.4831,-735.0013 566.7049,-772.6315 598.1773,-746 600.011,-744.4484 601.8073,-742.8553 603.5672,-741.2233"/>
<polygon fill="none" stroke="#404040" points="603.5679,-741.2226 604.9922,-734.1535 612.0653,-732.7494 610.641,-739.8185 603.5679,-741.2226"/>
<text text-anchor="middle" x="552.6773" y="-855" font-family="Helvetica,sans-Serif" font-size="10.00" fill="#000000"> #mMouseWheel</text>
<text text-anchor="middle" x="552.6773" y="-844" font-family="Helvetica,sans-Serif" font-size="10.00" fill="#000000">#mDisplayHeight</text>
<text text-anchor="middle" x="552.6773" y="-833" font-family="Helvetica,sans-Serif" font-size="10.00" fill="#000000">+mSendKey</text>
<text text-anchor="middle" x="552.6773" y="-822" font-family="Helvetica,sans-Serif" font-size="10.00" fill="#000000">#mMaxFPSRate</text>
<text text-anchor="middle" x="552.6773" y="-811" font-family="Helvetica,sans-Serif" font-size="10.00" fill="#000000">+mNeedUpdate</text>
<text text-anchor="middle" x="552.6773" y="-800" font-family="Helvetica,sans-Serif" font-size="10.00" fill="#000000">+mDisplayControl</text>
<text text-anchor="middle" x="552.6773" y="-789" font-family="Helvetica,sans-Serif" font-size="10.00" fill="#000000">#mDisplayWidth</text>
</g>
<!-- Node6 -->
<g id="node6" class="node">
<title>Node6</title>
<polygon fill="none" stroke="#bfbfbf" points="807.1773,-975 807.1773,-1032 845.1773,-1032 845.1773,-975 807.1773,-975"/>
<text text-anchor="middle" x="826.1773" y="-1020" font-family="Helvetica,sans-Serif" font-size="10.00" fill="#000000">bool</text>
<polyline fill="none" stroke="#bfbfbf" points="807.1773,-1013 845.1773,-1013 "/>
<text text-anchor="middle" x="826.1773" y="-1001" font-family="Helvetica,sans-Serif" font-size="10.00" fill="#000000"> </text>
<polyline fill="none" stroke="#bfbfbf" points="807.1773,-994 845.1773,-994 "/>
<text text-anchor="middle" x="826.1773" y="-982" font-family="Helvetica,sans-Serif" font-size="10.00" fill="#000000"> </text>
</g>
<!-- Node6&#45;&gt;Node1 -->
<g id="edge5" class="edge">
<title>Node6&#45;&gt;Node1</title>
<path fill="none" stroke="#404040" d="M835.6165,-974.6651C842.8734,-950.9036 852.2934,-916.1674 856.1773,-885 862.8275,-831.635 860.6481,-817.5916 856.1773,-764 837.6688,-542.1377 893.9857,-457.0047 773.1773,-270 709.7851,-171.8723 578.2723,-126.3483 484.8633,-105.7333"/>
<polygon fill="none" stroke="#404040" points="484.8314,-105.7266 478.1288,-108.3866 473.0955,-103.2227 479.798,-100.5627 484.8314,-105.7266"/>
<text text-anchor="middle" x="922.1773" y="-560.5" font-family="Helvetica,sans-Serif" font-size="10.00" fill="#000000"> +runCompressionStatistics</text>
<text text-anchor="middle" x="922.1773" y="-549.5" font-family="Helvetica,sans-Serif" font-size="10.00" fill="#000000">+comparableDebutOutput</text>
<text text-anchor="middle" x="922.1773" y="-538.5" font-family="Helvetica,sans-Serif" font-size="10.00" fill="#000000">+runMC</text>
<text text-anchor="middle" x="922.1773" y="-527.5" font-family="Helvetica,sans-Serif" font-size="10.00" fill="#000000">+deviceTimers</text>
<text text-anchor="middle" x="922.1773" y="-516.5" font-family="Helvetica,sans-Serif" font-size="10.00" fill="#000000">+disableMemoryReuse</text>
<text text-anchor="middle" x="922.1773" y="-505.5" font-family="Helvetica,sans-Serif" font-size="10.00" fill="#000000">+globalInitMutex</text>
<text text-anchor="middle" x="922.1773" y="-494.5" font-family="Helvetica,sans-Serif" font-size="10.00" fill="#000000">+keepDisplayMemory</text>
<text text-anchor="middle" x="922.1773" y="-483.5" font-family="Helvetica,sans-Serif" font-size="10.00" fill="#000000">+prefetchTPCpageScan</text>
<text text-anchor="middle" x="922.1773" y="-472.5" font-family="Helvetica,sans-Serif" font-size="10.00" fill="#000000">+fullMergerOnGPU</text>
<text text-anchor="middle" x="922.1773" y="-461.5" font-family="Helvetica,sans-Serif" font-size="10.00" fill="#000000">+ompKernels</text>
<text text-anchor="middle" x="922.1773" y="-450.5" font-family="Helvetica,sans-Serif" font-size="10.00" fill="#000000">...</text>
</g>
<!-- Node6&#45;&gt;Node7 -->
<g id="edge10" class="edge">
<title>Node6&#45;&gt;Node7</title>
<path fill="none" stroke="#404040" d="M814.2545,-974.701C804.7853,-950.9602 791.7535,-916.2346 783.1773,-885 768.6835,-832.2129 772.7105,-817.2866 760.1773,-764 759.6645,-761.8196 759.1452,-759.6299 758.62,-757.432"/>
<polygon fill="none" stroke="#404040" points="758.5807,-757.2696 753.2809,-752.3797 755.7563,-745.6068 761.0562,-750.4967 758.5807,-757.2696"/>
<text text-anchor="middle" x="819.6773" y="-838.5" font-family="Helvetica,sans-Serif" font-size="10.00" fill="#000000"> #mMouseDnR</text>
<text text-anchor="middle" x="819.6773" y="-827.5" font-family="Helvetica,sans-Serif" font-size="10.00" fill="#000000">#mMouseDn</text>
<text text-anchor="middle" x="819.6773" y="-816.5" font-family="Helvetica,sans-Serif" font-size="10.00" fill="#000000">#mKeys</text>
<text text-anchor="middle" x="819.6773" y="-805.5" font-family="Helvetica,sans-Serif" font-size="10.00" fill="#000000">#mKeysShift</text>
</g>
<!-- Node7&#45;&gt;Node1 -->
<g id="edge6" class="edge">
<title>Node7&#45;&gt;Node1</title>
<path fill="none" stroke="#404040" d="M612.1369,-291.2979C607.7075,-283.9558 603.0567,-276.8293 598.1773,-270 567.0382,-226.417 522.8897,-187.2221 482.4574,-156.5808"/>
<polygon fill="none" stroke="#404040" points="482.4282,-156.559 475.2273,-156.1736 472.8135,-149.3785 480.0143,-149.7639 482.4282,-156.559"/>
<text text-anchor="middle" x="622.1773" y="-222" font-family="Helvetica,sans-Serif" font-size="10.00" fill="#000000"> +eventDisplay</text>
</g>
<!-- Node8 -->
<g id="node8" class="node">
<title>Node8</title>
<g id="a_node8"><a xlink:href="../../d9/dda/classGPUCA__NAMESPACE_1_1gpu_1_1GPUDisplay.html" target="_top" xlink:title="{GPUCA_NAMESPACE::gpu\l::GPUDisplay\n||+ GPUDisplay()\l+ ~GPUDisplay()\l+ GPUDisplay()\l+ StartDisplay()\l+ ShowNextEvent()\l+ WaitForNextEvent()\l+ SetCollisionFirstCluster()\l+ HandleKeyRelease()\l+ DrawGLScene()\l+ HandleSendKey()\l+ InitGL()\l+ ExitGL()\l+ ReSizeGLScene()\l}">
<polygon fill="none" stroke="#000000" points="510.1773,-903.5 510.1773,-1103.5 658.1773,-1103.5 658.1773,-903.5 510.1773,-903.5"/>
<text text-anchor="start" x="518.1773" y="-1091.5" font-family="Helvetica,sans-Serif" font-size="10.00" fill="#000000">GPUCA_NAMESPACE::gpu</text>
<text text-anchor="middle" x="584.1773" y="-1080.5" font-family="Helvetica,sans-Serif" font-size="10.00" fill="#000000">::GPUDisplay</text>
<polyline fill="none" stroke="#000000" points="510.1773,-1073.5 658.1773,-1073.5 "/>
<text text-anchor="middle" x="584.1773" y="-1061.5" font-family="Helvetica,sans-Serif" font-size="10.00" fill="#000000"> </text>
<polyline fill="none" stroke="#000000" points="510.1773,-1054.5 658.1773,-1054.5 "/>
<text text-anchor="start" x="518.1773" y="-1042.5" font-family="Helvetica,sans-Serif" font-size="10.00" fill="#000000">+ GPUDisplay()</text>
<text text-anchor="start" x="518.1773" y="-1031.5" font-family="Helvetica,sans-Serif" font-size="10.00" fill="#000000">+ ~GPUDisplay()</text>
<text text-anchor="start" x="518.1773" y="-1020.5" font-family="Helvetica,sans-Serif" font-size="10.00" fill="#000000">+ GPUDisplay()</text>
<text text-anchor="start" x="518.1773" y="-1009.5" font-family="Helvetica,sans-Serif" font-size="10.00" fill="#000000">+ StartDisplay()</text>
<text text-anchor="start" x="518.1773" y="-998.5" font-family="Helvetica,sans-Serif" font-size="10.00" fill="#000000">+ ShowNextEvent()</text>
<text text-anchor="start" x="518.1773" y="-987.5" font-family="Helvetica,sans-Serif" font-size="10.00" fill="#000000">+ WaitForNextEvent()</text>
<text text-anchor="start" x="518.1773" y="-976.5" font-family="Helvetica,sans-Serif" font-size="10.00" fill="#000000">+ SetCollisionFirstCluster()</text>
<text text-anchor="start" x="518.1773" y="-965.5" font-family="Helvetica,sans-Serif" font-size="10.00" fill="#000000">+ HandleKeyRelease()</text>
<text text-anchor="start" x="518.1773" y="-954.5" font-family="Helvetica,sans-Serif" font-size="10.00" fill="#000000">+ DrawGLScene()</text>
<text text-anchor="start" x="518.1773" y="-943.5" font-family="Helvetica,sans-Serif" font-size="10.00" fill="#000000">+ HandleSendKey()</text>
<text text-anchor="start" x="518.1773" y="-932.5" font-family="Helvetica,sans-Serif" font-size="10.00" fill="#000000">+ InitGL()</text>
<text text-anchor="start" x="518.1773" y="-921.5" font-family="Helvetica,sans-Serif" font-size="10.00" fill="#000000">+ ExitGL()</text>
<text text-anchor="start" x="518.1773" y="-910.5" font-family="Helvetica,sans-Serif" font-size="10.00" fill="#000000">+ ReSizeGLScene()</text>
</a>
</g>
</g>
<!-- Node8&#45;&gt;Node7 -->
<g id="edge8" class="edge">
<title>Node8&#45;&gt;Node7</title>
<path fill="none" stroke="#404040" d="M599.1002,-903.2476C605.9733,-860.2316 614.7056,-809.5014 624.1773,-764 624.6303,-761.824 625.0891,-759.6386 625.5533,-757.4448"/>
<polygon fill="none" stroke="#404040" points="625.5686,-757.3731 622.916,-750.6676 628.0854,-745.64 630.738,-752.3455 625.5686,-757.3731"/>
<text text-anchor="middle" x="653.1773" y="-822" font-family="Helvetica,sans-Serif" font-size="10.00" fill="#000000"> #mDisplay</text>
</g>
<!-- Node9 -->
<g id="node9" class="node">
<title>Node9</title>
<polygon fill="none" stroke="#bfbfbf" points="676.1773,-975 676.1773,-1032 720.1773,-1032 720.1773,-975 676.1773,-975"/>
<text text-anchor="middle" x="698.1773" y="-1020" font-family="Helvetica,sans-Serif" font-size="10.00" fill="#000000">static</text>
<polyline fill="none" stroke="#bfbfbf" points="676.1773,-1013 720.1773,-1013 "/>
<text text-anchor="middle" x="698.1773" y="-1001" font-family="Helvetica,sans-Serif" font-size="10.00" fill="#000000"> </text>
<polyline fill="none" stroke="#bfbfbf" points="676.1773,-994 720.1773,-994 "/>
<text text-anchor="middle" x="698.1773" y="-982" font-family="Helvetica,sans-Serif" font-size="10.00" fill="#000000"> </text>
</g>
<!-- Node9&#45;&gt;Node7 -->
<g id="edge11" class="edge">
<title>Node9&#45;&gt;Node7</title>
<path fill="none" stroke="#404040" d="M695.4067,-974.7995C693.234,-950.8217 690.383,-915.7183 689.1773,-885 687.5648,-843.9139 686.6834,-800.2899 686.2715,-757.8476"/>
<polygon fill="none" stroke="#404040" points="686.2696,-757.6143 682.2176,-751.6492 686.1653,-745.6147 690.2173,-751.5797 686.2696,-757.6143"/>
<text text-anchor="middle" x="724.6773" y="-877" font-family="Helvetica,sans-Serif" font-size="10.00" fill="#000000"> #KEY_F4</text>
<text text-anchor="middle" x="724.6773" y="-866" font-family="Helvetica,sans-Serif" font-size="10.00" fill="#000000">#KEY_DOWN</text>
<text text-anchor="middle" x="724.6773" y="-855" font-family="Helvetica,sans-Serif" font-size="10.00" fill="#000000">#KEY_UP</text>
<text text-anchor="middle" x="724.6773" y="-844" font-family="Helvetica,sans-Serif" font-size="10.00" fill="#000000">#KEY_F5</text>
<text text-anchor="middle" x="724.6773" y="-833" font-family="Helvetica,sans-Serif" font-size="10.00" fill="#000000">#INIT_HEIGHT</text>
<text text-anchor="middle" x="724.6773" y="-822" font-family="Helvetica,sans-Serif" font-size="10.00" fill="#000000">#KEY_F6</text>
<text text-anchor="middle" x="724.6773" y="-811" font-family="Helvetica,sans-Serif" font-size="10.00" fill="#000000">#KEY_F7</text>
<text text-anchor="middle" x="724.6773" y="-800" font-family="Helvetica,sans-Serif" font-size="10.00" fill="#000000">#KEY_SPACE</text>
<text text-anchor="middle" x="724.6773" y="-789" font-family="Helvetica,sans-Serif" font-size="10.00" fill="#000000">#KEY_F8</text>
<text text-anchor="middle" x="724.6773" y="-778" font-family="Helvetica,sans-Serif" font-size="10.00" fill="#000000">#KEY_F9</text>
<text text-anchor="middle" x="724.6773" y="-767" font-family="Helvetica,sans-Serif" font-size="10.00" fill="#000000">...</text>
</g>
</g>
</svg>
        <g id="navigator" transform="translate(0 0)" fill="#404254">
                <rect fill="#f2f5e9" fill-opacity="0.5" stroke="#606060" stroke-width=".5" x="0" y="0" width="60" height="60"/>
                <use id="zoomplus" xlink:href="#zoomPlus" x="17" y="9" onmousedown="handleZoom(evt,'in')"/>
                <use id="zoomminus" xlink:href="#zoomMin" x="42" y="9" onmousedown="handleZoom(evt,'out')"/>
                <use id="reset" xlink:href="#resetDef" x="30" y="36" onmousedown="handleReset()"/>
                <g id="arrowUp" xlink:href="#dirArrow" transform="translate(30 24)" onmousedown="handlePan(0,-1)">
                  <use xlink:href="#rim" fill="#404040">
                        <set attributeName="fill" to="#808080" begin="arrowUp.mouseover" end="arrowUp.mouseout"/>
                  </use>
                  <path fill="none" stroke="white" stroke-width="1.5" d="M0,-3.0v7 M-2.5,-0.5L0,-3.0L2.5,-0.5"/>
                </g>
                <g id="arrowRight" xlink:href="#dirArrow" transform="rotate(90) translate(36 -43)" onmousedown="handlePan(1,0)">
                  <use xlink:href="#rim" fill="#404040">
                        <set attributeName="fill" to="#808080" begin="arrowRight.mouseover" end="arrowRight.mouseout"/>
                  </use>
                  <path fill="none" stroke="white" stroke-width="1.5" d="M0,-3.0v7 M-2.5,-0.5L0,-3.0L2.5,-0.5"/>
                </g>
                <g id="arrowDown" xlink:href="#dirArrow" transform="rotate(180) translate(-30 -48)" onmousedown="handlePan(0,1)">
                  <use xlink:href="#rim" fill="#404040">
                        <set attributeName="fill" to="#808080" begin="arrowDown.mouseover" end="arrowDown.mouseout"/>
                  </use>
                  <path fill="none" stroke="white" stroke-width="1.5" d="M0,-3.0v7 M-2.5,-0.5L0,-3.0L2.5,-0.5"/>
                </g>
                <g id="arrowLeft" xlink:href="#dirArrow" transform="rotate(270) translate(-36 17)" onmousedown="handlePan(-1,0)">
                  <use xlink:href="#rim" fill="#404040">
                        <set attributeName="fill" to="#808080" begin="arrowLeft.mouseover" end="arrowLeft.mouseout"/>
                  </use>
                  <path fill="none" stroke="white" stroke-width="1.5" d="M0,-3.0v7 M-2.5,-0.5L0,-3.0L2.5,-0.5"/>
                </g>
        </g>
        <svg viewBox="0 0 15 15" width="100%" height="30px" preserveAspectRatio="xMaxYMin meet">
         <g id="arrow_out" transform="scale(0.3 0.3)">
          <a xlink:href="structGPUCA__NAMESPACE_1_1gpu_1_1GPUSettingsDeviceProcessing__coll__graph_org.svg" target="_base">
           <rect id="button" ry="5" rx="5" y="6" x="6" height="38" width="38"
                fill="#f2f5e9" fill-opacity="0.5" stroke="#606060" stroke-width="1.0"/>
           <path id="arrow"
             d="M 11.500037,31.436501 C 11.940474,20.09759 22.043105,11.32322 32.158766,21.979434 L 37.068811,17.246167 C 37.068811,17.246167 37.088388,32 37.088388,32 L 22.160133,31.978069 C 22.160133,31.978069 26.997745,27.140456 26.997745,27.140456 C 18.528582,18.264221 13.291696,25.230495 11.500037,31.436501 z"
             style="fill:#404040;"/>
          </a>
         </g>
        </svg>
</svg>
